G04 ================== begin FILE IDENTIFICATION RECORD ==================*
G04 Layout Name:  D:/project/ca100/hardware/sensor/v2/sensor.brd*
G04 Film Name:    BOTTOM*
G04 File Format:  Gerber RS274X*
G04 File Origin:  Cadence Allegro 16.3-p003*
G04 Origin Date:  Thu Jul 05 14:09:23 2012*
G04 *
G04 Layer:  VIA CLASS/BOTTOM*
G04 Layer:  BOARD GEOMETRY/OUTLINE*
G04 Layer:  ETCH/BOTTOM*
G04 Layer:  PIN/BOTTOM*
G04 *
G04 Offset:    (0.000 0.000)*
G04 Mirror:    No*
G04 Mode:      Positive*
G04 Rotation:  0*
G04 FullContactRelief:  No*
G04 UndefLineWidth:     8.000*
G04 ================== end FILE IDENTIFICATION RECORD ====================*
%FSLAX55Y55*MOIN*%
%IR0*IPPOS*OFA0.00000B0.00000*MIA0B0*SFA1.00000B1.00000*%
%ADD10C,.15748*%
%ADD11C,.137795*%
%ADD12C,.02*%
%ADD13C,.069*%
%ADD14C,.008*%
%ADD17C,.1538*%
%ADD15C,.173484*%
%ADD16C,.036004*%
%ADD18C,.085004*%
%ADD19C,.079004*%
G75*
%LPD*%
G75*
G36*
G01X-4498Y-41191D02*
X-11466Y-34222D01*
Y-22943D01*
X-17766Y-16644D01*
X-17912D01*
X-18020Y-16558D01*
X-18037Y-16491D01*
G03X-19786Y-15115I-1750J-424D01*
G01X-42727D01*
X-44523Y-13319D01*
G03X-47068Y-15865I-1273J-1273D01*
G01X-46973Y-15961D01*
G02X-47256Y-16644I-283J-283D01*
G01X-58356D01*
X-72059Y-30346D01*
G02X-72711Y-30217I-283J283D01*
G02X75330Y-22919I72711J30217D01*
G02X75139Y-23061I-191J58D01*
G01X52658D01*
X51998Y-23721D01*
Y-24055D01*
X45148Y-30906D01*
X30216D01*
X19931Y-41191D01*
X-4498D01*
G37*
G36*
G01X61301Y-49418D02*
G02X-62203Y-48277I-61301J49418D01*
G02X-62186Y-48013I158J123D01*
G01X-62106Y-47933D01*
X-56575D01*
X-47293Y-38652D01*
Y-26343D01*
G02X-47235Y-26201I200J0D01*
G01X-40659Y-19626D01*
X-20974D01*
X-13346Y-27254D01*
Y-37658D01*
X-8484Y-42520D01*
X21034D01*
X30876Y-32677D01*
X44813D01*
X61287Y-49151D01*
G02X61301Y-49418I-141J-141D01*
G37*
%LPC*%
G75*
G36*
G01X17219Y22607D02*
X22901D01*
G02Y19007I0J-1800D01*
G01X18711D01*
X12082Y12378D01*
G02X9536Y14924I-1273J1273D01*
G01X17219Y22607D01*
G37*
G36*
G01X-19417Y46463D02*
Y23471D01*
G02X-23017I-1800J0D01*
G01Y44971D01*
X-28659Y50614D01*
G03X-28907Y50642I-141J-141D01*
G02X-26142Y53407I-4593J7358D01*
G03X-26114Y53159I170J-106D01*
G01X-19417Y46463D01*
G37*
G36*
G01X8768Y24560D02*
G03X8432Y24466I-141J-141D01*
G02X8451Y28455I-8432J2035D01*
G03X8646Y28300I195J45D01*
G01X10120D01*
X10268Y28152D01*
X14826D01*
X31700Y45026D01*
Y49354D01*
G03X31545Y49549I-200J0D01*
G02X35455I1955J8451D01*
G03X35300Y49354I45J-195D01*
G01Y43534D01*
X16318Y24552D01*
X8776D01*
X8768Y24560D01*
G37*
G36*
G01X-12514Y10068D02*
X-37228D01*
X-40158Y7137D01*
X-42658D01*
X-48905Y891D01*
Y-3930D01*
G02X-52505I-1800J0D01*
G01Y2382D01*
X-44677Y10210D01*
G02X-43404Y10738I1273J-1273D01*
G01X-41650D01*
X-38720Y13668D01*
X-14005D01*
X-9220Y18453D01*
X-4731D01*
G02Y14853I0J-1800D01*
G01X-7728D01*
X-12514Y10068D01*
G37*
G36*
G01X61517Y12492D02*
G02X59630Y14378I1910J3797D01*
G03X59452Y14488I-179J-90D01*
G01X55358D01*
X43817Y26030D01*
G02X46363Y28576I1273J1273D01*
G01X56850Y18089D01*
X59452D01*
G03X59630Y18199I0J200D01*
G02X65337Y12492I3797J-1910D01*
G03X65227Y12313I90J-179D01*
G01Y10593D01*
X63583Y8949D01*
G03X64002Y8290I283J-283D01*
G02X62493Y1232I1441J-3998D01*
G03X61815Y944I-278J-288D01*
G01Y-4430D01*
G02X58215I-1800J0D01*
G01Y8672D01*
X61627Y12084D01*
Y12313D01*
G03X61517Y12492I-200J0D01*
G37*
G36*
G01X-6077Y7074D02*
X-3400Y4397D01*
X28724D01*
G02Y797I0J-1800D01*
G01X-4891D01*
X-8623Y4529D01*
G02X-9095Y5360I1273J1273D01*
G03X-9766Y5545I-388J-98D01*
G01X-10482Y4828D01*
X-18580D01*
G03X-18929Y4233I0J-400D01*
G02X-31188Y-7298I-7571J-4233D01*
G01X-43767D01*
G02Y-3698I0J1800D01*
G01X-34954D01*
G03X-34581Y-3152I0J400D01*
G02X-21907Y7358I8081J3152D01*
G01X-21847Y7321D01*
X-21709Y7337D01*
X-20617Y8429D01*
X-11974D01*
X-9125Y11277D01*
X15199D01*
X16775Y12853D01*
X24364D01*
G02Y9253I0J-1800D01*
G01X18267D01*
X16690Y7676D01*
X-6107D01*
G03X-6299Y7533I0J-200D01*
G01X-6325Y7446D01*
G03X-6255Y7230I192J-57D01*
G02X-6077Y7074I-1095J-1429D01*
G37*
G36*
G01X15207Y-23330D02*
X10114D01*
X5788Y-19004D01*
Y-15758D01*
G02X7589Y-13958I1800J0D01*
G01X9343D01*
X11332Y-11969D01*
X32241D01*
X35034Y-9176D01*
G03X34751Y-8494I-283J283D01*
G01X28175D01*
G02Y-4893I0J1800D01*
G01X34064D01*
X40699Y1741D01*
X45118D01*
X49150Y5773D01*
Y12319D01*
G02X52750I1800J0D01*
G01Y4282D01*
X46610Y-1859D01*
X42190D01*
X39530Y-4519D01*
G03X39813Y-5202I283J-283D01*
G01X46447D01*
G02Y-8802I0J-1800D01*
G01X40500D01*
X33732Y-15569D01*
X12824D01*
X10834Y-17559D01*
X10400D01*
G03X10118Y-18241I0J-400D01*
G01X11606Y-19730D01*
X15207D01*
G02Y-23330I0J-1800D01*
G37*
G36*
G01X-7409Y-61113D02*
Y-61030D01*
X-7527Y-60913D01*
X-7925D01*
X-12255Y-56583D01*
G02X-9710Y-54037I1273J1273D01*
G01X-6434Y-57313D01*
X-3283D01*
X58Y-60653D01*
G02X-2488Y-63199I-1273J-1273D01*
G01X-4774Y-60913D01*
X-4952D01*
G03X-5124Y-61674I0J-400D01*
G02X-7580Y-61311I-1823J-3839D01*
G03X-7409Y-61113I-30J198D01*
G37*
G54D17*
X0Y68000D03*
G54D15*
X-67000Y0D03*
X0Y-26500D03*
G54D16*
X-53920Y14063D03*
X-22991Y-48020D03*
G54D18*
X53722Y38330D03*
X-18947Y-63514D03*
X5053Y-65514D03*
G54D19*
X59520Y27635D03*
X17053Y-63514D03*
%LPD*%
G75*
G54D10*
X-67000Y0D03*
X-26500D03*
X-33500Y58000D03*
X0Y-26500D03*
Y26500D03*
X33500Y58000D03*
G54D11*
X-58500Y-34000D03*
X0Y68000D03*
X59000Y-33500D03*
G54D12*
G01X-50705Y-3930D02*
Y1637D01*
X-43404Y8938D01*
G01X-26500Y0D02*
X-19872Y6628D01*
X-11228D01*
X-8380Y9477D01*
X15945D01*
X17521Y11053D01*
X24364D01*
G01X-43767Y-5498D02*
X-31998D01*
X-26500Y0D01*
G01X-19786Y-16915D02*
X-43473D01*
X-45795Y-14592D01*
G01X-43404Y8938D02*
X-40904D01*
X-37974Y11868D01*
X-13259D01*
X-8474Y16653D01*
X-4731D01*
G01X-21217Y23471D02*
Y45717D01*
X-33500Y58000D01*
G01X-10982Y-55310D02*
X-7179Y-59113D01*
X-4028D01*
X-1215Y-61926D01*
G01X28724Y2597D02*
X-4145D01*
X-7350Y5802D01*
G01X0Y26500D02*
X9374D01*
X9522Y26352D01*
X15572D01*
X33500Y44280D01*
Y58000D01*
G01X46447Y-7002D02*
X39754D01*
X32987Y-13769D01*
X12078D01*
X10089Y-15758D01*
X7589D01*
G01X15207Y-21530D02*
X10860D01*
X7589Y-18258D01*
Y-15758D01*
G01X22901Y20807D02*
X17965D01*
X10809Y13651D01*
G01X28175Y-6693D02*
X34810D01*
X41444Y-59D01*
X45864D01*
X50950Y5027D01*
Y12319D01*
G01X45090Y27303D02*
X56104Y16289D01*
X63427D01*
G01D02*
Y11339D01*
X60015Y7927D01*
Y-4430D01*
X-50705Y-3930D03*
X-71158Y11476D03*
X-53920Y14063D03*
X-22991Y-48020D03*
X-37236Y-56056D03*
X-45776Y-34261D03*
X-43767Y-5498D03*
X-45795Y-14592D03*
X-26472Y19504D03*
X-34953Y24063D03*
X-43404Y8938D03*
X-40984Y38308D03*
X-1215Y-61926D03*
X-10982Y-55310D03*
X-3228Y-56313D03*
X-15543Y-29939D03*
X-19786Y-16915D03*
X-18257Y26274D03*
X-4731Y16653D03*
X-21217Y23471D03*
X-7350Y5802D03*
X2058Y44463D03*
X3681Y-56667D03*
X21893Y-43943D03*
X25951Y-17982D03*
X7589Y-15758D03*
X15207Y-21530D03*
X7589Y6468D03*
X10809Y13651D03*
X22901Y20807D03*
X24364Y11053D03*
X10613Y35760D03*
X46309Y-26270D03*
X28175Y-47158D03*
Y-6693D03*
X46447Y-7002D03*
X45996Y19262D03*
X50950Y12319D03*
X28724Y2597D03*
X45090Y27303D03*
X54547Y-53733D03*
X72694Y-16457D03*
X60015Y-4430D03*
X54468Y4273D03*
G54D13*
X-6947Y-65514D03*
X-18947Y-63514D03*
X17053D03*
X5053Y-65514D03*
X53722Y38330D03*
X65443Y4291D03*
X59520Y27635D03*
X63427Y16289D03*
G54D14*
G01X17053Y-67664D02*
Y-63514D01*
G01D02*
Y-59364D01*
G01X12903Y-63514D02*
X17053D01*
G01D02*
X21203D01*
G01X59520Y23485D02*
Y27635D01*
G01D02*
Y31785D01*
G01X55370Y27635D02*
X59520D01*
G01D02*
X63671D01*
G01X82677Y0D02*
G03I-82677J0D01*
M02*
