G04 ================== begin FILE IDENTIFICATION RECORD ==================*
G04 Layout Name:  D:/project/ca100/hardware/sensor/v2/sensor.brd*
G04 Film Name:    SILK_TOP*
G04 File Format:  Gerber RS274X*
G04 File Origin:  Cadence Allegro 16.3-p003*
G04 Origin Date:  Thu Jul 05 14:09:23 2012*
G04 *
G04 Layer:  REF DES/SILKSCREEN_TOP*
G04 Layer:  PACKAGE GEOMETRY/SILKSCREEN_TOP*
G04 Layer:  BOARD GEOMETRY/SILKSCREEN_TOP*
G04 Layer:  BOARD GEOMETRY/OUTLINE*
G04 *
G04 Offset:    (0.000 0.000)*
G04 Mirror:    No*
G04 Mode:      Positive*
G04 Rotation:  0*
G04 FullContactRelief:  No*
G04 UndefLineWidth:     8.000*
G04 ================== end FILE IDENTIFICATION RECORD ====================*
%FSLAX55Y55*MOIN*%
%IR0*IPPOS*OFA0.00000B0.00000*MIA0B0*SFA1.00000B1.00000*%
%ADD10C,.006*%
%ADD11C,.012*%
%ADD12C,.008*%
G75*
%LPD*%
G75*
G36*
G01X-47377Y-46132D02*
G03I-1113J0D01*
G37*
G36*
G01X-43840Y14063D02*
G03I-1113J0D01*
G37*
G36*
G01X-6298Y-6772D02*
G03I-1113J0D01*
G37*
G36*
G01X40711Y-37985D02*
G03I-1113J0D01*
G37*
G36*
G01X32560Y-7175D02*
G03I-1113J0D01*
G37*
G54D10*
G01X-63939Y43308D02*
Y33308D01*
X-43939D01*
Y43308D01*
X-63939D01*
G01X-28017Y-19981D02*
X-34578Y-27528D01*
X-19483Y-40649D01*
X-12922Y-33102D01*
X-28017Y-19981D01*
G01X12087Y-21880D02*
Y-31880D01*
X32087D01*
Y-21880D01*
X12087D01*
G01X12421Y25807D02*
Y15807D01*
X32421D01*
Y25807D01*
X12421D01*
G01X32756Y27624D02*
Y37624D01*
X12756D01*
Y27624D01*
X32756D01*
G01X23446Y39463D02*
Y49463D01*
X3446D01*
Y39463D01*
X23446D01*
G01X51762Y-11457D02*
X51762Y-21457D01*
X71761D01*
X71762Y-11457D01*
X51762D01*
G54D11*
G01X-50765Y-9745D02*
X-56124Y-15105D01*
G01X-56146Y-15083D02*
X-54732Y-16498D01*
G01X-49442Y-21787D02*
X-48028Y-23201D01*
G01X-42690Y-17820D02*
X-48049Y-23180D01*
G01X-44125Y-10812D02*
X-43771Y-11166D01*
G54D12*
G01X82677Y0D02*
G03I-82677J0D01*
G01X-50839Y-43513D02*
X-53106Y-41399D01*
X-52583Y-40838D01*
X-52261Y-40720D01*
X-51953Y-40692D01*
X-51595Y-40764D01*
X-51226Y-40898D01*
X-50822Y-41222D01*
X-50471Y-41603D01*
X-50311Y-41962D01*
X-50215Y-42313D01*
X-50220Y-42622D01*
X-50316Y-42952D01*
X-50839Y-43513D01*
G01X-50536Y-39400D02*
X-50606Y-39020D01*
X-50536Y-38718D01*
X-50365Y-38459D01*
X-50028Y-38249D01*
X-49656Y-38229D01*
X-49377Y-38384D01*
X-49176Y-38624D01*
X-49092Y-38912D01*
X-49237Y-39825D01*
X-49208Y-40324D01*
X-48986Y-40845D01*
X-48699Y-41218D01*
X-47601Y-40040D01*
G01X-50736Y-45653D02*
X-36915Y-58541D01*
X-26711Y-47599D01*
X-40533Y-34711D01*
X-50736Y-45653D01*
G01X-49549Y-8280D02*
X-52649D01*
Y-7322D01*
X-52494Y-7015D01*
X-52287Y-6823D01*
X-51874Y-6747D01*
X-51460Y-6823D01*
X-51202Y-7053D01*
X-51047Y-7322D01*
Y-8280D01*
G01Y-7322D02*
X-49549Y-6747D01*
G01X-52132Y-5142D02*
X-52442Y-4912D01*
X-52597Y-4643D01*
X-52649Y-4336D01*
X-52546Y-3953D01*
X-52287Y-3685D01*
X-51977Y-3608D01*
X-51667Y-3647D01*
X-51409Y-3800D01*
X-50892Y-4566D01*
X-50530Y-4912D01*
X-50014Y-5142D01*
X-49549Y-5218D01*
Y-3608D01*
G01X-44020Y8302D02*
Y-2698D01*
X-50020Y-2698D01*
X-50020Y7302D01*
X-49020Y8302D01*
X-44020D01*
G01X-57045Y-6670D02*
X-57200Y-6900D01*
X-57304Y-7168D01*
Y-7475D01*
X-57149Y-7820D01*
X-56890Y-8088D01*
X-56580Y-8280D01*
X-56064Y-8433D01*
X-55599Y-8472D01*
X-55134Y-8395D01*
X-54824Y-8280D01*
X-54514Y-8050D01*
X-54307Y-7781D01*
X-54204Y-7513D01*
Y-7245D01*
X-54307Y-6977D01*
X-54462Y-6747D01*
X-54669Y-6555D01*
G01X-54565Y-5065D02*
X-54307Y-4797D01*
X-54204Y-4490D01*
X-54307Y-4183D01*
X-54617Y-3915D01*
X-55082Y-3723D01*
X-55547Y-3647D01*
X-56115D01*
X-56580Y-3723D01*
X-56994Y-3915D01*
X-57200Y-4145D01*
X-57304Y-4413D01*
X-57200Y-4720D01*
X-56994Y-4950D01*
X-56684Y-5103D01*
X-56270Y-5180D01*
X-55909Y-5103D01*
X-55547Y-4912D01*
X-55340Y-4682D01*
X-55289Y-4413D01*
X-55392Y-4107D01*
X-55650Y-3876D01*
X-56115Y-3647D01*
G01X-56596Y-2255D02*
Y8745D01*
X-50596D01*
Y-1255D01*
X-51596Y-2255D01*
X-56596D01*
G01X-59731Y-15023D02*
X-61144Y-17944D01*
X-58329Y-16330D01*
G01X-58877Y-20058D02*
X-56763Y-17791D01*
X-57522Y-17931D01*
G01X-59213Y-19745D02*
X-58540Y-20372D01*
G01X-70912Y26719D02*
X-71068Y26489D01*
X-71171Y26220D01*
Y25914D01*
X-71016Y25569D01*
X-70758Y25300D01*
X-70447Y25109D01*
X-69931Y24955D01*
X-69466Y24917D01*
X-69001Y24994D01*
X-68691Y25109D01*
X-68381Y25339D01*
X-68174Y25607D01*
X-68071Y25875D01*
Y26144D01*
X-68174Y26412D01*
X-68329Y26642D01*
X-68536Y26834D01*
G01X-68071Y28975D02*
X-71171D01*
X-70551Y28515D01*
G01X-68071D02*
Y29435D01*
G01X-68536Y31232D02*
X-68277Y31462D01*
X-68123Y31730D01*
X-68071Y32075D01*
X-68174Y32420D01*
X-68381Y32689D01*
X-68742Y32880D01*
X-69156Y32919D01*
X-69569Y32842D01*
X-69828Y32650D01*
X-70034Y32382D01*
X-70086Y32114D01*
X-70034Y31845D01*
X-69828Y31500D01*
X-71171Y31615D01*
Y32650D01*
G01X-68158Y23374D02*
Y12374D01*
X-74158D01*
Y22374D01*
X-73158Y23374D01*
X-68158D01*
G01X-62844Y8438D02*
Y11538D01*
X-61080Y8438D01*
Y11538D01*
G01X-59705Y9058D02*
X-59475Y8696D01*
X-59169Y8490D01*
X-58824Y8438D01*
X-58517Y8490D01*
X-58210Y8748D01*
X-58019Y9058D01*
X-57980Y9368D01*
X-58057Y9729D01*
X-58325Y9988D01*
X-58594Y10091D01*
X-58939D01*
G01X-58594D02*
X-58364Y10246D01*
X-58172Y10504D01*
X-58095Y10814D01*
X-58172Y11125D01*
X-58364Y11383D01*
X-58709Y11538D01*
X-59054Y11486D01*
X-59399Y11279D01*
G01X-43772Y12094D02*
Y30992D01*
X-58733D01*
Y12094D01*
X-43772D01*
G01X-52093Y47167D02*
X-52323Y47322D01*
X-52591Y47425D01*
X-52898D01*
X-53243Y47270D01*
X-53511Y47012D01*
X-53703Y46702D01*
X-53856Y46185D01*
X-53895Y45720D01*
X-53818Y45255D01*
X-53703Y44945D01*
X-53473Y44635D01*
X-53204Y44429D01*
X-52936Y44325D01*
X-52668D01*
X-52400Y44429D01*
X-52170Y44584D01*
X-51978Y44790D01*
G01X-49836Y44325D02*
Y47425D01*
X-50296Y46805D01*
G01Y44325D02*
X-49376D01*
G01X-46276D02*
Y47425D01*
X-47695Y45204D01*
X-45778D01*
G01X-62939Y43308D02*
Y33308D01*
G01X-24636Y-54422D02*
X-27630Y-53619D01*
X-27382Y-52693D01*
X-27153Y-52437D01*
X-26904Y-52306D01*
X-26485Y-52339D01*
X-26106Y-52520D01*
X-25915Y-52809D01*
X-25835Y-53108D01*
X-26083Y-54034D01*
G01X-25835Y-53108D02*
X-24239Y-52940D01*
G01X-23635Y-50687D02*
X-26630Y-49884D01*
X-26150Y-50489D01*
G01X-23754Y-51131D02*
X-23516Y-50242D01*
G01X-23351Y-48228D02*
X-23032Y-48036D01*
X-22853Y-47766D01*
X-22873Y-47443D01*
X-23103Y-47104D01*
X-23503Y-46798D01*
X-23932Y-46604D01*
X-24481Y-46457D01*
X-24950Y-46411D01*
X-25399Y-46489D01*
X-25658Y-46657D01*
X-25827Y-46890D01*
X-25807Y-47213D01*
X-25667Y-47488D01*
X-25407Y-47717D01*
X-25028Y-47898D01*
X-24659Y-47917D01*
X-24260Y-47826D01*
X-24000Y-47657D01*
X-23881Y-47411D01*
X-23901Y-47088D01*
X-24091Y-46799D01*
X-24481Y-46457D01*
G01X-947Y-60797D02*
G02X-21821Y-55600I0J44520D01*
G01X-27766Y-61545D01*
Y-65955D01*
G03X-947Y-72730I26819J49689D01*
G01X-38329Y-31459D02*
X-38602Y-31508D01*
X-38867Y-31620D01*
X-39087Y-31832D01*
X-39228Y-32184D01*
X-39242Y-32556D01*
X-39164Y-32912D01*
X-38915Y-33390D01*
X-38620Y-33751D01*
X-38242Y-34033D01*
X-37944Y-34176D01*
X-37563Y-34239D01*
X-37226Y-34201D01*
X-36962Y-34089D01*
X-36769Y-33903D01*
X-36647Y-33642D01*
X-36590Y-33371D01*
X-36595Y-33089D01*
G01X-34787Y-31989D02*
X-35198Y-31453D01*
X-35510Y-30964D01*
X-35759Y-30486D01*
X-36016Y-29944D01*
X-36333Y-29173D01*
X-37436Y-30238D01*
G01X-35699Y-25792D02*
X-43340Y-33705D01*
X-47656Y-29537D01*
X-40710Y-22343D01*
X-39296Y-22319D01*
X-35699Y-25792D01*
G01X-27262Y-20637D02*
X-33823Y-28184D01*
G01X-37405Y8302D02*
Y-2698D01*
X-43405D01*
Y7302D01*
X-42405Y8302D01*
X-37405D01*
G01X-31217Y-16882D02*
X-29103Y-14615D01*
X-28402Y-15269D01*
X-28283Y-15591D01*
X-28284Y-15873D01*
X-28510Y-16228D01*
X-28848Y-16478D01*
X-29192Y-16510D01*
X-29494Y-16440D01*
X-30195Y-15786D01*
G01X-29494Y-16440D02*
X-30095Y-17928D01*
G01X-28389Y-19519D02*
X-26275Y-17252D01*
X-27034Y-17392D01*
G01X-28725Y-19206D02*
X-28053Y-19833D01*
G01X-33492Y-16659D02*
X-41133Y-8746D01*
X-36817Y-4578D01*
X-29871Y-11771D01*
X-29895Y-13185D01*
X-33492Y-16659D01*
G01X-25536Y22652D02*
X-24722Y22724D01*
X-24001Y23000D01*
X-23558Y23443D01*
X-23337Y24109D01*
X-23376Y24813D01*
X-23730Y25499D01*
X-24360Y25908D01*
X-25083Y26076D01*
X-25878Y25875D01*
X-26691Y25358D01*
X-27376Y25268D01*
X-28062Y25621D01*
X-28471Y26252D01*
X-28565Y26900D01*
X-28400Y27510D01*
X-28012Y27898D01*
X-27476Y28137D01*
X-26772Y28098D01*
G01X-20543Y26458D02*
X-24998Y30913D01*
X-23890Y32020D01*
X-23224Y32241D01*
X-22595Y32276D01*
X-21872Y32108D01*
X-21131Y31810D01*
X-20333Y31122D01*
X-19646Y30325D01*
X-19348Y29583D01*
X-19179Y28861D01*
X-19215Y28232D01*
X-19435Y27566D01*
X-20543Y26458D01*
G01X-19324Y36586D02*
X-19619Y35994D01*
X-19580Y35291D01*
X-19356Y34624D01*
X-18928Y33864D01*
X-18315Y33140D01*
X-17592Y32527D01*
X-16832Y32099D01*
X-16165Y31876D01*
X-15461Y31837D01*
X-14870Y32131D01*
X-14575Y32723D01*
X-14614Y33426D01*
X-14838Y34094D01*
X-15265Y34854D01*
X-15878Y35577D01*
X-16602Y36190D01*
X-17362Y36618D01*
X-18029Y36842D01*
X-18733Y36881D01*
X-19324Y36586D01*
G01X-10415Y36586D02*
X-14870Y41041D01*
X-14643Y39485D01*
G01X-11079Y35921D02*
X-9750Y37251D01*
G01X-5295Y41706D02*
X-9750Y46160D01*
X-8607Y40918D01*
X-5837Y43688D01*
G01X-3710Y46261D02*
X-2270Y47701D01*
G01X-1505Y54405D02*
X-1800Y53814D01*
X-1761Y53110D01*
X-1537Y52443D01*
X-1109Y51683D01*
X-496Y50959D01*
X227Y50346D01*
X988Y49919D01*
X1655Y49695D01*
X2358Y49656D01*
X2950Y49950D01*
X3244Y50542D01*
X3206Y51246D01*
X2982Y51913D01*
X2554Y52673D01*
X1941Y53396D01*
X1217Y54009D01*
X457Y54437D01*
X-210Y54661D01*
X-914Y54700D01*
X-1505Y54405D01*
G01X5518Y53855D02*
X6221Y53816D01*
X6832Y53981D01*
X7404Y54405D01*
X7755Y55052D01*
X7845Y55737D01*
X7603Y56534D01*
X7064Y57183D01*
X6359Y57666D01*
X5711Y57760D01*
X5026Y57670D01*
X4564Y57356D01*
X4251Y56894D01*
X4049Y56099D01*
X2285Y58195D01*
X3781Y59691D01*
G01X10752Y57752D02*
X6297Y62207D01*
X7626Y63536D01*
X8292Y63757D01*
X9144Y63570D01*
X9849Y63086D01*
X10332Y62382D01*
X10500Y61659D01*
X10225Y60938D01*
X8896Y59608D01*
G01X13449Y68617D02*
X12894Y68507D01*
X12358Y68268D01*
X11915Y67825D01*
X11639Y67104D01*
X11622Y66345D01*
X11791Y65622D01*
X12312Y64658D01*
X12925Y63935D01*
X13704Y63377D01*
X14315Y63098D01*
X15093Y62985D01*
X15778Y63076D01*
X16314Y63315D01*
X16702Y63703D01*
X16941Y64239D01*
X17051Y64794D01*
X17031Y65368D01*
G01X18836Y70589D02*
X18835Y71033D01*
X18630Y71570D01*
X18221Y72201D01*
X17665Y72536D01*
X17146Y72611D01*
X16536Y72446D01*
X15040Y70950D01*
X19495Y66496D01*
X21323Y68324D01*
X21414Y69008D01*
X21190Y69675D01*
X20781Y70306D01*
X20150Y70715D01*
X19372Y70828D01*
X18836Y70589D01*
X17119Y68872D01*
G01X-36039Y6236D02*
X-36190Y6003D01*
X-36289Y5733D01*
X-36283Y5426D01*
X-36122Y5084D01*
X-35860Y4820D01*
X-35546Y4634D01*
X-35027Y4490D01*
X-34561Y4460D01*
X-34098Y4544D01*
X-33790Y4665D01*
X-33484Y4900D01*
X-33282Y5172D01*
X-33183Y5442D01*
X-33188Y5710D01*
X-33296Y5977D01*
X-33455Y6204D01*
X-33665Y6392D01*
G01X-33237Y8542D02*
X-36337Y8488D01*
X-35709Y8039D01*
G01X-33229Y8082D02*
X-33245Y9002D01*
G01X-24961Y12467D02*
X-28061D01*
Y13425D01*
X-27906Y13732D01*
X-27699Y13923D01*
X-27286Y14000D01*
X-26872Y13923D01*
X-26614Y13693D01*
X-26459Y13425D01*
Y12467D01*
G01Y13425D02*
X-24961Y14000D01*
G01X-25581Y15490D02*
X-25219Y15720D01*
X-25012Y16027D01*
X-24961Y16372D01*
X-25012Y16678D01*
X-25270Y16985D01*
X-25581Y17177D01*
X-25891Y17215D01*
X-26252Y17138D01*
X-26511Y16870D01*
X-26614Y16602D01*
Y16257D01*
G01Y16602D02*
X-26769Y16832D01*
X-27027Y17023D01*
X-27337Y17100D01*
X-27647Y17023D01*
X-27906Y16832D01*
X-28061Y16487D01*
X-28009Y16142D01*
X-27802Y15797D01*
G01X-35350Y11004D02*
Y22004D01*
X-29350D01*
Y12004D01*
X-30350Y11004D01*
X-35350D01*
G01X-37043Y36017D02*
X-31296Y32776D01*
X-34192Y38704D01*
G01X-31396Y39897D02*
X-31486Y40677D01*
X-31303Y41283D01*
X-30919Y41789D01*
X-30205Y42174D01*
X-29446Y42168D01*
X-28900Y41817D01*
X-28525Y41304D01*
X-28393Y40707D01*
X-28813Y38869D01*
X-28821Y37850D01*
X-28443Y36764D01*
X-27909Y35969D01*
X-25515Y38225D01*
G01X-14272Y-54461D02*
X-13122Y-43521D01*
X-7154Y-44148D01*
X-8200Y-54094D01*
X-9299Y-54984D01*
X-14272Y-54461D01*
G01X-228Y-44313D02*
Y-55313D01*
X-6229D01*
X-6228Y-45313D01*
X-5228Y-44313D01*
X-228D01*
G01X-22720Y-52476D02*
X-19872Y-41850D01*
X-14077Y-43404D01*
X-16665Y-53063D01*
X-17890Y-53770D01*
X-22720Y-52476D01*
G01X-963Y-60797D02*
G03X19911Y-55600I0J44520D01*
G01X25856Y-61545D01*
Y-65955D01*
G02X-963Y-72730I-26819J49689D01*
G01X-8522Y-42479D02*
X-11564Y-41888D01*
X-11382Y-40947D01*
X-11171Y-40675D01*
X-10932Y-40527D01*
X-10511Y-40530D01*
X-10120Y-40684D01*
X-9910Y-40960D01*
X-9809Y-41252D01*
X-9992Y-42193D01*
G01X-9809Y-41252D02*
X-8229Y-40974D01*
G01X-9190Y-39152D02*
X-9494Y-38820D01*
X-9653Y-38554D01*
X-9696Y-38234D01*
X-9544Y-37990D01*
X-9304Y-37841D01*
X-8971Y-37750D01*
X-8608Y-37781D01*
X-8311Y-37878D01*
X-8036Y-38088D01*
X-7827Y-38363D01*
X-7776Y-38646D01*
X-7936Y-38927D01*
X-8292Y-39132D01*
X-8778Y-39193D01*
X-9292Y-39132D01*
X-9937Y-38929D01*
X-10270Y-38747D01*
X-10588Y-38490D01*
X-10791Y-38177D01*
X-10790Y-37904D01*
X-10638Y-37660D01*
X-10347Y-37521D01*
G01X-1755Y-42473D02*
X-4850Y-42635D01*
X-4901Y-41678D01*
X-4762Y-41364D01*
X-4566Y-41161D01*
X-4157Y-41063D01*
X-3740Y-41118D01*
X-3470Y-41334D01*
X-3301Y-41594D01*
X-3251Y-42551D01*
G01X-3301Y-41594D02*
X-1835Y-40941D01*
G01X-1953Y-38688D02*
X-2628Y-38646D01*
X-3201Y-38561D01*
X-3725Y-38435D01*
X-4303Y-38274D01*
X-5093Y-38008D01*
X-5013Y-39539D01*
G01X-17400Y-23457D02*
X-17472Y-23189D01*
X-17606Y-22935D01*
X-17838Y-22734D01*
X-18200Y-22625D01*
X-18572Y-22644D01*
X-18920Y-22752D01*
X-19375Y-23041D01*
X-19709Y-23367D01*
X-19956Y-23768D01*
X-20072Y-24078D01*
X-20102Y-24463D01*
X-20035Y-24795D01*
X-19901Y-25048D01*
X-19698Y-25225D01*
X-19428Y-25323D01*
X-19152Y-25357D01*
X-18872Y-25326D01*
G01X-17263Y-25630D02*
X-16824Y-25533D01*
X-16514Y-25528D01*
X-16215Y-25651D01*
X-16080Y-25905D01*
X-16071Y-26187D01*
X-16159Y-26521D01*
X-16367Y-26819D01*
X-16600Y-27028D01*
X-16919Y-27162D01*
X-17262Y-27206D01*
X-17532Y-27108D01*
X-17696Y-26828D01*
X-17695Y-26418D01*
X-17506Y-25967D01*
X-17196Y-25552D01*
X-16697Y-25095D01*
X-16373Y-24898D01*
X-15991Y-24750D01*
X-15619Y-24731D01*
X-15383Y-24868D01*
X-15248Y-25122D01*
X-15273Y-25443D01*
G01X-11495Y-842D02*
X-14595D01*
Y117D01*
X-14440Y423D01*
X-14234Y615D01*
X-13820Y692D01*
X-13407Y615D01*
X-13149Y385D01*
X-12994Y117D01*
Y-842D01*
G01Y117D02*
X-11495Y692D01*
G01Y3025D02*
X-14595D01*
X-13975Y2565D01*
G01X-11495D02*
Y3485D01*
G01X-14595Y6125D02*
X-14492Y5818D01*
X-14234Y5588D01*
X-13924Y5435D01*
X-13510Y5320D01*
X-13045Y5282D01*
X-12580Y5320D01*
X-12167Y5435D01*
X-11857Y5588D01*
X-11599Y5818D01*
X-11495Y6125D01*
X-11599Y6432D01*
X-11857Y6662D01*
X-12167Y6815D01*
X-12580Y6930D01*
X-13045Y6968D01*
X-13510Y6930D01*
X-13924Y6815D01*
X-14234Y6662D01*
X-14492Y6432D01*
X-14595Y6125D01*
G01X-7644Y-19381D02*
X-10744D01*
X-7644Y-17617D01*
X-10744D01*
G01X-7644Y-15399D02*
X-10744D01*
X-10124Y-15859D01*
G01X-7644D02*
Y-14939D01*
G01X-9380Y-7953D02*
X9518D01*
Y7008D01*
X-9380D01*
Y-7953D01*
G01X-15337Y6312D02*
X-23115Y14090D01*
X-18872Y18333D01*
X-11802Y11262D01*
Y9848D01*
X-15337Y6312D01*
G01X-11909Y15629D02*
X-19688Y23408D01*
X-15445Y27650D01*
X-8374Y20579D01*
Y19165D01*
X-11909Y15629D01*
G01X9032Y-55085D02*
X7691Y-44167D01*
X13646Y-43436D01*
X14865Y-53361D01*
X13994Y-54476D01*
X9032Y-55085D01*
G01X6681Y-44263D02*
X6681Y-55264D01*
X681D01*
Y-45264D01*
X1681Y-44264D01*
X6681Y-44263D01*
G01X17254Y-53991D02*
X14593Y-43318D01*
X20415Y-41866D01*
X22834Y-51569D01*
X22106Y-52782D01*
X17254Y-53991D01*
G01X11889Y-42256D02*
X8869Y-42954D01*
X8653Y-42020D01*
X8735Y-41686D01*
X8894Y-41453D01*
X9279Y-41286D01*
X9699Y-41267D01*
X10002Y-41433D01*
X10214Y-41660D01*
X10430Y-42594D01*
G01X10214Y-41660D02*
X11544Y-40762D01*
G01X11020Y-38489D02*
X10909Y-38239D01*
X10689Y-37975D01*
X10394Y-37846D01*
X10024Y-37853D01*
X9689Y-38009D01*
X9439Y-38303D01*
X9366Y-38674D01*
X9452Y-39048D01*
X9403Y-39295D01*
X9194Y-39540D01*
X8859Y-39696D01*
X8481Y-39665D01*
X8169Y-39462D01*
X7999Y-39186D01*
X8031Y-38864D01*
X8222Y-38545D01*
X8549Y-38351D01*
X8918Y-38345D01*
X9213Y-38473D01*
X9366Y-38674D01*
X9452Y-39048D01*
X9680Y-39349D01*
X10034Y-39503D01*
X10404Y-39497D01*
X10739Y-39341D01*
X10948Y-39096D01*
X11030Y-38762D01*
X11020Y-38489D01*
G01X5328Y-42247D02*
X2230Y-42355D01*
X2196Y-41397D01*
X2340Y-41085D01*
X2540Y-40887D01*
X2950Y-40796D01*
X3366Y-40858D01*
X3633Y-41079D01*
X3797Y-41341D01*
X3830Y-42299D01*
G01X3797Y-41341D02*
X5274Y-40714D01*
G01X4854Y-39046D02*
X5103Y-38769D01*
X5195Y-38459D01*
X5081Y-38156D01*
X4762Y-37899D01*
X4291Y-37724D01*
X3823Y-37663D01*
X3255Y-37683D01*
X2793Y-37776D01*
X2387Y-37982D01*
X2188Y-38219D01*
X2095Y-38491D01*
X2208Y-38794D01*
X2423Y-39016D01*
X2738Y-39159D01*
X3154Y-39221D01*
X3513Y-39132D01*
X3868Y-38928D01*
X4066Y-38690D01*
X4108Y-38420D01*
X3994Y-38118D01*
X3728Y-37897D01*
X3255Y-37683D01*
G01X18518Y-40710D02*
X15510Y-41460D01*
X15278Y-40530D01*
X15354Y-40195D01*
X15508Y-39959D01*
X15891Y-39784D01*
X16310Y-39759D01*
X16616Y-39919D01*
X16832Y-40142D01*
X17064Y-41072D01*
G01X16832Y-40142D02*
X18146Y-39222D01*
G01X15252Y-38290D02*
X14895Y-38141D01*
X14680Y-37918D01*
X14556Y-37633D01*
X14563Y-37236D01*
X14749Y-36914D01*
X15031Y-36764D01*
X15341Y-36726D01*
X15629Y-36813D01*
X16316Y-37432D01*
X16750Y-37679D01*
X17307Y-37777D01*
X17777Y-37739D01*
X17387Y-36177D01*
G01X13824Y-34700D02*
X13999Y-34972D01*
X14305Y-35133D01*
X14643Y-35207D01*
X15072Y-35218D01*
X15532Y-35143D01*
X15974Y-34994D01*
X16347Y-34782D01*
X16611Y-34558D01*
X16806Y-34273D01*
X16832Y-33950D01*
X16658Y-33677D01*
X16351Y-33517D01*
X16013Y-33443D01*
X15585Y-33431D01*
X15124Y-33507D01*
X14682Y-33656D01*
X14309Y-33868D01*
X14045Y-34092D01*
X13850Y-34377D01*
X13824Y-34700D01*
G01X7775Y-28734D02*
X7545Y-28579D01*
X7277Y-28476D01*
X6970D01*
X6625Y-28631D01*
X6357Y-28889D01*
X6165Y-29199D01*
X6012Y-29716D01*
X5974Y-30181D01*
X6050Y-30646D01*
X6165Y-30956D01*
X6395Y-31266D01*
X6664Y-31472D01*
X6932Y-31576D01*
X7200D01*
X7469Y-31472D01*
X7699Y-31317D01*
X7890Y-31111D01*
G01X9189D02*
X9419Y-31369D01*
X9687Y-31524D01*
X10032Y-31576D01*
X10377Y-31472D01*
X10645Y-31266D01*
X10837Y-30904D01*
X10875Y-30491D01*
X10799Y-30077D01*
X10607Y-29819D01*
X10339Y-29612D01*
X10070Y-29561D01*
X9802Y-29612D01*
X9457Y-29819D01*
X9572Y-28476D01*
X10607D01*
G01X13087Y-21880D02*
Y-31880D01*
G01X40496Y-35873D02*
X25208Y-46981D01*
X34001Y-59084D01*
X49290Y-47976D01*
X40496Y-35873D01*
G01X25905Y-15906D02*
X25675Y-15751D01*
X25407Y-15647D01*
X25100D01*
X24755Y-15802D01*
X24487Y-16061D01*
X24295Y-16371D01*
X24142Y-16887D01*
X24104Y-17352D01*
X24180Y-17817D01*
X24295Y-18127D01*
X24525Y-18438D01*
X24794Y-18644D01*
X25062Y-18747D01*
X25330D01*
X25599Y-18644D01*
X25829Y-18489D01*
X26020Y-18282D01*
G01X28162Y-18747D02*
Y-15647D01*
X27702Y-16267D01*
G01Y-18747D02*
X28622D01*
G01X31262Y-15647D02*
X30955Y-15751D01*
X30725Y-16009D01*
X30572Y-16319D01*
X30457Y-16732D01*
X30419Y-17197D01*
X30457Y-17662D01*
X30572Y-18076D01*
X30725Y-18386D01*
X30955Y-18644D01*
X31262Y-18747D01*
X31569Y-18644D01*
X31799Y-18386D01*
X31952Y-18076D01*
X32067Y-17662D01*
X32105Y-17197D01*
X32067Y-16732D01*
X31952Y-16319D01*
X31799Y-16009D01*
X31569Y-15751D01*
X31262Y-15647D01*
G01X12207Y-14982D02*
X23207D01*
Y-20982D01*
X13207D01*
X12207Y-19982D01*
Y-14982D01*
G01X24079Y-5465D02*
X23971Y-2367D01*
X24929Y-2333D01*
X25241Y-2478D01*
X25440Y-2677D01*
X25531Y-3088D01*
X25469Y-3503D01*
X25248Y-3770D01*
X24985Y-3934D01*
X24027Y-3967D01*
G01X24985Y-3934D02*
X25612Y-5411D01*
G01X28404Y-5314D02*
X28295Y-2216D01*
X26955Y-4486D01*
X28871Y-4419D01*
G01X23246Y-6612D02*
X12246D01*
Y-612D01*
X22246D01*
X23246Y-1612D01*
Y-6612D01*
G01X23854Y-12574D02*
X24016Y-9478D01*
X24973Y-9528D01*
X25271Y-9699D01*
X25452Y-9916D01*
X25507Y-10332D01*
X25409Y-10741D01*
X25165Y-10987D01*
X24889Y-11128D01*
X23932Y-11078D01*
G01X24889Y-11128D02*
X25385Y-12654D01*
G01X26897Y-12268D02*
X27114Y-12538D01*
X27373Y-12707D01*
X27715Y-12776D01*
X28065Y-12691D01*
X28344Y-12499D01*
X28554Y-12148D01*
X28614Y-11737D01*
X28559Y-11320D01*
X28381Y-11052D01*
X28124Y-10832D01*
X27859Y-10766D01*
X27588Y-10804D01*
X27233Y-10992D01*
X27418Y-9656D01*
X28452Y-9711D01*
G01X23246Y-13689D02*
X12246D01*
Y-7689D01*
X22246D01*
X23246Y-8689D01*
Y-13689D01*
G01X3255Y15415D02*
Y18515D01*
X4213D01*
X4520Y18360D01*
X4711Y18154D01*
X4788Y17740D01*
X4711Y17327D01*
X4481Y17069D01*
X4213Y16914D01*
X3255D01*
G01X4213D02*
X4788Y15415D01*
G01X7121D02*
Y18515D01*
X6661Y17895D01*
G01Y15415D02*
X7581D01*
G01X9493Y17999D02*
X9723Y18309D01*
X9991Y18464D01*
X10298Y18515D01*
X10681Y18412D01*
X10950Y18154D01*
X11026Y17844D01*
X10988Y17534D01*
X10835Y17275D01*
X10068Y16759D01*
X9723Y16397D01*
X9493Y15880D01*
X9416Y15415D01*
X11026D01*
G01X12148Y14053D02*
X23148D01*
Y8053D01*
X13148D01*
X12148Y9053D01*
Y14053D01*
G01X3510Y1830D02*
X3455Y4929D01*
X4414Y4946D01*
X4723Y4796D01*
X4918Y4593D01*
X5002Y4181D01*
X4933Y3766D01*
X4707Y3504D01*
X4442Y3344D01*
X3483Y3328D01*
G01X4442Y3344D02*
X5043Y1856D01*
G01X7376Y1897D02*
X7321Y4996D01*
X6872Y4369D01*
G01X6916Y1889D02*
X7835Y1905D01*
G01X9621Y2556D02*
X9857Y2199D01*
X10168Y1997D01*
X10513Y1952D01*
X10819Y2009D01*
X11121Y2272D01*
X11307Y2586D01*
X11340Y2896D01*
X11257Y3256D01*
X10985Y3510D01*
X10714Y3609D01*
X10370Y3603D01*
G01X10714Y3609D02*
X10942Y3768D01*
X11129Y4029D01*
X11200Y4341D01*
X11118Y4649D01*
X10922Y4904D01*
X10574Y5053D01*
X10230Y4996D01*
X9889Y4783D01*
G01X23187Y622D02*
X12187D01*
Y6622D01*
X22187D01*
X23187Y5622D01*
Y622D01*
G01X13421Y25807D02*
Y15807D01*
G01X28116Y1650D02*
X25016D01*
X28116Y3414D01*
X25016D01*
G01X25533Y4903D02*
X25223Y5134D01*
X25068Y5402D01*
X25016Y5708D01*
X25120Y6092D01*
X25378Y6360D01*
X25688Y6437D01*
X25998Y6398D01*
X26256Y6245D01*
X26773Y5478D01*
X27135Y5134D01*
X27651Y4903D01*
X28116Y4827D01*
Y6437D01*
G01X13361Y53880D02*
X13131Y54035D01*
X12863Y54138D01*
X12556D01*
X12211Y53983D01*
X11943Y53725D01*
X11751Y53415D01*
X11598Y52898D01*
X11560Y52433D01*
X11636Y51968D01*
X11751Y51658D01*
X11981Y51348D01*
X12250Y51142D01*
X12518Y51038D01*
X12786D01*
X13055Y51142D01*
X13285Y51297D01*
X13476Y51503D01*
G01X15618Y51038D02*
Y54138D01*
X15158Y53518D01*
G01Y51038D02*
X16078D01*
G01X17990Y52330D02*
X18258Y52692D01*
X18488Y52898D01*
X18795Y53002D01*
X19063Y52898D01*
X19255Y52692D01*
X19408Y52382D01*
X19446Y52020D01*
X19408Y51710D01*
X19255Y51400D01*
X19025Y51142D01*
X18756Y51038D01*
X18450Y51142D01*
X18181Y51452D01*
X18028Y51917D01*
X17990Y52433D01*
X18066Y53105D01*
X18181Y53467D01*
X18373Y53828D01*
X18641Y54087D01*
X18910Y54138D01*
X19178Y54035D01*
X19370Y53777D01*
G01X22446Y39463D02*
Y49463D01*
G01X52557Y-41641D02*
X60336Y-49419D01*
X56093Y-53662D01*
X49022Y-46591D01*
Y-45176D01*
X52557Y-41641D01*
G01X46630Y-27371D02*
Y-24271D01*
X47588D01*
X47894Y-24426D01*
X48086Y-24633D01*
X48163Y-25046D01*
X48086Y-25460D01*
X47856Y-25718D01*
X47588Y-25873D01*
X46630D01*
G01X47588D02*
X48163Y-27371D01*
G01X50496D02*
Y-24271D01*
X50036Y-24891D01*
G01Y-27371D02*
X50956D01*
G01X54056D02*
Y-24271D01*
X52638Y-26493D01*
X54555D01*
G01X34067Y-23270D02*
X45067D01*
Y-29270D01*
X35067D01*
X34067Y-28270D01*
Y-23270D01*
G01X48276Y-38847D02*
X45801Y-40713D01*
X45339Y-40101D01*
X45279Y-39762D01*
X45305Y-39454D01*
X45437Y-39115D01*
X45634Y-38775D01*
X46024Y-38433D01*
X46459Y-38153D01*
X46840Y-38058D01*
X47203Y-38024D01*
X47507Y-38083D01*
X47815Y-38235D01*
X48276Y-38847D01*
G01X45903Y-35698D02*
X43428Y-37564D01*
X44200Y-37558D01*
G01X46180Y-36065D02*
X45626Y-35331D01*
G01X49996Y-22784D02*
X46898Y-22892D01*
X46864Y-21934D01*
X47009Y-21623D01*
X47208Y-21424D01*
X47619Y-21333D01*
X48035Y-21395D01*
X48301Y-21616D01*
X48465Y-21879D01*
X48499Y-22836D01*
G01X48465Y-21879D02*
X49942Y-21252D01*
G01X49861Y-18920D02*
X46763Y-19028D01*
X47399Y-19466D01*
G01X49877Y-19380D02*
X49845Y-18460D01*
G01X49753Y-15822D02*
X46655Y-15930D01*
X47290Y-16368D01*
G01X49769Y-16281D02*
X49737Y-15362D01*
G01X34165Y-16291D02*
X45165D01*
Y-22291D01*
X35165D01*
X34165Y-21291D01*
Y-16291D01*
G01X29478Y-8356D02*
X48376D01*
Y6604D01*
X29478D01*
Y-8356D01*
G01X46956Y20893D02*
X46726Y21048D01*
X46457Y21152D01*
X46151D01*
X45806Y20996D01*
X45537Y20738D01*
X45346Y20428D01*
X45192Y19912D01*
X45154Y19447D01*
X45231Y18982D01*
X45346Y18672D01*
X45576Y18362D01*
X45844Y18155D01*
X46112Y18052D01*
X46381D01*
X46649Y18155D01*
X46879Y18310D01*
X47071Y18516D01*
G01X49212Y18052D02*
Y21152D01*
X48752Y20532D01*
G01Y18052D02*
X49672D01*
G01X52312D02*
Y21152D01*
X51852Y20532D01*
G01Y18052D02*
X52772D01*
G01X33457Y22262D02*
X44457D01*
Y16262D01*
X34457D01*
X33457Y17262D01*
Y22262D01*
G01X36234Y26558D02*
X36004Y26713D01*
X35736Y26816D01*
X35430D01*
X35084Y26661D01*
X34816Y26403D01*
X34624Y26093D01*
X34471Y25576D01*
X34433Y25111D01*
X34510Y24646D01*
X34624Y24336D01*
X34855Y24026D01*
X35123Y23819D01*
X35391Y23716D01*
X35660D01*
X35928Y23819D01*
X36158Y23974D01*
X36350Y24181D01*
G01X37763Y26299D02*
X37993Y26609D01*
X38261Y26764D01*
X38568Y26816D01*
X38951Y26713D01*
X39220Y26454D01*
X39296Y26144D01*
X39258Y25834D01*
X39104Y25576D01*
X38338Y25059D01*
X37993Y24698D01*
X37763Y24181D01*
X37686Y23716D01*
X39296D01*
G01X35823Y33241D02*
X35593Y33396D01*
X35325Y33500D01*
X35018D01*
X34673Y33344D01*
X34405Y33086D01*
X34213Y32776D01*
X34060Y32260D01*
X34021Y31795D01*
X34098Y31330D01*
X34213Y31020D01*
X34443Y30710D01*
X34711Y30503D01*
X34980Y30400D01*
X35248D01*
X35516Y30503D01*
X35746Y30658D01*
X35938Y30864D01*
G01X38540Y30400D02*
Y33500D01*
X37121Y31278D01*
X39038D01*
G01X31756Y27624D02*
X31756Y37624D01*
G01X57019Y20411D02*
G03X45310Y38456I-42095J-14495D01*
G01X48995Y46013D01*
X53164Y47448D01*
G02X68302Y24296I-38250J-41535D01*
G01X57969Y-44749D02*
X58055Y-45013D01*
X58202Y-45260D01*
X58444Y-45449D01*
X58812Y-45539D01*
X59182Y-45500D01*
X59524Y-45374D01*
X59963Y-45062D01*
X60279Y-44719D01*
X60505Y-44305D01*
X60606Y-43990D01*
X60615Y-43604D01*
X60531Y-43276D01*
X60383Y-43029D01*
X60172Y-42864D01*
X59897Y-42780D01*
X59620Y-42761D01*
X59342Y-42806D01*
G01X57940Y-41121D02*
X57697Y-40996D01*
X57360Y-40930D01*
X57050Y-41015D01*
X56767Y-41253D01*
X56604Y-41585D01*
X56595Y-41971D01*
X56771Y-42306D01*
X57073Y-42542D01*
X57191Y-42765D01*
X57183Y-43086D01*
X57021Y-43418D01*
X56707Y-43633D01*
X56337Y-43671D01*
X56032Y-43564D01*
X55854Y-43293D01*
X55801Y-42925D01*
X55933Y-42569D01*
X56216Y-42331D01*
X56526Y-42246D01*
X56771Y-42306D01*
X57073Y-42542D01*
X57441Y-42632D01*
X57813Y-42529D01*
X58096Y-42291D01*
X58258Y-41959D01*
X58266Y-41638D01*
X58120Y-41327D01*
X57940Y-41121D01*
G01X51468Y-9437D02*
Y1563D01*
X57468D01*
Y-8437D01*
X56468Y-9437D01*
X51468D01*
G01X66595Y-8164D02*
X66365Y-8009D01*
X66097Y-7905D01*
X65790D01*
X65445Y-8061D01*
X65177Y-8319D01*
X64985Y-8629D01*
X64832Y-9145D01*
X64793Y-9610D01*
X64870Y-10075D01*
X64985Y-10385D01*
X65215Y-10696D01*
X65483Y-10902D01*
X65752Y-11005D01*
X66020D01*
X66288Y-10902D01*
X66518Y-10747D01*
X66710Y-10540D01*
G01X68008Y-10385D02*
X68238Y-10747D01*
X68545Y-10954D01*
X68890Y-11005D01*
X69197Y-10954D01*
X69503Y-10696D01*
X69695Y-10385D01*
X69733Y-10075D01*
X69657Y-9714D01*
X69388Y-9455D01*
X69120Y-9352D01*
X68775D01*
G01X69120D02*
X69350Y-9197D01*
X69542Y-8939D01*
X69618Y-8629D01*
X69542Y-8319D01*
X69350Y-8061D01*
X69005Y-7905D01*
X68660Y-7957D01*
X68315Y-8164D01*
G01X52762Y-11457D02*
Y-21457D01*
G01X57014Y20426D02*
G02X58896Y-1003I-42095J-14494D01*
G01X66453Y-4688D01*
X70622Y-3252D01*
G03X68297Y24311I-55713J9180D01*
G01X53361Y4257D02*
X53206Y4027D01*
X53103Y3759D01*
Y3452D01*
X53258Y3107D01*
X53516Y2839D01*
X53826Y2647D01*
X54343Y2494D01*
X54808Y2455D01*
X55273Y2532D01*
X55583Y2647D01*
X55893Y2877D01*
X56100Y3145D01*
X56203Y3414D01*
Y3682D01*
X56100Y3951D01*
X55945Y4180D01*
X55738Y4372D01*
G01X56203Y6514D02*
X53103D01*
X53723Y6054D01*
G01X56203D02*
Y6974D01*
G01X55583Y8770D02*
X55945Y9000D01*
X56151Y9307D01*
X56203Y9652D01*
X56151Y9959D01*
X55893Y10266D01*
X55583Y10457D01*
X55273Y10496D01*
X54911Y10419D01*
X54653Y10150D01*
X54550Y9882D01*
Y9537D01*
G01Y9882D02*
X54395Y10112D01*
X54136Y10304D01*
X53826Y10380D01*
X53516Y10304D01*
X53258Y10112D01*
X53103Y9767D01*
X53155Y9422D01*
X53361Y9077D01*
M02*
