G04 ================== begin FILE IDENTIFICATION RECORD ==================*
G04 Layout Name:  D:/project/ca100/hardware/sensor/v2/sensor.brd*
G04 Film Name:    SOLDERMASK_TOP*
G04 File Format:  Gerber RS274X*
G04 File Origin:  Cadence Allegro 16.3-p003*
G04 Origin Date:  Wed Jul 04 14:30:53 2012*
G04 *
G04 Layer:  PIN/SOLDERMASK_TOP*
G04 Layer:  BOARD GEOMETRY/OUTLINE*
G04 *
G04 Offset:    (0.000 0.000)*
G04 Mirror:    No*
G04 Mode:      Positive*
G04 Rotation:  0*
G04 FullContactRelief:  No*
G04 UndefLineWidth:     8.000*
G04 ================== end FILE IDENTIFICATION RECORD ====================*
%FSLAX55Y55*MOIN*%
%IR0*IPPOS*OFA0.00000B0.00000*MIA0B0*SFA1.00000B1.00000*%
%AMMACRO23*
21,1,.04,.04,0.0,0.0,135.*%
%ADD23MACRO23*%
%AMMACRO11*
21,1,.057874,.031496,0.0,0.0,47.*%
%ADD11MACRO11*%
%AMMACRO14*
21,1,.05,.051,0.0,0.0,135.*%
%ADD14MACRO14*%
%AMMACRO15*
21,1,.05,.075,0.0,0.0,135.*%
%ADD15MACRO15*%
%AMMACRO29*
21,1,.069,.077,0.0,0.0,135.*%
%ADD29MACRO29*%
%AMMACRO17*
21,1,.069,.077,0.0,0.0,139.*%
%ADD17MACRO17*%
%ADD12C,.153543*%
%ADD10C,.173228*%
%AMMACRO27*
21,1,.057874,.031496,0.0,0.0,126.*%
%ADD27MACRO27*%
%ADD13R,.04X.04*%
%ADD28R,.04X.04*%
%AMMACRO16*
21,1,.04,.04,0.0,0.0,46.*%
%ADD16MACRO16*%
%AMMACRO20*
21,1,.04,.04,0.0,0.0,75.*%
%ADD20MACRO20*%
%AMMACRO19*
21,1,.04,.04,0.0,0.0,84.*%
%ADD19MACRO19*%
%AMMACRO24*
21,1,.04,.04,0.0,0.0,97.*%
%ADD24MACRO24*%
%ADD21C,.075*%
%ADD26R,.069X.077*%
%AMMACRO25*
21,1,.04,.04,0.0,0.0,104.*%
%ADD25MACRO25*%
%ADD22R,.031496X.057874*%
%AMMACRO18*
21,1,.04,.04,0.0,0.0,134.*%
%ADD18MACRO18*%
%ADD30C,.008*%
G75*
%LPD*%
G75*
G54D10*
X-67000Y0D03*
X-26500D03*
X-33500Y58000D03*
X0Y-26500D03*
Y26500D03*
X33500Y58000D03*
G54D20*
X-19045Y-50354D03*
X-17622Y-45042D03*
G54D11*
X-48056Y-52997D03*
X-51713Y-49587D03*
X-40742Y-59817D03*
X-44399Y-56407D03*
X-36368Y-33131D03*
X-32711Y-36541D03*
X-29054Y-39951D03*
X-25397Y-43361D03*
G54D30*
G01X82677Y0D02*
G03I-82677J0D01*
G54D21*
X-6947Y-65514D03*
X-18947Y-63514D03*
X17053D03*
X5053Y-65514D03*
X53722Y38330D03*
X65443Y4291D03*
X59520Y27635D03*
X63427Y16289D03*
G54D12*
X-58500Y-34000D03*
X0Y68000D03*
X59000Y-33500D03*
G54D22*
X-2411Y-11496D03*
X-7411D03*
Y11004D03*
X-2411D03*
X7589Y-11496D03*
X2589D03*
Y11004D03*
X7589D03*
X46447Y-11900D03*
X41447D03*
X36447D03*
X31447D03*
Y10600D03*
X36447D03*
X41447D03*
X46447D03*
G54D13*
X-53978Y186D03*
Y5686D03*
X-40405Y-198D03*
X-47020D03*
X-40405Y5302D03*
X-47020D03*
X-3228Y-52813D03*
Y-47313D03*
X-14416Y-7416D03*
Y-12916D03*
X3681Y-52764D03*
Y-47264D03*
X54468Y-937D03*
Y-6437D03*
G54D14*
X-46953Y-8691D03*
X-41650Y-13994D03*
G54D23*
X-19226Y14444D03*
X-15337Y10555D03*
X-15799Y23761D03*
X-11909Y19872D03*
X52557Y-45884D03*
X56446Y-49773D03*
G54D24*
X11644Y-51742D03*
X10973Y-46283D03*
G54D15*
X-52087Y-19142D03*
G54D25*
X19439Y-50354D03*
X18108Y-45018D03*
G54D16*
X-43762Y-29822D03*
X-39941Y-25866D03*
G54D26*
X16575Y-26880D03*
X27598D03*
X16910Y20807D03*
X27933D03*
X56250Y-16457D03*
X67274D03*
G54D17*
X-27910Y-26699D03*
X-19590Y-33931D03*
G54D18*
X-37239Y-8460D03*
X-33418Y-12417D03*
G54D27*
X24686Y-42980D03*
X50046Y-52366D03*
X46001Y-55305D03*
X41956Y-58244D03*
X37911Y-61183D03*
X28731Y-40041D03*
X32776Y-37102D03*
X36821Y-34163D03*
G54D19*
X-10974Y-51791D03*
X-10400Y-46321D03*
G54D28*
X20707Y-17982D03*
X15207D03*
X14746Y-3612D03*
X20246D03*
X14746Y-10689D03*
X20246D03*
X20648Y11053D03*
X15148D03*
X14687Y3622D03*
X20187D03*
X42567Y-26270D03*
X37067D03*
X42665Y-19291D03*
X37165D03*
X41957Y19262D03*
X36457D03*
G54D29*
X38533Y33376D03*
X30738Y41171D03*
M02*
