G04 ================== begin FILE IDENTIFICATION RECORD ==================*
G04 Layout Name:  D:/project/ca100/hardware/sensor/v2/sensor.brd*
G04 Film Name:    TOP*
G04 File Format:  Gerber RS274X*
G04 File Origin:  Cadence Allegro 16.3-p003*
G04 Origin Date:  Wed Jul 04 14:30:53 2012*
G04 *
G04 Layer:  BOARD GEOMETRY/OUTLINE*
G04 Layer:  ETCH/TOP*
G04 Layer:  PIN/TOP*
G04 Layer:  VIA CLASS/TOP*
G04 *
G04 Offset:    (0.000 0.000)*
G04 Mirror:    No*
G04 Mode:      Positive*
G04 Rotation:  0*
G04 FullContactRelief:  No*
G04 UndefLineWidth:     8.000*
G04 ================== end FILE IDENTIFICATION RECORD ====================*
%FSLAX55Y55*MOIN*%
%IR0*IPPOS*OFA0.00000B0.00000*MIA0B0*SFA1.00000B1.00000*%
%AMMACRO24*
21,1,.04,.04,0.0,0.0,135.*%
%ADD24MACRO24*%
%AMMACRO15*
21,1,.03,.055,0.0,0.0,135.*%
%ADD15MACRO15*%
%AMMACRO30*
21,1,.063,.071,0.0,0.0,135.*%
%ADD30MACRO30*%
%AMMACRO28*
21,1,.05,.023622,0.0,0.0,126.*%
%ADD28MACRO28*%
%AMMACRO18*
21,1,.063,.071,0.0,0.0,139.*%
%ADD18MACRO18*%
%ADD10C,.15748*%
%ADD12C,.137795*%
%ADD13R,.04X.04*%
%ADD29R,.04X.04*%
%AMMACRO17*
21,1,.04,.04,0.0,0.0,46.*%
%ADD17MACRO17*%
%AMMACRO21*
21,1,.04,.04,0.0,0.0,75.*%
%ADD21MACRO21*%
%AMMACRO20*
21,1,.04,.04,0.0,0.0,84.*%
%ADD20MACRO20*%
%AMMACRO25*
21,1,.04,.04,0.0,0.0,97.*%
%ADD25MACRO25*%
%ADD16C,.02*%
%ADD27R,.063X.071*%
%ADD23R,.023622X.05*%
%AMMACRO11*
21,1,.05,.023622,0.0,0.0,47.*%
%ADD11MACRO11*%
%ADD22C,.069*%
%AMMACRO26*
21,1,.04,.04,0.0,0.0,104.*%
%ADD26MACRO26*%
%AMMACRO19*
21,1,.04,.04,0.0,0.0,134.*%
%ADD19MACRO19*%
%AMMACRO14*
21,1,.03,.031,0.0,0.0,135.*%
%ADD14MACRO14*%
%ADD31C,.008*%
%ADD32C,.01*%
G75*
%LPD*%
G75*
G36*
G01X55156Y-56194D02*
G02X-59634Y-51418I-55156J56194D01*
G02X-59623Y-51146I152J131D01*
G01X-47461Y-38984D01*
Y-36047D01*
G02X-46828Y-35722I400J0D01*
G03X-44503Y-35534I1052J1461D01*
G01X-41961Y-32992D01*
Y-31989D01*
X-39802Y-29753D01*
X-39874Y-29684D01*
G02X-39879Y-29401I139J144D01*
G01X-36406Y-25804D01*
X-40003Y-22331D01*
X-43476Y-25927D01*
G02X-43759Y-25932I-144J139D01*
G01X-43831Y-25863D01*
X-46774Y-28911D01*
G02X-47461Y-28633I-288J278D01*
G01Y-26156D01*
X-47486Y-26131D01*
Y-25966D01*
X-43969Y-22449D01*
X-41042Y-19522D01*
X-26101D01*
X-21256Y-19522D01*
X-13289Y-27489D01*
Y-32767D01*
G02X-13951Y-33069I-400J0D01*
G01X-14791Y-32339D01*
G02X-14812Y-31754I262J302D01*
G01X-14270Y-31212D01*
G03X-16816Y-28666I-1273J1273D01*
G01X-17707Y-29557D01*
G02X-17980Y-29567I-141J141D01*
G01X-19718Y-28056D01*
X-25425Y-34623D01*
X-24344Y-35562D01*
G02X-24607Y-36264I-262J-302D01*
G01X-27257D01*
X-27545Y-36573D01*
G02X-27827Y-36583I-146J136D01*
G01X-28252Y-36186D01*
X-32540Y-40784D01*
G02X-33115Y-40794I-293J273D01*
G01X-33420Y-40490D01*
G02X-33425Y-40212I141J141D01*
G01X-29011Y-35479D01*
X-31909Y-32776D01*
X-36411Y-37604D01*
X-35986Y-38000D01*
G02X-35976Y-38282I-136J-146D01*
G01X-36230Y-38555D01*
Y-41074D01*
X-32337Y-44967D01*
X-30859D01*
X-30804Y-45018D01*
X-28992Y-44955D01*
G02X-28838Y-45292I7J-200D01*
G01X-28916Y-45375D01*
Y-49819D01*
X-23184Y-55551D01*
X-15971D01*
X-11809Y-59713D01*
X-836D01*
X1457Y-57420D01*
G02X2093Y-57515I283J-283D01*
G03X5481Y-56667I1588J848D01*
G01Y-55764D01*
G02X5681Y-55564I200J0D01*
G01X6481D01*
Y-48664D01*
G02X6681Y-48464I200J0D01*
G01X7965D01*
X8080Y-48349D01*
G02X8420Y-48466I141J-141D01*
G01X8535Y-49404D01*
X8635Y-49392D01*
G02X8858Y-49566I24J-199D01*
G01X9467Y-54528D01*
X14430Y-53919D01*
X13821Y-48956D01*
G02X13995Y-48733I199J24D01*
G01X14094Y-48721D01*
X13634Y-44975D01*
G02X14031Y-44526I397J49D01*
G01X14599D01*
X14750Y-44375D01*
G02X15085Y-44468I141J-141D01*
G01X16069Y-48412D01*
X17399Y-53749D01*
X22834Y-52394D01*
X22573Y-51350D01*
G02X22961Y-50853I388J97D01*
G01X30048D01*
X40020Y-40881D01*
Y-36524D01*
X39849Y-36290D01*
G02X39894Y-36010I162J118D01*
G01X40364Y-35669D01*
X38250Y-32760D01*
G02X38574Y-32124I324J235D01*
G01X44757D01*
X61508Y-48876D01*
G02X61523Y-49142I-141J-141D01*
G02X58596Y-52598I-61523J49142D01*
G01X58567Y-52630D01*
X58489Y-52664D01*
X58447D01*
G02X58247Y-52464I0J200D01*
G01Y-51933D01*
X60407Y-49773D01*
X56446Y-45813D01*
X56376Y-45883D01*
G02X56093I-141J141D01*
G01X52557Y-42348D01*
X49022Y-45884D01*
X52557Y-49419D01*
G02Y-49702I-141J-141D01*
G01X52486Y-49773D01*
X54083Y-51369D01*
G02Y-51652I-141J-141D01*
G01X53274Y-52460D01*
G03X53052Y-52729I1273J-1273D01*
G02X52397Y-52742I-332J223D01*
G01X49643Y-48951D01*
X46922Y-50927D01*
X50449Y-55782D01*
X52348Y-54402D01*
G02X52940Y-54546I235J-324D01*
G03X54816Y-55513I1607J812D01*
G02X55156Y-56194I60J-395D01*
G37*
G36*
G01X-22190Y-53151D02*
X-26516Y-48825D01*
Y-47290D01*
G02X-26396Y-47107I200J0D01*
G01X-26341Y-47083D01*
X-26223Y-47103D01*
X-26199Y-47126D01*
X-22544Y-43206D01*
G02X-21968Y-43196I293J-273D01*
G01X-21623Y-43541D01*
Y-45212D01*
X-20830Y-45424D01*
G02X-20689Y-45669I-52J-193D01*
G01X-21051Y-47022D01*
X-20955Y-47048D01*
G02X-20813Y-47293I-52J-193D01*
G01X-22107Y-52122D01*
X-21204Y-52364D01*
G02X-21308Y-53151I-103J-386D01*
G01X-22190D01*
G37*
G36*
G01X-14352Y-53775D02*
X-14977Y-53151D01*
X-16685D01*
G02X-17071Y-52647I0J400D01*
G01X-15983Y-48587D01*
G02X-15738Y-48445I193J-52D01*
G01X-15642Y-48471D01*
X-15270Y-47084D01*
G02X-14494Y-47098I386J-104D01*
G01X-13509Y-47202D01*
G02X-13331Y-47421I-21J-199D01*
G01X-13477Y-48814D01*
X-13378Y-48824D01*
G02X-13200Y-49044I-21J-199D01*
G01X-13672Y-53534D01*
G02X-14352Y-53775I-398J42D01*
G37*
G36*
G01X-10815Y-57313D02*
X-13358Y-54770D01*
G02X-13034Y-54089I283J283D01*
G01X-8749Y-54539D01*
X-8227Y-49566D01*
G02X-8007Y-49388I199J-21D01*
G01X-7907Y-49399D01*
X-7811Y-48487D01*
G02X-7471Y-48366I199J-21D01*
G01X-7324Y-48513D01*
X-6228D01*
G02X-6028Y-48713I0J-200D01*
G01Y-55613D01*
X-5228D01*
G02X-5028Y-55813I0J-200D01*
G01Y-56313D01*
G03X-4960Y-56804I1800J0D01*
G02X-5345Y-57313I-385J-109D01*
G01X-10815D01*
G37*
G36*
G01X-6330Y-46113D02*
X-6967Y-45475D01*
X-7290Y-45441D01*
G02X-7468Y-45222I21J199D01*
G01X-7322Y-43829D01*
X-11904Y-43348D01*
G02X-12083Y-43149I21J199D01*
G01Y-42940D01*
X-16315Y-38708D01*
X-17631D01*
G02X-17933Y-38046I0J400D01*
G01X-13991Y-33511D01*
G02X-13289Y-33773I302J-262D01*
G01Y-37544D01*
X-8536Y-42297D01*
X-3775D01*
G02X-3492Y-42980I0J-400D01*
G01X-4428Y-43916D01*
Y-44313D01*
G02X-4628Y-44513I-200J0D01*
G01X-6028D01*
Y-45913D01*
G02X-6228Y-46113I-200J0D01*
G01X-6330D01*
G37*
G36*
G01X36318Y-38608D02*
X32439Y-33268D01*
X29851Y-35148D01*
G02X29592Y-35128I-118J162D01*
G01X29325Y-34861D01*
X29233D01*
G02X29092Y-34520I0J200D01*
G01X31046Y-32565D01*
Y-32324D01*
G02X31246Y-32124I200J0D01*
G01X33397D01*
G02X33515Y-32486I0J-200D01*
G01X33278Y-32658D01*
X37158Y-37998D01*
X37302Y-37893D01*
G02X37619Y-38055I118J-162D01*
G01Y-39887D01*
X30594Y-46912D01*
G02X29923Y-46726I-283J283D01*
G03X29448Y-45885I-1748J-432D01*
G01X28280Y-44717D01*
G02X28222Y-44560I141J141D01*
G01X28228Y-44486D01*
X27506Y-43491D01*
Y-43254D01*
X26877Y-42626D01*
X25035Y-40090D01*
G02X25196Y-39772I162J118D01*
G01X25322D01*
X26186Y-39909D01*
X29068Y-43876D01*
X32273Y-41547D01*
X30378Y-38938D01*
G02X30702Y-38302I324J235D01*
G01X31097D01*
G02X31259Y-38385I0J-200D01*
G01X33113Y-40937D01*
X36318Y-38608D01*
G37*
G36*
G01X21817Y-48318D02*
X21495Y-47025D01*
G02X21547Y-46835I194J48D01*
G01X23166Y-45216D01*
G03X23223Y-45156I-1272J1274D01*
G02X23843Y-45191I296J-270D01*
G01X23905Y-45277D01*
Y-45434D01*
X24322Y-45850D01*
X25022Y-46815D01*
X25037Y-46804D01*
G02X25296Y-46824I118J-162D01*
G01X26241Y-47770D01*
G02X25958Y-48452I-283J-283D01*
G01X22106D01*
X22060Y-48464D01*
G02X21817Y-48318I-48J194D01*
G37*
%LPC*%
G75*
G36*
G01X-37184Y-36472D02*
X-39643Y-34179D01*
X-35551Y-29790D01*
X-33092Y-32083D01*
X-37184Y-36472D01*
G37*
G36*
G01X-27812Y-32150D02*
X-33322Y-27361D01*
X-28008Y-21247D01*
X-22498Y-26037D01*
X-27812Y-32150D01*
G37*
G36*
G01X-45201Y-60172D02*
X-48099Y-57469D01*
X-43597Y-52642D01*
X-40699Y-55344D01*
X-45201Y-60172D01*
G37*
G36*
G01X-17040Y-67312D02*
G02X-22981Y-64851I-1907J3798D01*
G03X-23171Y-64714I-190J-63D01*
G01X-25771D01*
X-29523Y-60962D01*
Y-60961D01*
X-34753Y-55732D01*
G03X-35436Y-56022I-283J-283D01*
G02X-35963Y-57329I-1800J-34D01*
G01X-36928Y-58295D01*
G03X-37017Y-58727I283J-283D01*
G01X-41544Y-63582D01*
X-44442Y-60879D01*
X-42542Y-58842D01*
Y-58817D01*
X-42200Y-58474D01*
X-39941Y-56052D01*
X-39938Y-56054D01*
X-39777Y-56051D01*
X-38508Y-54783D01*
G02X-37201Y-54256I1273J-1273D01*
G03X-36911Y-53573I8J400D01*
G01X-38774Y-51710D01*
X-44132D01*
G03X-44318Y-51837I0J-200D01*
G01X-44356Y-51934D01*
X-48858Y-56762D01*
X-51756Y-54059D01*
X-47254Y-49232D01*
X-46829Y-49628D01*
G03X-46546Y-49618I136J146D01*
G01X-46259Y-49310D01*
X-39877D01*
G03X-39595Y-48627I0J400D01*
G01X-39921Y-48300D01*
X-47788D01*
G03X-47974Y-48427I0J-200D01*
G01X-48013Y-48524D01*
X-52514Y-53351D01*
X-55412Y-50649D01*
X-50911Y-45822D01*
X-50486Y-46218D01*
G03X-50203Y-46208I136J146D01*
G01X-49916Y-45900D01*
X-38927D01*
X-27163Y-57664D01*
X-16432D01*
X-12858Y-61238D01*
X-9526D01*
X-9085Y-61678D01*
G03X-8854Y-61716I141J141D01*
G02X-3149Y-67421I1907J-3798D01*
G01X-3178Y-67479D01*
X-3157Y-67606D01*
X-1747Y-69017D01*
X2004D01*
G03X2285Y-68332I0J400D01*
G02X7822I2768J2818D01*
G03X8102Y-69017I280J-285D01*
G01X16722D01*
X17292Y-68447D01*
G03X17013Y-67764I-283J283D01*
G02X21303Y-63473I41J4250D01*
G03X21986Y-63752I400J4D01*
G01X33045Y-52693D01*
X42091D01*
X42766Y-53368D01*
G03X43025Y-53388I141J141D01*
G01X45664Y-51471D01*
X49544Y-56811D01*
X46829Y-58783D01*
X46788Y-58900D01*
X46804Y-58960D01*
G02X46829Y-59457I-1160J-309D01*
G01X46689Y-60346D01*
Y-61113D01*
X42668Y-65134D01*
X39298D01*
X38997Y-64720D01*
G03X38718Y-64676I-162J-118D01*
G01X38248Y-65018D01*
X34368Y-59678D01*
X37574Y-57349D01*
X41426Y-62651D01*
G03X41588Y-62734I162J118D01*
G01X41674D01*
X42187Y-62220D01*
G03X42208Y-61961I-141J141D01*
G01X38440Y-56776D01*
G03X38279Y-56694I-162J-118D01*
G01X35438D01*
X19058Y-73073D01*
X-11085D01*
X-16809Y-67349D01*
G03X-17040Y-67312I-141J-141D01*
G37*
%LPD*%
G75*
G36*
G01X-24777Y-62314D02*
X-26344Y-60747D01*
G02X-26061Y-60064I283J283D01*
G01X-22457D01*
G02X-22155Y-60726I0J-400D01*
G03X-22981Y-62176I3209J-2787D01*
G02X-23171Y-62314I-190J63D01*
G01X-24777D01*
G37*
G36*
G01X-10090Y-70673D02*
X-15157Y-65606D01*
X-15178Y-65479D01*
X-15149Y-65421D01*
G03X-14702Y-63733I-3798J1907D01*
G02X-14020Y-63471I399J-21D01*
G01X-13853Y-63638D01*
X-11357D01*
G02X-10977Y-64165I0J-400D01*
G03X-5040Y-69312I4030J-1349D01*
G02X-4809Y-69349I90J-179D01*
G01X-4168Y-69990D01*
G02X-4451Y-70673I-283J-283D01*
G01X-10090D01*
G37*
G54D10*
X-67000Y0D03*
X-26500D03*
X-33500Y58000D03*
X0Y-26500D03*
Y26500D03*
X33500Y58000D03*
G54D11*
X-48056Y-52997D03*
X-51713Y-49587D03*
X-40742Y-59817D03*
X-44399Y-56407D03*
X-36368Y-33131D03*
X-32711Y-36541D03*
X-29054Y-39951D03*
X-25397Y-43361D03*
G54D20*
X-10974Y-51791D03*
X-10400Y-46321D03*
G54D21*
X-19045Y-50354D03*
X-17622Y-45042D03*
G54D12*
X-58500Y-34000D03*
X0Y68000D03*
X59000Y-33500D03*
G54D30*
X38533Y33376D03*
X30738Y41171D03*
G54D31*
G01X-51713Y-49587D02*
X-49394Y-47100D01*
X-39424D01*
X-27660Y-58864D01*
X-16929D01*
X-13355Y-62438D01*
X-10023D01*
X-6947Y-65514D01*
G01X-25397Y-43361D02*
X-27716Y-45848D01*
Y-49322D01*
X-22687Y-54351D01*
X-15474D01*
X-11312Y-58513D01*
X-1333D01*
X481Y-56699D01*
Y-50267D01*
X1184Y-49564D01*
X1381D01*
X3681Y-47264D01*
G01X-18947Y-63514D02*
X-25274D01*
X-28323Y-60465D01*
Y-60464D01*
X-38277Y-50510D01*
X-45737D01*
X-48056Y-52997D01*
G01X-32711Y-36541D02*
X-35030Y-39028D01*
Y-40577D01*
X-31840Y-43767D01*
X-30388D01*
X-30350Y-43802D01*
X-29357Y-43767D01*
X-25135Y-39545D01*
X-25095D01*
X-24101Y-39511D01*
X-22866Y-40663D01*
X-22865Y-40663D01*
X-21958Y-41509D01*
X-20423Y-43044D01*
Y-44291D01*
X-17622Y-45042D01*
G01X-37744Y-31848D02*
X-36368Y-33131D01*
G01D02*
X-34992Y-34414D01*
G01X-38550Y-35472D02*
X-36368Y-33131D01*
G01D02*
X-34185Y-30791D01*
G01X-30816Y-24173D02*
X-27910Y-26699D01*
G01D02*
X-25004Y-29225D01*
G01X-30698Y-29907D02*
X-27910Y-26699D01*
G01D02*
X-25121Y-23491D01*
G01X-41883Y-23990D02*
X-39941Y-25866D01*
G01D02*
X-37998Y-27742D01*
G01X-39941Y-25866D02*
X-38065Y-23924D01*
G01X-10400Y-46321D02*
X-13284Y-46018D01*
Y-43437D01*
X-16812Y-39909D01*
X-21328D01*
X-21753Y-39512D01*
X-21754Y-39512D01*
X-21755Y-39510D01*
X-23801Y-37464D01*
X-26735D01*
X-29054Y-39951D01*
G01X-21654Y-49655D02*
X-19045Y-50354D01*
G01D02*
X-16437Y-51053D01*
G01X-13660Y-51509D02*
X-10974Y-51791D01*
G01D02*
X-8289Y-52074D01*
G01X-11257Y-54477D02*
X-10974Y-51791D01*
G01X41956Y-58244D02*
X39957Y-55493D01*
X34941D01*
X18561Y-71873D01*
X-10588D01*
X-18947Y-63514D01*
G01X-6947Y-65514D02*
X-2244Y-70217D01*
X17219D01*
X33542Y-53893D01*
X41594D01*
X42121Y-54420D01*
X45644Y-59269D01*
X45488Y-60251D01*
Y-60616D01*
X42171Y-63934D01*
X39909D01*
X37911Y-61183D01*
G01X-3228Y-47313D02*
X-6827D01*
X-7515Y-46624D01*
X-10400Y-46321D01*
G01X-3228Y-47313D02*
Y-44413D01*
X-2226Y-43411D01*
X8105D01*
X10086Y-43168D01*
X11528Y-41726D01*
X13439D01*
X14094Y-41072D01*
X18831Y-39890D01*
X22660Y-36062D01*
X28828D01*
X29869Y-37102D01*
X32776D01*
G01X2589Y-11496D02*
Y-12815D01*
X208Y-15196D01*
X-9236D01*
X-11516Y-12916D01*
X-14416D01*
G01X19439Y-50354D02*
X22253Y-49653D01*
X29551D01*
X38819Y-40384D01*
Y-36914D01*
X36821Y-34163D01*
G01X5053Y-65514D02*
Y-61364D01*
G01X903Y-65514D02*
X5053D01*
G01D02*
X9203D01*
G01X11644Y-51742D02*
X11973Y-54422D01*
G01X8964Y-52071D02*
X11644Y-51742D01*
G01D02*
X14324Y-51413D01*
G01X10973Y-46283D02*
X8095Y-46636D01*
X7468Y-47264D01*
X3681D01*
G01X10973Y-46283D02*
Y-44544D01*
X12191Y-43326D01*
X14102D01*
X14911Y-42517D01*
X19757Y-41309D01*
X22494Y-38572D01*
X25417D01*
X27956Y-38974D01*
X28731Y-40041D01*
G01X48165Y-49777D02*
X50046Y-52366D01*
G01D02*
X51927Y-54955D01*
G01X48524Y-53472D02*
X50046Y-52366D01*
G01D02*
X51568Y-51260D01*
G01X50648Y-43974D02*
X52557Y-45884D01*
G01D02*
X54467Y-43974D01*
G01X82677Y0D02*
G03I-82677J0D01*
G54D22*
X-6947Y-65514D03*
X-18947Y-63514D03*
X17053D03*
X5053Y-65514D03*
X53722Y38330D03*
X65443Y4291D03*
X59520Y27635D03*
X63427Y16289D03*
G54D13*
X-53978Y186D03*
Y5686D03*
X-40405Y-198D03*
X-47020D03*
X-40405Y5302D03*
X-47020D03*
X-3228Y-52813D03*
Y-47313D03*
X-14416Y-7416D03*
Y-12916D03*
X3681Y-52764D03*
Y-47264D03*
X54468Y-937D03*
Y-6437D03*
G54D32*
G01X-19226Y14444D02*
X-19466Y14204D01*
Y10016D01*
X-13789Y4339D01*
Y-951D01*
X-18232Y-5394D01*
Y-9814D01*
X-26640Y-18222D01*
X-41581D01*
X-44508Y-21148D01*
X-50081D01*
X-52087Y-19142D01*
G01X-53077Y9751D02*
Y6588D01*
X-53978Y5686D01*
G01X-33418Y-12417D02*
X-31260Y-10333D01*
Y-8381D01*
X-39443Y-198D01*
X-40405D01*
G01X-4731Y16653D02*
Y14204D01*
X-4892Y14042D01*
Y-7658D01*
X-7411Y-10177D01*
Y-11496D01*
G01X-2411D02*
Y-6997D01*
G01X14746Y-10689D02*
X11746D01*
X10613Y-11822D01*
Y-25068D01*
X12425Y-26880D01*
X16575D01*
G01X41447Y-11900D02*
X41464Y-11883D01*
Y-7575D01*
X37501Y-3612D01*
X20246D01*
G01Y-10689D02*
X24179D01*
X28175Y-6693D01*
G01X31447Y-11900D02*
X29266D01*
X26789Y-14377D01*
X16640D01*
X14746Y-12482D01*
Y-10689D01*
G01Y-3612D02*
Y-3274D01*
X17708Y-312D01*
X19253D01*
X20187Y622D01*
Y3622D01*
G01X37067Y-26270D02*
Y-25228D01*
X40465Y-21830D01*
Y-21491D01*
X42665Y-19291D01*
G01D02*
Y-18118D01*
X40247Y-15700D01*
X39727D01*
X39135Y-15107D01*
X38335D01*
X36447Y-13218D01*
Y-11900D01*
G01X50950Y12319D02*
X48165D01*
X46447Y10600D01*
G54D14*
X-46953Y-8691D03*
X-41650Y-13994D03*
G54D23*
X-2411Y-11496D03*
X-7411D03*
Y11004D03*
X-2411D03*
X7589Y-11496D03*
X2589D03*
Y11004D03*
X7589D03*
X46447Y-11900D03*
X41447D03*
X36447D03*
X31447D03*
Y10600D03*
X36447D03*
X41447D03*
X46447D03*
G54D15*
X-52087Y-19142D03*
G54D24*
X-19226Y14444D03*
X-15337Y10555D03*
X-15799Y23761D03*
X-11909Y19872D03*
X52557Y-45884D03*
X56446Y-49773D03*
G54D16*
G01X-53978Y186D02*
Y-657D01*
X-50705Y-3930D01*
G01X-45795Y-14592D02*
X-51940Y-8448D01*
X-58552D01*
X-67000Y0D01*
G01X-47020Y5302D02*
X-53594D01*
X-53978Y5686D01*
G01X-40742Y-59817D02*
Y-59563D01*
X-37236Y-56056D01*
G01X-36368Y-33131D02*
Y-33036D01*
G01D02*
Y-29439D01*
G01Y-33036D02*
X-33575Y-30243D01*
G01X-36368Y-29439D02*
X-39941Y-25866D01*
G01X-33575Y-30243D02*
X-31454D01*
G01D02*
X-27910Y-26699D01*
G01X-43762Y-29822D02*
Y-32246D01*
X-45776Y-34261D01*
G01X-26500Y0D02*
Y51000D01*
X-33500Y58000D01*
G01X-46953Y-8691D02*
X-44797Y-6534D01*
Y-6528D01*
X-43767Y-5498D01*
G01X-47020Y-198D02*
X-40405D01*
G01X-37239Y-8460D02*
Y-9583D01*
X-41650Y-13994D01*
G01X-45795Y-14592D02*
X-42248D01*
X-41650Y-13994D01*
G01X-43404Y8938D02*
Y8301D01*
X-40405Y5302D01*
G01X-22991Y-48020D02*
X-21246Y-49764D01*
X-19045Y-50354D01*
G01X-10974Y-51791D02*
Y-55302D01*
G01D02*
X-10982Y-55310D01*
G01X-3228Y-52813D02*
Y-56313D01*
G01X-15543Y-29939D02*
X-19535Y-33931D01*
X-19590D01*
G01X0Y-26500D02*
X-10201D01*
X-19786Y-16915D01*
G01X-14416Y-7416D02*
Y-5772D01*
X-11740Y-3097D01*
G01X-15799Y23761D02*
X-18273Y21286D01*
G01X16910Y20807D02*
X12260D01*
X7593Y16141D01*
X-412D01*
X-2411Y14141D01*
Y11004D01*
G01X0Y26500D02*
Y21384D01*
X-4731Y16653D01*
G01X-11909Y19872D02*
X-7411Y15374D01*
Y11004D01*
G01X-7428Y6468D02*
Y10987D01*
X-7411Y11004D01*
G01X-15337Y10555D02*
X-11250Y6468D01*
X-7428D01*
G01X33500Y58000D02*
X21531Y46031D01*
Y34035D01*
X13995Y26500D01*
X0D01*
G01X3681Y-52764D02*
Y-56667D01*
G01X18108Y-45018D02*
X20819D01*
X21893Y-43943D01*
G01X28175Y-47158D02*
X25705Y-44688D01*
Y-44000D01*
X24686Y-42980D01*
G01X20707Y-17982D02*
X25951D01*
G01X15207D02*
Y-21530D01*
G01X7589Y-11496D02*
Y-15758D01*
G01Y11004D02*
Y6468D01*
G01X2589Y11004D02*
X2519Y10934D01*
Y6017D01*
X4914Y3622D01*
X14687D01*
G01D02*
Y10592D01*
X15148Y11053D01*
G01X10809Y13651D02*
X12549D01*
X15148Y11053D01*
G01X27933Y20807D02*
X22901D01*
G01X20187Y3622D02*
X23687D01*
X28146Y8081D01*
Y12250D01*
X25542Y14853D01*
X22464D01*
X16910Y20407D01*
Y20807D01*
G01X20648Y11053D02*
X24364D01*
G01X30738Y41171D02*
X27168Y37600D01*
Y37585D01*
X26039Y36456D01*
G01X52557Y-45884D02*
X50046Y-48395D01*
G01D02*
Y-52366D01*
G01X42567Y-26270D02*
X46309D01*
G01X27598Y-26880D02*
X32957D01*
X33567Y-26270D01*
X37067D01*
G01X31447Y-11900D02*
Y-17073D01*
X33665Y-19291D01*
X37165D01*
G01X46447Y-11900D02*
Y-10581D01*
G01D02*
X50591Y-6437D01*
X54468D01*
G01X46447Y-10581D02*
Y-7002D01*
G01X41957Y19262D02*
X45996D01*
G01X53722Y38330D02*
Y20295D01*
X49343Y15915D01*
X45156D01*
X41447Y12206D01*
Y10600D01*
G01D02*
X36447D01*
G01X31447D02*
Y14252D01*
X36457Y19262D01*
G01X31447Y9282D02*
Y5320D01*
X28724Y2597D01*
G01X31447Y10600D02*
Y9282D01*
G01X65443Y4291D02*
X60493D01*
X55488Y9297D01*
X52289D01*
X47079Y4087D01*
X36642D01*
X31447Y9282D01*
G01X45090Y27303D02*
X44607D01*
X38533Y33376D01*
G01X56446Y-49773D02*
Y-51834D01*
X54547Y-53733D01*
G01X54468Y-937D02*
Y4273D01*
G01X67274Y-16457D02*
X72694D01*
G01X56250D02*
Y-16057D01*
X65443Y-6864D01*
Y4291D01*
G01X54468Y-6437D02*
X58008D01*
X60015Y-4430D01*
X-50705Y-3930D03*
X-53077Y9751D03*
X-22991Y-48020D03*
X-37236Y-56056D03*
X-45776Y-34261D03*
X-43767Y-5498D03*
X-45795Y-14592D03*
X-43404Y8938D03*
X-1215Y-61926D03*
X-10982Y-55310D03*
X-3228Y-56313D03*
X-15543Y-29939D03*
X-11740Y-3097D03*
X-2411Y-6997D03*
X-19786Y-16915D03*
X-18273Y21286D03*
X-4731Y16653D03*
X-7428Y6468D03*
X3681Y-56667D03*
X21893Y-43943D03*
X25951Y-17982D03*
X7589Y-15758D03*
X15207Y-21530D03*
X7589Y6468D03*
X10809Y13651D03*
X22901Y20807D03*
X24364Y11053D03*
X26039Y36456D03*
X46309Y-26270D03*
X28175Y-47158D03*
Y-6693D03*
X46447Y-7002D03*
X45996Y19262D03*
X50950Y12319D03*
X28724Y2597D03*
X45090Y27303D03*
X54547Y-53733D03*
X72694Y-16457D03*
X60015Y-4430D03*
X54468Y4273D03*
G54D25*
X11644Y-51742D03*
X10973Y-46283D03*
G54D26*
X19439Y-50354D03*
X18108Y-45018D03*
G54D17*
X-43762Y-29822D03*
X-39941Y-25866D03*
G54D27*
X16575Y-26880D03*
X27598D03*
X16910Y20807D03*
X27933D03*
X56250Y-16457D03*
X67274D03*
G54D18*
X-27910Y-26699D03*
X-19590Y-33931D03*
G54D19*
X-37239Y-8460D03*
X-33418Y-12417D03*
G54D28*
X24686Y-42980D03*
X50046Y-52366D03*
X46001Y-55305D03*
X41956Y-58244D03*
X37911Y-61183D03*
X28731Y-40041D03*
X32776Y-37102D03*
X36821Y-34163D03*
G54D29*
X20707Y-17982D03*
X15207D03*
X14746Y-3612D03*
X20246D03*
X14746Y-10689D03*
X20246D03*
X20648Y11053D03*
X15148D03*
X14687Y3622D03*
X20187D03*
X42567Y-26270D03*
X37067D03*
X42665Y-19291D03*
X37165D03*
X41957Y19262D03*
X36457D03*
M02*
