G04 ================== begin FILE IDENTIFICATION RECORD ==================*
G04 Layout Name:  D:/project/ca100/hardware/sensor/v6/sensor.brd*
G04 Film Name:    BOTTOM*
G04 File Format:  Gerber RS274X*
G04 File Origin:  Cadence Allegro 16.3-p003*
G04 Origin Date:  Wed Nov 07 14:47:40 2012*
G04 *
G04 Layer:  VIA CLASS/BOTTOM*
G04 Layer:  BOARD GEOMETRY/OUTLINE*
G04 Layer:  ETCH/BOTTOM*
G04 Layer:  PIN/BOTTOM*
G04 *
G04 Offset:    (0.000 0.000)*
G04 Mirror:    No*
G04 Mode:      Positive*
G04 Rotation:  0*
G04 FullContactRelief:  No*
G04 UndefLineWidth:     8.000*
G04 ================== end FILE IDENTIFICATION RECORD ====================*
%FSLAX55Y55*MOIN*%
%IR0*IPPOS*OFA0.00000B0.00000*MIA0B0*SFA1.00000B1.00000*%
%ADD10C,.15748*%
%ADD12C,.137795*%
%ADD11C,.02*%
%ADD13C,.069*%
%ADD14C,.008*%
%ADD15C,.04*%
%ADD16C,.173484*%
%ADD18C,.036004*%
%ADD17C,.085004*%
G75*
%LPD*%
G75*
G36*
G01X18718Y10323D02*
X18716Y-21542D01*
X2842Y-37416D01*
X-15935D01*
X-27117Y-48598D01*
X-33320D01*
X-40641Y-41278D01*
X-54240D01*
G02X-54454Y-40540I0J400D01*
G03X-60777Y-26655I-4046J6540D01*
G03X-64308Y-28959I2277J-7345D01*
G03X-70145Y-34223I1508J-7541D01*
G02X-70887Y-34278I-382J118D01*
G02X-6322Y78486I70887J34278D01*
G02X-5979Y77836I32J-399D01*
G03X-7272Y70500I5979J-4836D01*
G03X7272I7272J-2500D01*
G03X5979Y77836I-7272J2500D01*
G02X6322Y78486I311J252D01*
G02X78316Y8164I-6323J-78486D01*
G02X77918Y7722I-398J-42D01*
G01X61377D01*
X57128Y11972D01*
G02X57411Y12654I283J283D01*
G01X66646D01*
X66793Y12589D01*
X66821Y12559D01*
G03X66821Y18350I3111J2895D01*
G01X66793Y18320D01*
X66646Y18255D01*
X58116D01*
X46111Y30260D01*
X21704D01*
X14124Y22681D01*
Y18420D01*
G02X13426Y18154I-400J0D01*
G03X11339Y19088I-2088J-1866D01*
G01X-2650D01*
X-12512Y9225D01*
Y3793D01*
G03X-6912I2800J0D01*
G01Y6906D01*
X-330Y13487D01*
X11339D01*
G03X12031Y13574I0J2802D01*
G02X12413Y12904I99J-388D01*
G01X12178Y12669D01*
X5142D01*
X-3018Y4510D01*
Y-12778D01*
X-5214Y-14974D01*
G03X-5294Y-15057I1979J-1981D01*
G01X-5322Y-15087D01*
X-5470Y-15154D01*
X-10495D01*
X-15899Y-9750D01*
Y8997D01*
X-20722Y13820D01*
X-27552D01*
X-33292Y19560D01*
G03X-35838Y17014I-1273J-1273D01*
G01X-29044Y10220D01*
X-22213D01*
X-19499Y7506D01*
Y-8496D01*
G02X-19699Y-8696I-200J0D01*
G01X-29787D01*
G02X-29949Y-7930I0J400D01*
G03X-38058Y7358I-3515J7930D01*
G02X-38305Y7386I-106J170D01*
G01X-41339Y10421D01*
Y47615D01*
X-38347Y50607D01*
G02X-38150Y50658I141J-141D01*
G01X-38094Y50642D01*
X-38070Y50627D01*
G03X-40873Y53430I4570J7373D01*
G01X-40858Y53406D01*
X-40842Y53350D01*
G02X-40893Y53153I-192J-55D01*
G01X-44940Y49106D01*
Y8929D01*
X-40851Y4841D01*
G02X-40823Y4593I-141J-141D01*
G03X-32098Y-8566I7358J-4593D01*
G02X-31752Y-9244I63J-395D01*
G01X-34036Y-11528D01*
X-39954D01*
X-42190Y-9292D01*
G03X-44736Y-11837I-1273J-1273D01*
G01X-41445Y-15128D01*
X-32545D01*
X-29713Y-12296D01*
X-18444D01*
X-11986Y-18754D01*
X-5470D01*
X-5322Y-18821D01*
X-5294Y-18851D01*
G03X-1254Y-18934I2060J1897D01*
G01X2164Y-15516D01*
X4430D01*
G03Y-9916I0J2800D01*
G01X2783D01*
G02X2583Y-9716I0J200D01*
G01Y2190D01*
X7461Y7068D01*
X14498D01*
X18035Y10606D01*
G02X18718Y10323I283J-283D01*
G37*
G36*
G01X-15111Y-65652D02*
G02X-15149Y-65421I141J141D01*
G03X-17040Y-67312I-3798J1907D01*
G02X-16809Y-67349I90J-179D01*
G01X-10056Y-74102D01*
X23547D01*
X30071Y-67578D01*
Y-67379D01*
G02X30400Y-67226I200J0D01*
G03X32816Y-64561I1156J1380D01*
G02X32756Y-64418I140J143D01*
G01Y-58484D01*
X33745Y-57495D01*
G02X34428Y-57778I283J-283D01*
G01Y-63727D01*
G02X34368Y-63870I-200J0D01*
G03X36888I1260J-1286D01*
G02X36828Y-63727I140J143D01*
G01Y-56048D01*
X45879Y-46997D01*
X45963Y-46967D01*
X46007Y-46971D01*
G03X47278Y-43761I161J1793D01*
G02X47201Y-43603I123J157D01*
G01Y-26338D01*
X53407Y-20132D01*
Y-20114D01*
X55137Y-18385D01*
X67648D01*
G02X67786Y-18440I0J-200D01*
G03X70317Y-18400I1245J1300D01*
G02X70460Y-18340I143J-140D01*
G01X72350D01*
X74621Y-16069D01*
Y-12707D01*
X75431Y-11897D01*
Y-5586D01*
X71364Y-1519D01*
Y2437D01*
G02X71564Y2637I200J0D01*
G01X78502D01*
G02X78702Y2443I0J-200D01*
G02X70887Y-34278I-78705J-2442D01*
G02X70145Y-34222I-360J174D01*
G03X65423Y-29271I-7345J-2278D01*
G03X56377Y-40729I-6423J-4229D01*
G03X64457Y-44009I6423J4229D01*
G02X64872Y-44627I86J-391D01*
G02X55857Y-55497I-64875J44628D01*
G02X-59309Y-51792I-55857J55497D01*
G02X-59300Y-51519I151J132D01*
G01X-52646Y-44864D01*
X-46295D01*
X-37044Y-54116D01*
X-24902D01*
Y-53978D01*
X-13940Y-43017D01*
X-13774D01*
X-13720Y-43071D01*
X3675D01*
X20511Y-26235D01*
X20727D01*
Y-23197D01*
X30664Y-13259D01*
X45982D01*
X47898Y-11343D01*
G02X48181I141J-141D01*
G01X49407Y-12570D01*
Y-18457D01*
X49407Y-18475D01*
X43201Y-24681D01*
X41267Y-26614D01*
Y-45952D01*
X39075Y-48144D01*
X38226D01*
X37512Y-48858D01*
X37438Y-48888D01*
X37398Y-48888D01*
G03X35580Y-50706I-18J-1800D01*
G01X35580Y-50746D01*
X35549Y-50821D01*
X32828Y-53543D01*
Y-55018D01*
X30754Y-57091D01*
G02X30071Y-56809I-283J283D01*
G01Y-53172D01*
X33521Y-49722D01*
G02X33665Y-49663I141J-141D01*
G03X34948Y-46583I18J1800D01*
G02X35229Y-45898I281J285D01*
G01X36368D01*
G02X36510Y-45958I0J-200D01*
G03Y-43438I1285J1260D01*
G02X36368Y-43498I-143J140D01*
G01X33162D01*
X28687Y-47973D01*
X28681D01*
X25936Y-50718D01*
Y-66056D01*
X23028Y-68964D01*
X8564D01*
G02X8262Y-68301I0J400D01*
G03X1845I-3208J2788D01*
G02X1543Y-68964I-302J-262D01*
G01X-1800D01*
X-3157Y-67606D01*
X-3178Y-67479D01*
X-3149Y-67421D01*
G03X-5040Y-69312I-3798J1907D01*
G01X-4982Y-69283D01*
X-4854Y-69304D01*
X-3139Y-71019D01*
G02X-3422Y-71702I-283J-283D01*
G01X-9061D01*
X-15111Y-65652D01*
G37*
G36*
G01X-62444Y-47214D02*
G02X-63047Y-47171I-283J283D01*
G02X-64873Y-44627I63047J47171D01*
G02X-64457Y-44009I330J227D01*
G03X-59961Y-43647I1657J7509D01*
G02X-59531Y-44301I148J-372D01*
G01X-62444Y-47214D01*
G37*
G36*
G01X43668Y-45331D02*
Y-27608D01*
X44118Y-27158D01*
G02X44801Y-27441I283J-283D01*
G01Y-44006D01*
G03X44373Y-45041I1367J-1172D01*
G01X44367Y-45114D01*
X44009Y-45472D01*
G02X43668Y-45331I-141J141D01*
G37*
%LPC*%
G75*
G36*
G01X-51614Y20334D02*
Y22050D01*
G02X-48013I1800J0D01*
G01Y18843D01*
X-50032Y16824D01*
X-50046Y16777D01*
G02X-53567Y17308I-1720J531D01*
G01Y18381D01*
X-51614Y20334D01*
G37*
G36*
G01X-36062Y34477D02*
G02X-33516Y37022I1273J1273D01*
G01X-31221Y34728D01*
Y33767D01*
X-28502Y31048D01*
G03X-28255Y31020I141J141D01*
G02X-31020Y28255I4593J-7358D01*
G03X-31048Y28502I-170J106D01*
G01X-34822Y32276D01*
Y33236D01*
X-36062Y34477D01*
G37*
G36*
G01X-62407Y-7358D02*
G02Y7358I-4593J7358D01*
G03X-62159Y7386I106J170D01*
G01X-58964Y10582D01*
Y26362D01*
G02X-55363I1800J0D01*
G01Y9091D01*
X-59663Y4791D01*
X-59679Y4653D01*
X-59642Y4593D01*
G02Y-4593I-7358J-4593D01*
G03X-59614Y-4841I170J-106D01*
G01X-42593Y-21861D01*
X-32307D01*
G03X-32112Y-21706I0J200D01*
G02Y-25617I8451J-1955D01*
G03X-32307Y-25462I-195J-45D01*
G01X-44084D01*
X-62209Y-7337D01*
X-62347Y-7321D01*
X-62407Y-7358D01*
G37*
G54D16*
X33500Y58000D03*
G54D18*
X33555Y-17464D03*
G54D17*
X53032Y47241D03*
X66065Y26989D03*
%LPD*%
G75*
G54D10*
X-67000Y0D03*
X-23661Y-23661D03*
X-33465Y0D03*
X-23661Y23661D03*
X-33500Y58000D03*
X33465Y0D03*
X33500Y58000D03*
G54D11*
G01X-23661Y-23661D02*
X-43339D01*
X-67000Y0D01*
G01X-57163Y26362D02*
Y9837D01*
X-67000Y0D01*
G01X-49813Y22050D02*
Y19589D01*
X-51767Y17636D01*
Y17308D01*
G01X-33465Y0D02*
X-43140Y9675D01*
Y48360D01*
X-33500Y58000D01*
G01X-17699Y-10496D02*
X-30458D01*
X-33291Y-13328D01*
X-40699D01*
X-43463Y-10564D01*
G01X-34789Y35750D02*
X-33021Y33982D01*
Y33021D01*
X-23661Y23661D01*
G01X-34565Y18287D02*
X-28298Y12020D01*
X-21467D01*
X-17699Y8252D01*
Y-10496D01*
G01X-3234Y-16954D02*
X-11241D01*
X-17699Y-10496D01*
X-48617Y-51612D03*
X-64102Y26009D03*
X-51767Y17308D03*
X-49813Y22050D03*
X-57163Y26362D03*
X-64266Y37806D03*
X-43463Y-10564D03*
X-34359Y13250D03*
X-34565Y18287D03*
X-34789Y35750D03*
X-44598Y53402D03*
X-3228Y-57099D03*
X-833Y-29296D03*
X-21550Y-216D03*
X-3234Y-16954D03*
X-9712Y3793D03*
X-1627Y30390D03*
X3681Y-56046D03*
X5880Y-30507D03*
X15102Y-40405D03*
X19759Y-37296D03*
X16131Y-2199D03*
X4430Y-12716D03*
X11339Y16288D03*
X16170Y40288D03*
X37380Y-50688D03*
X31556Y-65846D03*
X35628Y-65155D03*
X46168Y-45178D03*
X33683Y-47863D03*
X37796Y-44698D03*
X33555Y-17464D03*
X36319Y-21815D03*
X50607Y-6213D03*
X53302Y-49902D03*
X73458Y643D03*
X73421Y-9315D03*
X69031Y-17140D03*
X54982Y3979D03*
G54D12*
X-58500Y-34000D03*
X-62800Y-36500D03*
X0Y68000D03*
Y73000D03*
X59000Y-33500D03*
X62800Y-36500D03*
G54D13*
X-6947Y-65514D03*
X-18947Y-63514D03*
X17053D03*
X5053Y-65514D03*
X53032Y47241D03*
X66065Y26989D03*
X69933Y15455D03*
X60431Y37584D03*
G54D14*
G01X33683Y-47863D02*
X28871Y-52675D01*
Y-67081D01*
X23050Y-72902D01*
X-9558D01*
X-18947Y-63514D01*
G01X-6947Y-65514D02*
X-2297Y-70164D01*
X23525D01*
X27136Y-66553D01*
Y-51215D01*
X29178Y-49173D01*
X29184D01*
X33659Y-44698D01*
X37796D01*
G01X31556Y-65846D02*
Y-57987D01*
X34028Y-55515D01*
Y-54040D01*
X37380Y-50688D01*
G01X50607Y-6213D02*
Y-18954D01*
X50607Y-18972D01*
X44401Y-25178D01*
X42468Y-27111D01*
Y-46449D01*
X39572Y-49344D01*
X38723D01*
X37380Y-50688D01*
G01X35628Y-65155D02*
Y-55551D01*
X46001Y-45178D01*
G01D02*
Y-25840D01*
X52207Y-19635D01*
Y-19617D01*
X54958Y-16866D01*
Y2055D01*
X54982Y2079D01*
Y3979D01*
G01X46001Y-45178D02*
X46168D01*
G01X69031Y-17140D02*
X71853D01*
X73421Y-15572D01*
Y-9315D01*
G01X82677Y0D02*
G03I-82677J0D01*
G01X71798Y-6478D02*
G03I-5638J0D01*
G54D15*
G01X4430Y-12716D02*
X1004D01*
X-218Y-13938D01*
G01D02*
X-3234Y-16954D01*
G01X69933Y15455D02*
X56956D01*
X44951Y27460D01*
X22863D01*
X16925Y21521D01*
Y13455D01*
X13338Y9869D01*
X6301D01*
X-218Y3350D01*
Y-13938D01*
G01X-9712Y3793D02*
Y8065D01*
X-1490Y16288D01*
X11339D01*
M02*
