G04 ================== begin FILE IDENTIFICATION RECORD ==================*
G04 Layout Name:  D:/project/ca100/hardware/sensor/v6/sensor.brd*
G04 Film Name:    SILK_TOP*
G04 File Format:  Gerber RS274X*
G04 File Origin:  Cadence Allegro 16.3-p003*
G04 Origin Date:  Wed Nov 07 14:47:40 2012*
G04 *
G04 Layer:  REF DES/SILKSCREEN_TOP*
G04 Layer:  PACKAGE GEOMETRY/SILKSCREEN_TOP*
G04 Layer:  BOARD GEOMETRY/SILKSCREEN_TOP*
G04 Layer:  BOARD GEOMETRY/OUTLINE*
G04 *
G04 Offset:    (0.000 0.000)*
G04 Mirror:    No*
G04 Mode:      Positive*
G04 Rotation:  0*
G04 FullContactRelief:  No*
G04 UndefLineWidth:     8.000*
G04 ================== end FILE IDENTIFICATION RECORD ====================*
%FSLAX55Y55*MOIN*%
%IR0*IPPOS*OFA0.00000B0.00000*MIA0B0*SFA1.00000B1.00000*%
%ADD10C,.006*%
%ADD11C,.012*%
%ADD12C,.008*%
G75*
%LPD*%
G75*
G36*
G01X-42992Y29083D02*
G03I-1113J0D01*
G37*
G36*
G01X2387Y5997D02*
G03I-1113J0D01*
G37*
G36*
G01X37600Y-58160D02*
G03I-1113J0D01*
G37*
G36*
G01X73780Y-14328D02*
G03I-1113J0D01*
G37*
G54D10*
G01X-35244Y-67508D02*
X-29366Y-59417D01*
X-45547Y-47662D01*
X-51425Y-55752D01*
X-35244Y-67508D01*
G01X15574Y-8228D02*
X5574Y-8228D01*
X5574Y-28228D01*
X15574Y-28228D01*
X15574Y-8228D01*
G01X15574Y13312D02*
X5574Y13312D01*
X5574Y-6687D01*
X15574Y-6688D01*
Y13312D01*
G01X21170Y51150D02*
X11170D01*
Y31150D01*
X21170D01*
Y51150D01*
G54D11*
G01X-25948Y-46181D02*
X-30509Y-52235D01*
G01X-32083Y-51049D02*
X-30486Y-52253D01*
G01X-35068Y-39308D02*
X-39630Y-45362D01*
G01X-39654Y-45344D02*
X-38056Y-46547D01*
G01X-28344Y-39441D02*
X-27945Y-39742D01*
G54D12*
G01X82677Y0D02*
G03I-82677J0D01*
G01X-77722Y11939D02*
X-76079Y14568D01*
X-75267Y14060D01*
X-75089Y13766D01*
X-75036Y13489D01*
X-75190Y13098D01*
X-75474Y12788D01*
X-75806Y12691D01*
X-76115Y12702D01*
X-76928Y13210D01*
G01X-76115Y12702D02*
X-76422Y11126D01*
G01X-74443Y9890D02*
X-72800Y12519D01*
X-73519Y12237D01*
G01X-74833Y10134D02*
X-74053Y9646D01*
G01X-72201Y9220D02*
X-72198Y8792D01*
X-72047Y8454D01*
X-71782Y8227D01*
X-71494Y8108D01*
X-71097Y8165D01*
X-70770Y8326D01*
X-70574Y8569D01*
X-70447Y8916D01*
X-70538Y9277D01*
X-70710Y9507D01*
X-71003Y9690D01*
G01X-70710Y9507D02*
X-70433Y9517D01*
X-70134Y9634D01*
X-69904Y9857D01*
X-69805Y10160D01*
X-69831Y10481D01*
X-70041Y10795D01*
X-70361Y10934D01*
X-70763Y10942D01*
G01X-72197Y21192D02*
X-62971Y15201D01*
X-66239Y10169D01*
X-74626Y15616D01*
X-74920Y16999D01*
X-72197Y21192D01*
G01X-56878Y-6005D02*
X-55235Y-3376D01*
X-54422Y-3884D01*
X-54244Y-4178D01*
X-54191Y-4454D01*
X-54345Y-4846D01*
X-54629Y-5156D01*
X-54961Y-5253D01*
X-55271Y-5242D01*
X-56084Y-4734D01*
G01X-55271Y-5242D02*
X-55577Y-6817D01*
G01X-53599Y-8054D02*
X-51956Y-5425D01*
X-52674Y-5707D01*
G01X-53989Y-7810D02*
X-53208Y-8297D01*
G01X-50218Y-7120D02*
X-49859Y-6979D01*
X-49549Y-6989D01*
X-49262Y-7108D01*
X-48991Y-7399D01*
X-48901Y-7760D01*
X-49000Y-8064D01*
X-49197Y-8306D01*
X-49464Y-8444D01*
X-50388Y-8476D01*
X-50872Y-8600D01*
X-51341Y-8916D01*
X-51652Y-9270D01*
X-50287Y-10123D01*
G01X-54217Y9308D02*
X-44889Y3479D01*
X-48068Y-1609D01*
X-56549Y3690D01*
X-56867Y5068D01*
X-54217Y9308D01*
G01X-51494Y-917D02*
X-51602Y-662D01*
X-51771Y-429D01*
X-52028Y-262D01*
X-52402Y-204D01*
X-52768Y-275D01*
X-53098Y-430D01*
X-53508Y-780D01*
X-53793Y-1149D01*
X-53982Y-1581D01*
X-54054Y-1904D01*
X-54030Y-2289D01*
X-53918Y-2608D01*
X-53749Y-2841D01*
X-53524Y-2987D01*
X-53243Y-3047D01*
X-52965Y-3042D01*
X-52692Y-2973D01*
G01X-50353Y-1966D02*
X-49991Y-1832D01*
X-49682Y-1848D01*
X-49396Y-1971D01*
X-49131Y-2267D01*
X-49047Y-2630D01*
X-49151Y-2931D01*
X-49352Y-3171D01*
X-49622Y-3304D01*
X-50546Y-3319D01*
X-51032Y-3435D01*
X-51507Y-3743D01*
X-51824Y-4091D01*
X-50474Y-4968D01*
G01X-42718Y4611D02*
X-51944Y10602D01*
X-48676Y15634D01*
X-40289Y10188D01*
X-39995Y8805D01*
X-42718Y4611D01*
G01X-46853Y28068D02*
X-44253Y26379D01*
X-47813Y26589D01*
X-45213Y24900D01*
G01X-49022Y24728D02*
X-46422Y23040D01*
X-46691Y23763D01*
G01X-48771Y25114D02*
X-49272Y24343D01*
G01X-41811Y29002D02*
X-57660Y39294D01*
X-65808Y26747D01*
X-49959Y16455D01*
X-41811Y29002D01*
G01X-64721Y33585D02*
X-64462Y33685D01*
X-64223Y33845D01*
X-64047Y34096D01*
X-63976Y34468D01*
X-64034Y34836D01*
X-64178Y35171D01*
X-64513Y35593D01*
X-64872Y35891D01*
X-65297Y36095D01*
X-65617Y36178D01*
X-66003Y36168D01*
X-66326Y36066D01*
X-66565Y35906D01*
X-66718Y35686D01*
X-66788Y35407D01*
X-66793Y35130D01*
X-66734Y34854D01*
G01X-68343Y33367D02*
X-65803Y31588D01*
X-66047Y32321D01*
G01X-68079Y33743D02*
X-68606Y32990D01*
G01X-67581Y29049D02*
X-67490Y29360D01*
X-67570Y29696D01*
X-67736Y30000D01*
X-68008Y30331D01*
X-68367Y30629D01*
X-68770Y30864D01*
X-69175Y31007D01*
X-69517Y31059D01*
X-69860Y31019D01*
X-70121Y30827D01*
X-70212Y30517D01*
X-70132Y30180D01*
X-69966Y29877D01*
X-69694Y29545D01*
X-69335Y29247D01*
X-68932Y29012D01*
X-68527Y28869D01*
X-68186Y28817D01*
X-67842Y28857D01*
X-67581Y29049D01*
G01X-54926Y45915D02*
X-61235Y36904D01*
X-66150Y40346D01*
X-60414Y48537D01*
X-59021Y48783D01*
X-54926Y45915D01*
G01X-51098Y44902D02*
Y55902D01*
X-45098D01*
Y45902D01*
X-46098Y44902D01*
X-51098D01*
G01X-52234Y51863D02*
X-55334D01*
Y52821D01*
X-55179Y53128D01*
X-54972Y53319D01*
X-54559Y53396D01*
X-54146Y53319D01*
X-53887Y53089D01*
X-53732Y52821D01*
Y51863D01*
G01Y52821D02*
X-52234Y53396D01*
G01X-52854Y54886D02*
X-52492Y55116D01*
X-52286Y55423D01*
X-52234Y55768D01*
X-52286Y56074D01*
X-52544Y56381D01*
X-52854Y56573D01*
X-53164Y56611D01*
X-53526Y56534D01*
X-53784Y56266D01*
X-53887Y55998D01*
Y55653D01*
G01Y55998D02*
X-54042Y56228D01*
X-54301Y56419D01*
X-54611Y56496D01*
X-54921Y56419D01*
X-55179Y56228D01*
X-55334Y55883D01*
X-55282Y55538D01*
X-55076Y55193D01*
G01X-29488Y-54233D02*
X-29583Y-53972D01*
X-29740Y-53731D01*
X-29988Y-53551D01*
X-30358Y-53473D01*
X-30727Y-53525D01*
X-31064Y-53663D01*
X-31492Y-53991D01*
X-31796Y-54344D01*
X-32008Y-54766D01*
X-32097Y-55084D01*
X-32093Y-55470D01*
X-31997Y-55795D01*
X-31841Y-56036D01*
X-31624Y-56194D01*
X-31346Y-56268D01*
X-31069Y-56278D01*
X-30792Y-56223D01*
G01X-29163Y-56385D02*
X-28733Y-56250D01*
X-28426Y-56218D01*
X-28117Y-56315D01*
X-27960Y-56556D01*
X-27927Y-56836D01*
X-27985Y-57177D01*
X-28167Y-57492D01*
X-28380Y-57721D01*
X-28686Y-57881D01*
X-29024Y-57955D01*
X-29302Y-57881D01*
X-29489Y-57617D01*
X-29524Y-57209D01*
X-29375Y-56742D01*
X-29102Y-56302D01*
X-28645Y-55803D01*
X-28340Y-55578D01*
X-27972Y-55398D01*
X-27603Y-55347D01*
X-27356Y-55463D01*
X-27199Y-55704D01*
X-27196Y-56026D01*
G01X-36053Y-66920D02*
X-30175Y-58830D01*
G01X-947Y-60797D02*
G02X-21821Y-55600I0J44520D01*
G01X-27766Y-61545D01*
Y-65955D01*
G03X-947Y-72730I26819J49689D01*
G01X-37119Y-30608D02*
X-38378Y-33599D01*
X-35651Y-31840D01*
G01X-36003Y-35591D02*
X-34011Y-33216D01*
X-34761Y-33396D01*
G01X-36356Y-35296D02*
X-35651Y-35887D01*
G01X-44804Y-22638D02*
Y-19538D01*
X-43846D01*
X-43540Y-19693D01*
X-43348Y-19900D01*
X-43271Y-20313D01*
X-43348Y-20726D01*
X-43578Y-20985D01*
X-43846Y-21140D01*
X-44804D01*
G01X-43846D02*
X-43271Y-22638D01*
G01X-40938D02*
Y-19538D01*
X-41398Y-20158D01*
G01Y-22638D02*
X-40478D01*
G01X-37838Y-19538D02*
X-38144Y-19641D01*
X-38374Y-19900D01*
X-38528Y-20210D01*
X-38643Y-20623D01*
X-38681Y-21088D01*
X-38643Y-21553D01*
X-38528Y-21966D01*
X-38374Y-22276D01*
X-38144Y-22535D01*
X-37838Y-22638D01*
X-37531Y-22535D01*
X-37301Y-22276D01*
X-37148Y-21966D01*
X-37033Y-21553D01*
X-36994Y-21088D01*
X-37033Y-20623D01*
X-37148Y-20210D01*
X-37301Y-19900D01*
X-37531Y-19641D01*
X-37838Y-19538D01*
G01X-46463Y-12954D02*
X-35463D01*
X-35463Y-18954D01*
X-45463Y-18954D01*
X-46463Y-17954D01*
X-46463Y-12954D01*
G01X-34768Y24106D02*
X-32139Y22464D01*
X-32647Y21651D01*
X-32941Y21473D01*
X-33217Y21420D01*
X-33609Y21574D01*
X-33918Y21858D01*
X-34016Y22190D01*
X-34005Y22500D01*
X-33497Y23312D01*
G01X-34005Y22500D02*
X-35580Y22806D01*
G01X-36817Y20827D02*
X-34188Y19184D01*
X-34470Y19903D01*
G01X-36573Y21217D02*
X-37060Y20437D01*
G01X-30862Y31236D02*
X-36691Y21908D01*
X-41779Y25087D01*
X-36480Y33568D01*
X-35102Y33886D01*
X-30862Y31236D01*
G01X-32887Y14044D02*
X-33000Y14298D01*
X-33173Y14528D01*
X-33433Y14690D01*
X-33808Y14742D01*
X-34172Y14665D01*
X-34499Y14503D01*
X-34903Y14146D01*
X-35182Y13772D01*
X-35363Y13338D01*
X-35430Y13014D01*
X-35399Y12629D01*
X-35281Y12311D01*
X-35108Y12082D01*
X-34881Y11939D01*
X-34599Y11885D01*
X-34321Y11894D01*
X-34049Y11968D01*
G01X-32480Y10439D02*
X-30837Y13068D01*
X-31555Y12786D01*
G01X-32870Y10683D02*
X-32089Y10195D01*
G01X-29099Y11373D02*
X-28740Y11514D01*
X-28430Y11503D01*
X-28143Y11384D01*
X-27872Y11094D01*
X-27782Y10732D01*
X-27881Y10429D01*
X-28078Y10186D01*
X-28345Y10048D01*
X-29269Y10017D01*
X-29753Y9893D01*
X-30222Y9576D01*
X-30533Y9223D01*
X-29168Y8370D01*
G01X-43290Y22274D02*
X-33962Y16445D01*
X-37141Y11356D01*
X-45622Y16656D01*
X-45940Y18034D01*
X-43290Y22274D01*
G01X-24343Y47316D02*
X-27443D01*
Y48274D01*
X-27288Y48581D01*
X-27082Y48772D01*
X-26668Y48849D01*
X-26255Y48772D01*
X-25997Y48542D01*
X-25842Y48274D01*
Y47316D01*
G01Y48274D02*
X-24343Y48849D01*
G01X-26926Y50454D02*
X-27237Y50684D01*
X-27392Y50952D01*
X-27443Y51259D01*
X-27340Y51642D01*
X-27082Y51911D01*
X-26772Y51987D01*
X-26462Y51949D01*
X-26203Y51796D01*
X-25686Y51029D01*
X-25325Y50684D01*
X-24808Y50454D01*
X-24343Y50377D01*
Y51987D01*
G01X-25714Y46365D02*
Y35365D01*
X-31714Y35365D01*
Y45365D01*
X-30714Y46365D01*
X-25714D01*
G01X-42100Y39674D02*
X-42256Y39444D01*
X-42359Y39176D01*
Y38869D01*
X-42204Y38524D01*
X-41946Y38256D01*
X-41635Y38064D01*
X-41119Y37911D01*
X-40654Y37873D01*
X-40189Y37949D01*
X-39879Y38064D01*
X-39569Y38294D01*
X-39362Y38563D01*
X-39259Y38831D01*
Y39099D01*
X-39362Y39368D01*
X-39517Y39598D01*
X-39724Y39789D01*
G01X-39620Y41279D02*
X-39362Y41548D01*
X-39259Y41854D01*
X-39362Y42161D01*
X-39672Y42429D01*
X-40137Y42621D01*
X-40602Y42698D01*
X-41170D01*
X-41635Y42621D01*
X-42049Y42429D01*
X-42256Y42199D01*
X-42359Y41931D01*
X-42256Y41624D01*
X-42049Y41394D01*
X-41739Y41241D01*
X-41325Y41164D01*
X-40964Y41241D01*
X-40602Y41433D01*
X-40395Y41663D01*
X-40344Y41931D01*
X-40447Y42238D01*
X-40705Y42468D01*
X-41170Y42698D01*
G01X-38858Y36621D02*
Y47621D01*
X-32858D01*
Y37621D01*
X-33858Y36621D01*
X-38858D01*
G01X-14272Y-54461D02*
X-13122Y-43521D01*
X-7154Y-44148D01*
X-8200Y-54094D01*
X-9299Y-54984D01*
X-14272Y-54461D01*
G01X-228Y-44313D02*
Y-55313D01*
X-6229D01*
X-6228Y-45313D01*
X-5228Y-44313D01*
X-228D01*
G01X-963Y-60797D02*
G03X19911Y-55600I0J44520D01*
G01X25856Y-61545D01*
Y-65955D01*
G02X-963Y-72730I-26819J49689D01*
G01X2167Y-17296D02*
Y-28296D01*
X-3833D01*
Y-18296D01*
X-2833Y-17296D01*
X2167D01*
G01X-11769Y-24744D02*
X-14865Y-24582D01*
X-14815Y-23625D01*
X-14644Y-23327D01*
X-14428Y-23146D01*
X-14011Y-23092D01*
X-13602Y-23190D01*
X-13356Y-23433D01*
X-13215Y-23709D01*
X-13266Y-24666D01*
G01X-13215Y-23709D02*
X-11689Y-23213D01*
G01X-12075Y-21701D02*
X-11806Y-21485D01*
X-11637Y-21225D01*
X-11567Y-20883D01*
X-11652Y-20533D01*
X-11844Y-20254D01*
X-12196Y-20044D01*
X-12606Y-19984D01*
X-13023Y-20039D01*
X-13291Y-20217D01*
X-13512Y-20474D01*
X-13577Y-20739D01*
X-13540Y-21010D01*
X-13351Y-21365D01*
X-14687Y-21180D01*
X-14633Y-20146D01*
G01X-10938Y-28509D02*
Y-17509D01*
X-4938D01*
Y-27509D01*
X-5938Y-28509D01*
X-10938D01*
G01X-8531Y-42068D02*
X-11574Y-41476D01*
X-11391Y-40535D01*
X-11181Y-40264D01*
X-10941Y-40115D01*
X-10521Y-40119D01*
X-10130Y-40273D01*
X-9920Y-40548D01*
X-9819Y-40841D01*
X-10002Y-41782D01*
G01X-9819Y-40841D02*
X-8239Y-40562D01*
G01X-9200Y-38740D02*
X-9504Y-38408D01*
X-9663Y-38143D01*
X-9706Y-37822D01*
X-9553Y-37578D01*
X-9314Y-37430D01*
X-8981Y-37338D01*
X-8618Y-37370D01*
X-8321Y-37466D01*
X-8046Y-37676D01*
X-7836Y-37951D01*
X-7786Y-38234D01*
X-7946Y-38516D01*
X-8302Y-38720D01*
X-8787Y-38782D01*
X-9302Y-38721D01*
X-9947Y-38517D01*
X-10280Y-38335D01*
X-10598Y-38078D01*
X-10800Y-37766D01*
X-10800Y-37492D01*
X-10647Y-37249D01*
X-10357Y-37110D01*
G01X-1755Y-42473D02*
X-4850Y-42635D01*
X-4901Y-41678D01*
X-4762Y-41364D01*
X-4566Y-41161D01*
X-4157Y-41063D01*
X-3740Y-41118D01*
X-3470Y-41334D01*
X-3301Y-41594D01*
X-3251Y-42551D01*
G01X-3301Y-41594D02*
X-1835Y-40941D01*
G01X-1953Y-38688D02*
X-2628Y-38646D01*
X-3201Y-38561D01*
X-3725Y-38435D01*
X-4303Y-38274D01*
X-5093Y-38008D01*
X-5013Y-39539D01*
G01X-18816Y-3659D02*
X-18661Y-3429D01*
X-18558Y-3161D01*
Y-2854D01*
X-18713Y-2509D01*
X-18971Y-2241D01*
X-19281Y-2049D01*
X-19798Y-1896D01*
X-20263Y-1858D01*
X-20728Y-1934D01*
X-21038Y-2049D01*
X-21348Y-2279D01*
X-21555Y-2548D01*
X-21658Y-2816D01*
Y-3084D01*
X-21555Y-3353D01*
X-21400Y-3583D01*
X-21193Y-3774D01*
G01X-21658Y-5916D02*
X-18558D01*
X-19178Y-5456D01*
G01X-21658D02*
Y-6376D01*
G01X-21038Y-8173D02*
X-21400Y-8403D01*
X-21606Y-8709D01*
X-21658Y-9054D01*
X-21606Y-9361D01*
X-21348Y-9668D01*
X-21038Y-9859D01*
X-20728Y-9898D01*
X-20366Y-9821D01*
X-20108Y-9553D01*
X-20005Y-9284D01*
Y-8939D01*
G01Y-9284D02*
X-19850Y-9514D01*
X-19591Y-9706D01*
X-19281Y-9783D01*
X-18971Y-9706D01*
X-18713Y-9514D01*
X-18558Y-9169D01*
X-18610Y-8824D01*
X-18816Y-8479D01*
G01X3242Y7178D02*
X-15655D01*
Y-7783D01*
X3242D01*
Y7178D01*
G01X-11732Y18374D02*
Y29374D01*
X-5732D01*
Y19374D01*
X-6732Y18374D01*
X-11732D01*
G01X-6153Y14484D02*
Y17584D01*
X-5195D01*
X-4888Y17429D01*
X-4697Y17223D01*
X-4620Y16809D01*
X-4697Y16396D01*
X-4927Y16138D01*
X-5195Y15983D01*
X-6153D01*
G01X-5195D02*
X-4620Y14484D01*
G01X-2287D02*
Y17584D01*
X-2747Y16964D01*
G01Y14484D02*
X-1827D01*
G01X1273D02*
Y17584D01*
X-145Y15363D01*
X1772D01*
G01X-4627Y18315D02*
Y29315D01*
X1373D01*
Y19315D01*
X373Y18315D01*
X-4627D01*
G01X-17325Y12153D02*
Y1153D01*
X-23325D01*
Y11153D01*
X-22325Y12153D01*
X-17325D01*
G01X-22251Y49424D02*
X-22402Y49192D01*
X-22500Y48922D01*
X-22495Y48615D01*
X-22334Y48273D01*
X-22071Y48009D01*
X-21758Y47823D01*
X-21238Y47678D01*
X-20773Y47648D01*
X-20309Y47733D01*
X-20001Y47853D01*
X-19695Y48089D01*
X-19493Y48361D01*
X-19395Y48631D01*
X-19399Y48899D01*
X-19507Y49166D01*
X-19666Y49393D01*
X-19876Y49581D01*
G01X-19449Y51730D02*
X-22548Y51676D01*
X-21920Y51227D01*
G01X-19441Y51270D02*
X-19457Y52190D01*
G01X-24462Y35259D02*
Y46259D01*
X-18462D01*
Y36259D01*
X-19462Y35259D01*
X-24462D01*
G01X-7514Y30683D02*
X-10612Y30575D01*
X-10646Y31533D01*
X-10501Y31844D01*
X-10302Y32043D01*
X-9891Y32134D01*
X-9475Y32072D01*
X-9209Y31851D01*
X-9045Y31588D01*
X-9012Y30631D01*
G01X-9045Y31588D02*
X-7568Y32215D01*
G01X-7665Y35007D02*
X-10763Y34899D01*
X-8493Y33559D01*
X-8560Y35474D01*
G01X837Y42453D02*
X607Y42608D01*
X339Y42712D01*
X32D01*
X-313Y42556D01*
X-581Y42298D01*
X-773Y41988D01*
X-926Y41472D01*
X-965Y41007D01*
X-888Y40542D01*
X-773Y40232D01*
X-543Y39922D01*
X-275Y39715D01*
X-6Y39612D01*
X262D01*
X530Y39715D01*
X760Y39870D01*
X952Y40076D01*
G01X2250D02*
X2480Y39818D01*
X2749Y39663D01*
X3094Y39612D01*
X3439Y39715D01*
X3707Y39922D01*
X3899Y40283D01*
X3937Y40697D01*
X3860Y41110D01*
X3669Y41368D01*
X3400Y41575D01*
X3132Y41626D01*
X2864Y41575D01*
X2519Y41368D01*
X2634Y42712D01*
X3669D01*
G01X7361Y32466D02*
X-3639D01*
Y38466D01*
X6361D01*
X7361Y37466D01*
Y32466D01*
G01X-16687Y52373D02*
X-16381Y52115D01*
X-16036Y51960D01*
X-15729D01*
X-15422Y52115D01*
X-15192Y52373D01*
X-15077Y52735D01*
X-15154Y53096D01*
X-15346Y53406D01*
X-15691Y53613D01*
X-16151Y53716D01*
X-16419Y53923D01*
X-16534Y54285D01*
X-16457Y54646D01*
X-16266Y54904D01*
X-15997Y55060D01*
X-15729D01*
X-15461Y54956D01*
X-15231Y54698D01*
G01X-13626Y51960D02*
Y55060D01*
X-12859D01*
X-12552Y54904D01*
X-12322Y54698D01*
X-12131Y54388D01*
X-11977Y54026D01*
X-11939Y53510D01*
X-11977Y52993D01*
X-12131Y52631D01*
X-12322Y52321D01*
X-12552Y52115D01*
X-12859Y51960D01*
X-13626D01*
G01X-9682D02*
Y55060D01*
X-10142Y54440D01*
G01Y51960D02*
X-9222D01*
G01X-6582Y55060D02*
X-6889Y54956D01*
X-7119Y54698D01*
X-7272Y54388D01*
X-7387Y53974D01*
X-7426Y53510D01*
X-7387Y53045D01*
X-7272Y52631D01*
X-7119Y52321D01*
X-6889Y52063D01*
X-6582Y51960D01*
X-6276Y52063D01*
X-6046Y52321D01*
X-5892Y52631D01*
X-5777Y53045D01*
X-5739Y53510D01*
X-5777Y53974D01*
X-5892Y54388D01*
X-6046Y54698D01*
X-6276Y54956D01*
X-6582Y55060D01*
G01X-3022Y51960D02*
Y55060D01*
X-4441Y52838D01*
X-2524D01*
G01X-881Y52993D02*
X116D01*
G01X2718Y55060D02*
X2411Y54956D01*
X2181Y54698D01*
X2028Y54388D01*
X1913Y53974D01*
X1874Y53510D01*
X1913Y53045D01*
X2028Y52631D01*
X2181Y52321D01*
X2411Y52063D01*
X2718Y51960D01*
X3024Y52063D01*
X3254Y52321D01*
X3408Y52631D01*
X3523Y53045D01*
X3561Y53510D01*
X3523Y53974D01*
X3408Y54388D01*
X3254Y54698D01*
X3024Y54956D01*
X2718Y55060D01*
G01X5166Y52321D02*
X5434Y52063D01*
X5741Y51960D01*
X6048Y52063D01*
X6316Y52373D01*
X6508Y52838D01*
X6584Y53303D01*
Y53871D01*
X6508Y54336D01*
X6316Y54750D01*
X6086Y54956D01*
X5818Y55060D01*
X5511Y54956D01*
X5281Y54750D01*
X5128Y54440D01*
X5051Y54026D01*
X5128Y53665D01*
X5319Y53303D01*
X5549Y53096D01*
X5818Y53045D01*
X6124Y53148D01*
X6354Y53406D01*
X6584Y53871D01*
G01X8151Y51960D02*
Y55060D01*
X9071D01*
X9378Y54904D01*
X9608Y54543D01*
X9684Y54130D01*
X9608Y53716D01*
X9416Y53406D01*
X9071Y53251D01*
X8151D01*
G01X12861Y54801D02*
X12631Y54956D01*
X12363Y55060D01*
X12056D01*
X11711Y54904D01*
X11443Y54646D01*
X11251Y54336D01*
X11098Y53820D01*
X11059Y53355D01*
X11136Y52890D01*
X11251Y52580D01*
X11481Y52270D01*
X11749Y52063D01*
X12018Y51960D01*
X12286D01*
X12554Y52063D01*
X12784Y52218D01*
X12976Y52424D01*
G01X15424Y53613D02*
X15578Y53768D01*
X15693Y54026D01*
X15769Y54388D01*
X15693Y54698D01*
X15539Y54904D01*
X15271Y55060D01*
X14236D01*
Y51960D01*
X15501D01*
X15769Y52166D01*
X15923Y52476D01*
X15999Y52838D01*
X15923Y53200D01*
X15693Y53510D01*
X15424Y53613D01*
X14236D01*
G01X9032Y-55085D02*
X7691Y-44167D01*
X13646Y-43436D01*
X14865Y-53361D01*
X13994Y-54476D01*
X9032Y-55085D01*
G01X6681Y-44263D02*
X6681Y-55264D01*
X681D01*
Y-45264D01*
X1681Y-44264D01*
X6681Y-44263D01*
G01X17254Y-53991D02*
X14593Y-43318D01*
X20415Y-41866D01*
X22834Y-51569D01*
X22106Y-52782D01*
X17254Y-53991D01*
G01X26563Y-32339D02*
X26534Y-32615D01*
X26569Y-32900D01*
X26713Y-33171D01*
X27012Y-33403D01*
X27366Y-33518D01*
X27730Y-33542D01*
X28258Y-33435D01*
X28686Y-33250D01*
X29061Y-32964D01*
X29281Y-32717D01*
X29446Y-32369D01*
X29503Y-32035D01*
X29468Y-31749D01*
X29342Y-31512D01*
X29125Y-31324D01*
X28880Y-31194D01*
X28608Y-31121D01*
G01X28013Y-29012D02*
X27841Y-28800D01*
X27560Y-28602D01*
X27242Y-28554D01*
X26887Y-28656D01*
X26604Y-28893D01*
X26438Y-29242D01*
X26463Y-29619D01*
X26643Y-29958D01*
X26660Y-30209D01*
X26522Y-30500D01*
X26238Y-30737D01*
X25865Y-30806D01*
X25511Y-30690D01*
X25276Y-30468D01*
X25223Y-30148D01*
X25325Y-29790D01*
X25590Y-29519D01*
X25946Y-29417D01*
X26264Y-29465D01*
X26463Y-29619D01*
X26643Y-29958D01*
X26942Y-30190D01*
X27324Y-30247D01*
X27679Y-30145D01*
X27962Y-29907D01*
X28100Y-29617D01*
X28093Y-29274D01*
X28013Y-29012D01*
G01X22884Y-27298D02*
X26826Y-37568D01*
X21224Y-39718D01*
X17641Y-30382D01*
X18216Y-29090D01*
X22884Y-27298D01*
G01X2421Y-25064D02*
X2266Y-25294D01*
X2163Y-25563D01*
Y-25869D01*
X2318Y-26214D01*
X2576Y-26483D01*
X2886Y-26674D01*
X3403Y-26828D01*
X3868Y-26866D01*
X4333Y-26790D01*
X4643Y-26674D01*
X4953Y-26444D01*
X5159Y-26176D01*
X5263Y-25908D01*
Y-25640D01*
X5159Y-25371D01*
X5004Y-25141D01*
X4798Y-24949D01*
G01X5263Y-22808D02*
X2163D01*
X2783Y-23268D01*
G01X5263D02*
Y-22348D01*
G01Y-19708D02*
X2163D01*
X2783Y-20168D01*
G01X5263D02*
Y-19248D01*
G01X11889Y-42256D02*
X8869Y-42954D01*
X8653Y-42020D01*
X8735Y-41686D01*
X8894Y-41453D01*
X9279Y-41285D01*
X9699Y-41267D01*
X10002Y-41433D01*
X10214Y-41660D01*
X10430Y-42593D01*
G01X10214Y-41660D02*
X11544Y-40762D01*
G01X11020Y-38489D02*
X10909Y-38239D01*
X10689Y-37975D01*
X10394Y-37846D01*
X10024Y-37853D01*
X9689Y-38009D01*
X9439Y-38303D01*
X9366Y-38674D01*
X9452Y-39048D01*
X9403Y-39295D01*
X9194Y-39540D01*
X8859Y-39696D01*
X8481Y-39665D01*
X8169Y-39462D01*
X7999Y-39186D01*
X8031Y-38864D01*
X8222Y-38545D01*
X8549Y-38351D01*
X8918Y-38345D01*
X9213Y-38473D01*
X9366Y-38674D01*
X9452Y-39048D01*
X9680Y-39349D01*
X10034Y-39503D01*
X10404Y-39497D01*
X10739Y-39340D01*
X10948Y-39096D01*
X11030Y-38762D01*
X11020Y-38489D01*
G01X5328Y-42247D02*
X2229Y-42355D01*
X2196Y-41397D01*
X2340Y-41085D01*
X2540Y-40887D01*
X2950Y-40796D01*
X3366Y-40858D01*
X3632Y-41079D01*
X3797Y-41341D01*
X3830Y-42299D01*
G01X3797Y-41341D02*
X5274Y-40714D01*
G01X4854Y-39046D02*
X5103Y-38769D01*
X5195Y-38459D01*
X5081Y-38156D01*
X4762Y-37899D01*
X4291Y-37724D01*
X3823Y-37663D01*
X3255Y-37683D01*
X2793Y-37776D01*
X2387Y-37982D01*
X2188Y-38219D01*
X2094Y-38491D01*
X2208Y-38794D01*
X2423Y-39016D01*
X2738Y-39159D01*
X3154Y-39221D01*
X3513Y-39132D01*
X3867Y-38927D01*
X4066Y-38690D01*
X4108Y-38420D01*
X3994Y-38118D01*
X3728Y-37897D01*
X3255Y-37683D01*
G01X18518Y-40710D02*
X15510Y-41460D01*
X15278Y-40530D01*
X15354Y-40195D01*
X15508Y-39959D01*
X15891Y-39784D01*
X16310Y-39759D01*
X16616Y-39919D01*
X16832Y-40142D01*
X17064Y-41072D01*
G01X16832Y-40142D02*
X18146Y-39222D01*
G01X15252Y-38289D02*
X14895Y-38141D01*
X14680Y-37918D01*
X14556Y-37633D01*
X14563Y-37236D01*
X14749Y-36914D01*
X15031Y-36764D01*
X15341Y-36726D01*
X15629Y-36813D01*
X16316Y-37432D01*
X16750Y-37679D01*
X17307Y-37777D01*
X17777Y-37739D01*
X17387Y-36177D01*
G01X13824Y-34700D02*
X13999Y-34972D01*
X14305Y-35133D01*
X14643Y-35207D01*
X15072Y-35218D01*
X15532Y-35143D01*
X15974Y-34993D01*
X16347Y-34782D01*
X16611Y-34558D01*
X16806Y-34272D01*
X16832Y-33950D01*
X16658Y-33677D01*
X16351Y-33517D01*
X16013Y-33443D01*
X15585Y-33431D01*
X15124Y-33506D01*
X14682Y-33656D01*
X14309Y-33868D01*
X14045Y-34092D01*
X13850Y-34377D01*
X13824Y-34700D01*
G01X16778Y-20929D02*
X16623Y-21159D01*
X16520Y-21427D01*
Y-21734D01*
X16675Y-22079D01*
X16933Y-22347D01*
X17243Y-22539D01*
X17760Y-22692D01*
X18225Y-22731D01*
X18690Y-22654D01*
X19000Y-22539D01*
X19310Y-22309D01*
X19516Y-22040D01*
X19620Y-21772D01*
Y-21504D01*
X19516Y-21236D01*
X19361Y-21006D01*
X19155Y-20814D01*
G01X19000Y-19516D02*
X19361Y-19286D01*
X19568Y-18979D01*
X19620Y-18634D01*
X19568Y-18327D01*
X19310Y-18020D01*
X19000Y-17829D01*
X18690Y-17790D01*
X18328Y-17867D01*
X18070Y-18136D01*
X17966Y-18404D01*
Y-18749D01*
G01Y-18404D02*
X17811Y-18174D01*
X17553Y-17982D01*
X17243Y-17906D01*
X16933Y-17982D01*
X16675Y-18174D01*
X16520Y-18519D01*
X16571Y-18864D01*
X16778Y-19209D01*
G01X15574Y-9228D02*
X5574Y-9228D01*
G01X12560Y21081D02*
X9462Y20972D01*
X9428Y21930D01*
X9573Y22242D01*
X9772Y22441D01*
X10183Y22532D01*
X10599Y22470D01*
X10865Y22249D01*
X11029Y21986D01*
X11063Y21028D01*
G01X11029Y21986D02*
X12507Y22613D01*
G01X12425Y24945D02*
X9327Y24837D01*
X9963Y24399D01*
G01X12441Y24485D02*
X12409Y25405D01*
G01X12317Y28043D02*
X9219Y27935D01*
X9854Y27497D01*
G01X12333Y27583D02*
X12301Y28503D01*
G01X2292Y18423D02*
Y29423D01*
X8292D01*
Y19423D01*
X7292Y18423D01*
X2292D01*
G01X17209Y10382D02*
X17054Y10152D01*
X16951Y9884D01*
Y9577D01*
X17106Y9232D01*
X17364Y8964D01*
X17674Y8772D01*
X18191Y8619D01*
X18656Y8580D01*
X19121Y8657D01*
X19431Y8772D01*
X19741Y9002D01*
X19948Y9270D01*
X20051Y9539D01*
Y9807D01*
X19948Y10076D01*
X19792Y10306D01*
X19586Y10497D01*
G01X20051Y13099D02*
X16951D01*
X19172Y11680D01*
Y13597D01*
G01X15574Y12312D02*
X5574Y12312D01*
G01X2225Y12844D02*
X5325D01*
X2225Y11081D01*
X5325D01*
G01X4808Y9591D02*
X5118Y9361D01*
X5273Y9092D01*
X5325Y8786D01*
X5221Y8402D01*
X4963Y8134D01*
X4653Y8057D01*
X4343Y8096D01*
X4085Y8249D01*
X3568Y9016D01*
X3206Y9361D01*
X2690Y9591D01*
X2225Y9667D01*
Y8057D01*
G01X22638Y33324D02*
X22483Y33094D01*
X22380Y32826D01*
Y32519D01*
X22535Y32174D01*
X22793Y31906D01*
X23103Y31714D01*
X23620Y31561D01*
X24085Y31522D01*
X24550Y31599D01*
X24860Y31714D01*
X25170Y31944D01*
X25377Y32212D01*
X25480Y32481D01*
Y32749D01*
X25377Y33017D01*
X25222Y33247D01*
X25015Y33439D01*
G01X25480Y35581D02*
X22380D01*
X23000Y35121D01*
G01X25480D02*
Y36040D01*
G01X24188Y37952D02*
X23827Y38221D01*
X23620Y38451D01*
X23517Y38757D01*
X23620Y39026D01*
X23827Y39217D01*
X24137Y39371D01*
X24498Y39409D01*
X24808Y39371D01*
X25118Y39217D01*
X25377Y38987D01*
X25480Y38719D01*
X25377Y38412D01*
X25067Y38144D01*
X24602Y37991D01*
X24085Y37952D01*
X23413Y38029D01*
X23052Y38144D01*
X22690Y38336D01*
X22432Y38604D01*
X22380Y38872D01*
X22483Y39141D01*
X22742Y39332D01*
G01X21170Y50150D02*
X11170D01*
G01X36598Y-63273D02*
X34258Y-65306D01*
X33755Y-64728D01*
X33671Y-64395D01*
X33676Y-64085D01*
X33784Y-63737D01*
X33957Y-63384D01*
X34322Y-63016D01*
X34737Y-62706D01*
X35110Y-62585D01*
X35470Y-62526D01*
X35777Y-62564D01*
X36095Y-62694D01*
X36598Y-63273D01*
G01X34011Y-60297D02*
X31671Y-62330D01*
X32441Y-62271D01*
G01X34312Y-60644D02*
X33709Y-59949D01*
G01X35738Y-60330D02*
X50214Y-48183D01*
X40598Y-36722D01*
X26121Y-48870D01*
X35738Y-60330D01*
G01X48913Y-24815D02*
X37913D01*
X37913Y-18815D01*
X47913Y-18814D01*
X48913Y-19815D01*
Y-24815D01*
G01X32001Y-20318D02*
X31776Y-20156D01*
X31512Y-20043D01*
X31205Y-20032D01*
X30855Y-20175D01*
X30578Y-20424D01*
X30376Y-20727D01*
X30204Y-21238D01*
X30150Y-21701D01*
X30210Y-22169D01*
X30314Y-22483D01*
X30533Y-22800D01*
X30794Y-23016D01*
X31059Y-23129D01*
X31327Y-23138D01*
X31599Y-23044D01*
X31834Y-22898D01*
X32033Y-22698D01*
G01X34080Y-23234D02*
X34180Y-22566D01*
X34315Y-22002D01*
X34486Y-21491D01*
X34698Y-20930D01*
X35031Y-20166D01*
X33499Y-20112D01*
G01X28715Y-15193D02*
X28737Y-12093D01*
X29695Y-12099D01*
X30001Y-12257D01*
X30191Y-12464D01*
X30265Y-12878D01*
X30185Y-13291D01*
X29953Y-13548D01*
X29684Y-13701D01*
X28726Y-13694D01*
G01X29684Y-13701D02*
X30248Y-15203D01*
G01X32582Y-15220D02*
X32603Y-12120D01*
X32139Y-12736D01*
G01X32122Y-15216D02*
X33042Y-15223D01*
G01X35032Y-14875D02*
X35299Y-15135D01*
X35605Y-15241D01*
X35912Y-15139D01*
X36183Y-14831D01*
X36378Y-14368D01*
X36458Y-13903D01*
X36462Y-13335D01*
X36388Y-12869D01*
X36199Y-12454D01*
X35971Y-12246D01*
X35703Y-12141D01*
X35396Y-12242D01*
X35164Y-12447D01*
X35009Y-12756D01*
X34929Y-13169D01*
X35003Y-13531D01*
X35193Y-13894D01*
X35421Y-14103D01*
X35689Y-14156D01*
X35996Y-14055D01*
X36228Y-13798D01*
X36462Y-13335D01*
G01X37965Y-11620D02*
X48965Y-11697D01*
X48923Y-17697D01*
X38924Y-17627D01*
X37930Y-16620D01*
X37965Y-11620D01*
G01X28383Y23933D02*
X28690Y23675D01*
X29035Y23520D01*
X29341D01*
X29648Y23675D01*
X29878Y23933D01*
X29993Y24295D01*
X29916Y24657D01*
X29725Y24967D01*
X29380Y25173D01*
X28919Y25277D01*
X28651Y25483D01*
X28536Y25845D01*
X28613Y26207D01*
X28804Y26465D01*
X29073Y26620D01*
X29341D01*
X29610Y26517D01*
X29839Y26258D01*
G01X32288Y23520D02*
X31981Y23572D01*
X31713Y23778D01*
X31483Y24088D01*
X31329Y24450D01*
X31253Y24863D01*
Y25277D01*
X31329Y25690D01*
X31483Y26052D01*
X31713Y26362D01*
X31981Y26568D01*
X32288Y26620D01*
X32594Y26568D01*
X32863Y26362D01*
X33093Y26052D01*
X33246Y25690D01*
X33323Y25277D01*
Y24863D01*
X33246Y24450D01*
X33093Y24088D01*
X32863Y23778D01*
X32594Y23572D01*
X32288Y23520D01*
G01X34659Y26103D02*
X34890Y26413D01*
X35158Y26568D01*
X35464Y26620D01*
X35848Y26517D01*
X36116Y26258D01*
X36193Y25948D01*
X36154Y25638D01*
X36001Y25380D01*
X35234Y24863D01*
X34890Y24502D01*
X34659Y23985D01*
X34583Y23520D01*
X36193D01*
G01X30364Y21540D02*
X30134Y21695D01*
X29866Y21798D01*
X29559D01*
X29214Y21643D01*
X28946Y21385D01*
X28754Y21075D01*
X28601Y20558D01*
X28563Y20093D01*
X28639Y19628D01*
X28754Y19318D01*
X28984Y19008D01*
X29253Y18802D01*
X29521Y18698D01*
X29789D01*
X30058Y18802D01*
X30288Y18957D01*
X30479Y19163D01*
G01X32621Y18698D02*
X32314Y18750D01*
X32046Y18957D01*
X31816Y19267D01*
X31663Y19628D01*
X31586Y20042D01*
Y20455D01*
X31663Y20868D01*
X31816Y21230D01*
X32046Y21540D01*
X32314Y21747D01*
X32621Y21798D01*
X32928Y21747D01*
X33196Y21540D01*
X33426Y21230D01*
X33579Y20868D01*
X33656Y20455D01*
Y20042D01*
X33579Y19628D01*
X33426Y19267D01*
X33196Y18957D01*
X32928Y18750D01*
X32621Y18698D01*
G01X28883Y13544D02*
Y16644D01*
G01X30493D02*
Y13544D01*
G01Y15094D02*
X28883D01*
G01X32059Y13544D02*
Y16644D01*
X33516D01*
G01X32979Y15145D02*
X32059D01*
G01X40397Y18865D02*
Y21965D01*
X41355D01*
X41662Y21810D01*
X41853Y21603D01*
X41930Y21190D01*
X41853Y20777D01*
X41623Y20518D01*
X41355Y20363D01*
X40397D01*
G01X41355D02*
X41930Y18865D01*
G01X44187D02*
X44263Y19537D01*
X44378Y20105D01*
X44532Y20622D01*
X44723Y21190D01*
X45030Y21965D01*
X43497D01*
G01X47287Y18297D02*
X47440Y18968D01*
G01X49697Y18865D02*
Y21965D01*
X50655D01*
X50962Y21810D01*
X51153Y21603D01*
X51230Y21190D01*
X51153Y20777D01*
X50923Y20518D01*
X50655Y20363D01*
X49697D01*
G01X50655D02*
X51230Y18865D01*
G01X53563D02*
X53832Y18917D01*
X54138Y19072D01*
X54330Y19330D01*
X54407Y19692D01*
X54330Y20053D01*
X54100Y20363D01*
X53755Y20518D01*
X53372D01*
X53142Y20622D01*
X52950Y20880D01*
X52873Y21242D01*
X52988Y21603D01*
X53257Y21862D01*
X53563Y21965D01*
X53870Y21862D01*
X54138Y21603D01*
X54253Y21242D01*
X54177Y20880D01*
X53985Y20622D01*
X53755Y20518D01*
X53372D01*
X53027Y20363D01*
X52797Y20053D01*
X52720Y19692D01*
X52797Y19330D01*
X52988Y19072D01*
X53295Y18917D01*
X53563Y18865D01*
G01X40563Y13544D02*
Y16644D01*
X41522D01*
X41828Y16488D01*
X42020Y16282D01*
X42097Y15869D01*
X42020Y15455D01*
X41790Y15197D01*
X41522Y15042D01*
X40563D01*
G01X41522D02*
X42097Y13544D01*
G01X43702Y14835D02*
X43970Y15197D01*
X44200Y15404D01*
X44507Y15507D01*
X44775Y15404D01*
X44967Y15197D01*
X45120Y14887D01*
X45158Y14525D01*
X45120Y14215D01*
X44967Y13905D01*
X44737Y13647D01*
X44468Y13544D01*
X44162Y13647D01*
X43893Y13957D01*
X43740Y14422D01*
X43702Y14939D01*
X43778Y15610D01*
X43893Y15972D01*
X44085Y16334D01*
X44353Y16592D01*
X44622Y16644D01*
X44890Y16540D01*
X45082Y16282D01*
G01X47453Y12975D02*
X47607Y13647D01*
G01X49863Y13544D02*
Y16644D01*
X50822D01*
X51128Y16488D01*
X51320Y16282D01*
X51397Y15869D01*
X51320Y15455D01*
X51090Y15197D01*
X50822Y15042D01*
X49863D01*
G01X50822D02*
X51397Y13544D01*
G01X53730D02*
X53998Y13595D01*
X54305Y13750D01*
X54497Y14009D01*
X54573Y14370D01*
X54497Y14732D01*
X54267Y15042D01*
X53922Y15197D01*
X53538D01*
X53308Y15300D01*
X53117Y15558D01*
X53040Y15920D01*
X53155Y16282D01*
X53423Y16540D01*
X53730Y16644D01*
X54037Y16540D01*
X54305Y16282D01*
X54420Y15920D01*
X54343Y15558D01*
X54152Y15300D01*
X53922Y15197D01*
X53538D01*
X53193Y15042D01*
X52963Y14732D01*
X52887Y14370D01*
X52963Y14009D01*
X53155Y13750D01*
X53462Y13595D01*
X53730Y13544D01*
G01X40397Y23853D02*
Y26953D01*
X41355D01*
X41662Y26798D01*
X41853Y26592D01*
X41930Y26178D01*
X41853Y25765D01*
X41623Y25507D01*
X41355Y25352D01*
X40397D01*
G01X41355D02*
X41930Y23853D01*
G01X43535Y25145D02*
X43803Y25507D01*
X44033Y25713D01*
X44340Y25817D01*
X44608Y25713D01*
X44800Y25507D01*
X44953Y25196D01*
X44992Y24835D01*
X44953Y24525D01*
X44800Y24215D01*
X44570Y23956D01*
X44302Y23853D01*
X43995Y23956D01*
X43727Y24266D01*
X43573Y24732D01*
X43535Y25248D01*
X43612Y25920D01*
X43727Y26282D01*
X43918Y26643D01*
X44187Y26902D01*
X44455Y26953D01*
X44723Y26850D01*
X44915Y26592D01*
G01X47287Y23285D02*
X47440Y23956D01*
G01X49697Y23853D02*
Y26953D01*
X50655D01*
X50962Y26798D01*
X51153Y26592D01*
X51230Y26178D01*
X51153Y25765D01*
X50923Y25507D01*
X50655Y25352D01*
X49697D01*
G01X50655D02*
X51230Y23853D01*
G01X52912Y24215D02*
X53180Y23956D01*
X53487Y23853D01*
X53793Y23956D01*
X54062Y24266D01*
X54253Y24732D01*
X54330Y25196D01*
Y25765D01*
X54253Y26230D01*
X54062Y26643D01*
X53832Y26850D01*
X53563Y26953D01*
X53257Y26850D01*
X53027Y26643D01*
X52873Y26333D01*
X52797Y25920D01*
X52873Y25558D01*
X53065Y25196D01*
X53295Y24990D01*
X53563Y24938D01*
X53870Y25042D01*
X54100Y25300D01*
X54330Y25765D01*
G01X28383Y29175D02*
Y32275D01*
G01X29993D02*
Y29175D01*
G01Y30725D02*
X28383D01*
G01X31559Y31758D02*
X31790Y32068D01*
X32058Y32223D01*
X32364Y32275D01*
X32748Y32171D01*
X33016Y31913D01*
X33093Y31603D01*
X33054Y31293D01*
X32901Y31035D01*
X32135Y30518D01*
X31790Y30156D01*
X31559Y29639D01*
X31483Y29175D01*
X33093D01*
G01X34583Y29588D02*
X34890Y29330D01*
X35234Y29175D01*
X35541D01*
X35848Y29330D01*
X36078Y29588D01*
X36193Y29950D01*
X36116Y30311D01*
X35925Y30621D01*
X35580Y30828D01*
X35120Y30931D01*
X34851Y31138D01*
X34736Y31500D01*
X34813Y31861D01*
X35004Y32120D01*
X35273Y32275D01*
X35541D01*
X35810Y32171D01*
X36040Y31913D01*
G01X40563Y29175D02*
Y32275D01*
X41522D01*
X41828Y32120D01*
X42020Y31913D01*
X42097Y31500D01*
X42020Y31086D01*
X41790Y30828D01*
X41522Y30673D01*
X40563D01*
G01X41522D02*
X42097Y29175D01*
G01X44353D02*
X44430Y29846D01*
X44545Y30414D01*
X44698Y30931D01*
X44890Y31500D01*
X45197Y32275D01*
X43663D01*
G01X47453Y28606D02*
X47607Y29278D01*
G01X49863Y29175D02*
Y32275D01*
X50822D01*
X51128Y32120D01*
X51320Y31913D01*
X51397Y31500D01*
X51320Y31086D01*
X51090Y30828D01*
X50822Y30673D01*
X49863D01*
G01X50822D02*
X51397Y29175D01*
G01X53078Y29536D02*
X53347Y29278D01*
X53653Y29175D01*
X53960Y29278D01*
X54228Y29588D01*
X54420Y30053D01*
X54497Y30518D01*
Y31086D01*
X54420Y31551D01*
X54228Y31965D01*
X53998Y32171D01*
X53730Y32275D01*
X53423Y32171D01*
X53193Y31965D01*
X53040Y31655D01*
X52963Y31241D01*
X53040Y30880D01*
X53232Y30518D01*
X53462Y30311D01*
X53730Y30260D01*
X54037Y30363D01*
X54267Y30621D01*
X54497Y31086D01*
G01X59091Y30058D02*
G03X44703Y46050I-39310J-20900D01*
G01X47161Y54089D01*
X51054Y56159D01*
G02X69628Y35661I-31282J-47007D01*
G01X71798Y-6478D02*
G03I-5638J0D01*
G01X64556Y-20092D02*
X64574Y-16992D01*
X65341Y-16997D01*
X65647Y-17154D01*
X65875Y-17362D01*
X66065Y-17673D01*
X66216Y-18035D01*
X66252Y-18552D01*
X66210Y-19069D01*
X66054Y-19429D01*
X65861Y-19738D01*
X65630Y-19943D01*
X65322Y-20096D01*
X64556Y-20092D01*
G01X67786Y-17528D02*
X68018Y-17220D01*
X68287Y-17066D01*
X68594Y-17016D01*
X68977Y-17122D01*
X69244Y-17382D01*
X69318Y-17692D01*
X69278Y-18002D01*
X69123Y-18260D01*
X68354Y-18772D01*
X68006Y-19131D01*
X67773Y-19646D01*
X67694Y-20111D01*
X69304Y-20121D01*
G01X73836Y-16304D02*
X73950Y2593D01*
X58989Y2684D01*
X58875Y-16213D01*
X73836Y-16304D01*
G01X59084Y30073D02*
G02X64295Y9202I-39309J-20901D01*
G01X72335Y6744D01*
X76228Y8814D01*
G03X69620Y35674I-56463J352D01*
M02*
