G04 ================== begin FILE IDENTIFICATION RECORD ==================*
G04 Layout Name:  D:/project/ca100/hardware/temprature/sensor.brd*
G04 Film Name:    SILK_TOP*
G04 File Format:  Gerber RS274X*
G04 File Origin:  Cadence Allegro 16.3-p003*
G04 Origin Date:  Thu Sep 13 12:57:18 2012*
G04 *
G04 Layer:  REF DES/SILKSCREEN_TOP*
G04 Layer:  PACKAGE GEOMETRY/SILKSCREEN_TOP*
G04 Layer:  BOARD GEOMETRY/SILKSCREEN_TOP*
G04 Layer:  BOARD GEOMETRY/OUTLINE*
G04 *
G04 Offset:    (0.000 0.000)*
G04 Mirror:    No*
G04 Mode:      Positive*
G04 Rotation:  0*
G04 FullContactRelief:  No*
G04 UndefLineWidth:     8.000*
G04 ================== end FILE IDENTIFICATION RECORD ====================*
%FSLAX55Y55*MOIN*%
%IR0*IPPOS*OFA0.00000B0.00000*MIA0B0*SFA1.00000B1.00000*%
%ADD10C,.008*%
G75*
%LPD*%
G75*
G36*
G01X9581Y-7183D02*
G03I-1113J0D01*
G37*
G54D10*
G01X-30779Y174D02*
X-33879D01*
Y940D01*
X-33724Y1247D01*
X-33517Y1477D01*
X-33207Y1669D01*
X-32846Y1822D01*
X-32329Y1860D01*
X-31812Y1822D01*
X-31451Y1669D01*
X-31141Y1477D01*
X-30934Y1247D01*
X-30779Y940D01*
Y174D01*
G01X-33362Y3389D02*
X-33672Y3619D01*
X-33827Y3887D01*
X-33879Y4194D01*
X-33776Y4577D01*
X-33517Y4845D01*
X-33207Y4922D01*
X-32897Y4884D01*
X-32639Y4730D01*
X-32122Y3964D01*
X-31761Y3619D01*
X-31244Y3389D01*
X-30779Y3312D01*
Y4922D01*
G01X3763Y14328D02*
Y-15974D01*
X40778D01*
Y14328D01*
X3763D01*
G01X25624Y-10546D02*
X28124D01*
Y-11080D01*
X27999Y-11293D01*
X27832Y-11453D01*
X27582Y-11586D01*
X27291Y-11693D01*
X26874Y-11720D01*
X26457Y-11693D01*
X26166Y-11586D01*
X25916Y-11453D01*
X25749Y-11293D01*
X25624Y-11080D01*
Y-10546D01*
G01X27707Y-12826D02*
X27957Y-12986D01*
X28082Y-13173D01*
X28124Y-13386D01*
X28041Y-13653D01*
X27832Y-13840D01*
X27582Y-13893D01*
X27332Y-13866D01*
X27124Y-13760D01*
X26707Y-13226D01*
X26416Y-12986D01*
X25999Y-12826D01*
X25624Y-12773D01*
Y-13893D01*
G01X6499Y-8364D02*
X25396Y-8363D01*
X25396Y6597D01*
X6498Y6597D01*
X6499Y-8364D01*
G01X28618Y-13113D02*
X38618D01*
Y11887D01*
X28618D01*
Y-13113D01*
G01X28144Y9108D02*
X25644Y10228D01*
G01Y9108D02*
X28144Y10228D01*
G01Y11868D02*
X25644D01*
X26144Y11548D01*
G01X28144D02*
Y12188D01*
M02*
