G04 ================== begin FILE IDENTIFICATION RECORD ==================*
G04 Layout Name:  D:/project/ca100/hardware/temprature/sensor.brd*
G04 Film Name:    SILK_BOT*
G04 File Format:  Gerber RS274X*
G04 File Origin:  Cadence Allegro 16.3-p003*
G04 Origin Date:  Thu Sep 13 12:57:18 2012*
G04 *
G04 Layer:  REF DES/SILKSCREEN_BOTTOM*
G04 Layer:  PACKAGE GEOMETRY/SILKSCREEN_BOTTOM*
G04 Layer:  BOARD GEOMETRY/SILKSCREEN_BOTTOM*
G04 Layer:  BOARD GEOMETRY/OUTLINE*
G04 *
G04 Offset:    (0.000 0.000)*
G04 Mirror:    No*
G04 Mode:      Positive*
G04 Rotation:  0*
G04 FullContactRelief:  No*
G04 UndefLineWidth:     8.000*
G04 ================== end FILE IDENTIFICATION RECORD ====================*
%FSLAX55Y55*MOIN*%
%IR0*IPPOS*OFA0.00000B0.00000*MIA0B0*SFA1.00000B1.00000*%
%ADD10C,.002*%
%ADD11C,.008*%
G75*
%LPD*%
G75*
G54D10*
G01X27353Y-803D02*
X16353D01*
Y-5803D01*
X26853D01*
X27353Y-5303D01*
Y-803D01*
G01X15465D02*
X4465D01*
Y-5803D01*
X14965D01*
X15465Y-5303D01*
Y-803D01*
G01X6389Y6947D02*
X17389D01*
Y11947D01*
X6889D01*
X6389Y11447D01*
Y6947D01*
G01X27265Y5548D02*
X16265D01*
Y548D01*
X26765D01*
X27265Y1048D01*
Y5548D01*
G01X15416D02*
X4416D01*
Y548D01*
X14916D01*
X15416Y1048D01*
Y5548D01*
G54D11*
G01X3763Y14328D02*
Y-15974D01*
X40778D01*
Y14328D01*
X3763D01*
G01X21357Y10740D02*
X21517Y10865D01*
X21704Y10948D01*
X21917D01*
X22157Y10823D01*
X22344Y10615D01*
X22477Y10365D01*
X22584Y9948D01*
X22611Y9573D01*
X22557Y9198D01*
X22477Y8948D01*
X22317Y8698D01*
X22131Y8531D01*
X21944Y8448D01*
X21757D01*
X21571Y8531D01*
X21411Y8656D01*
X21277Y8823D01*
G01X19797Y8448D02*
X19744Y8990D01*
X19664Y9448D01*
X19557Y9865D01*
X19424Y10323D01*
X19211Y10948D01*
X20277D01*
G01X40298Y-4573D02*
Y-2073D01*
X39632D01*
X39418Y-2198D01*
X39285Y-2365D01*
X39232Y-2698D01*
X39285Y-3031D01*
X39445Y-3240D01*
X39632Y-3365D01*
X40298D01*
G01X39632D02*
X39232Y-4573D01*
G01X37565D02*
X37378Y-4531D01*
X37165Y-4406D01*
X37032Y-4198D01*
X36978Y-3906D01*
X37032Y-3615D01*
X37192Y-3365D01*
X37432Y-3240D01*
X37698D01*
X37858Y-3156D01*
X37992Y-2948D01*
X38045Y-2656D01*
X37965Y-2365D01*
X37778Y-2156D01*
X37565Y-2073D01*
X37352Y-2156D01*
X37165Y-2365D01*
X37085Y-2656D01*
X37138Y-2948D01*
X37272Y-3156D01*
X37432Y-3240D01*
X37698D01*
X37938Y-3365D01*
X38098Y-3615D01*
X38152Y-3906D01*
X38098Y-4198D01*
X37965Y-4406D01*
X37752Y-4531D01*
X37565Y-4573D01*
G01X30758Y-4453D02*
Y-1953D01*
X30092D01*
X29878Y-2078D01*
X29745Y-2245D01*
X29692Y-2578D01*
X29745Y-2911D01*
X29905Y-3120D01*
X30092Y-3245D01*
X30758D01*
G01X30092D02*
X29692Y-4453D01*
G01X28478Y-4161D02*
X28292Y-4370D01*
X28078Y-4453D01*
X27865Y-4370D01*
X27678Y-4120D01*
X27545Y-3745D01*
X27492Y-3370D01*
Y-2911D01*
X27545Y-2536D01*
X27678Y-2203D01*
X27838Y-2036D01*
X28025Y-1953D01*
X28238Y-2036D01*
X28398Y-2203D01*
X28505Y-2453D01*
X28558Y-2786D01*
X28505Y-3078D01*
X28372Y-3370D01*
X28212Y-3536D01*
X28025Y-3578D01*
X27812Y-3495D01*
X27652Y-3286D01*
X27492Y-2911D01*
G01X40298Y1787D02*
Y4287D01*
X39632D01*
X39418Y4162D01*
X39285Y3995D01*
X39232Y3662D01*
X39285Y3329D01*
X39445Y3120D01*
X39632Y2995D01*
X40298D01*
G01X39632D02*
X39232Y1787D01*
G01X38072Y2829D02*
X37885Y3120D01*
X37725Y3287D01*
X37512Y3370D01*
X37325Y3287D01*
X37192Y3120D01*
X37085Y2870D01*
X37058Y2579D01*
X37085Y2329D01*
X37192Y2079D01*
X37352Y1870D01*
X37538Y1787D01*
X37752Y1870D01*
X37938Y2120D01*
X38045Y2495D01*
X38072Y2912D01*
X38018Y3454D01*
X37938Y3745D01*
X37805Y4037D01*
X37618Y4245D01*
X37432Y4287D01*
X37245Y4204D01*
X37112Y3995D01*
G01X30698Y1967D02*
Y4467D01*
X30032D01*
X29818Y4342D01*
X29685Y4175D01*
X29632Y3842D01*
X29685Y3509D01*
X29845Y3300D01*
X30032Y3175D01*
X30698D01*
G01X30032D02*
X29632Y1967D01*
G01X28018D02*
X27965Y2509D01*
X27885Y2967D01*
X27778Y3384D01*
X27645Y3842D01*
X27432Y4467D01*
X28498D01*
M02*
