G04 ================== begin FILE IDENTIFICATION RECORD ==================*
G04 Layout Name:  D:/project/ca100/hardware/temprature/sensor.brd*
G04 Film Name:    TOP*
G04 File Format:  Gerber RS274X*
G04 File Origin:  Cadence Allegro 16.3-p003*
G04 Origin Date:  Thu Sep 13 12:57:18 2012*
G04 *
G04 Layer:  BOARD GEOMETRY/OUTLINE*
G04 Layer:  ETCH/TOP*
G04 Layer:  PIN/TOP*
G04 Layer:  VIA CLASS/TOP*
G04 *
G04 Offset:    (0.000 0.000)*
G04 Mirror:    No*
G04 Mode:      Positive*
G04 Rotation:  0*
G04 FullContactRelief:  No*
G04 UndefLineWidth:     8.000*
G04 ================== end FILE IDENTIFICATION RECORD ====================*
%FSLAX55Y55*MOIN*%
%IR0*IPPOS*OFA0.00000B0.00000*MIA0B0*SFA1.00000B1.00000*%
%ADD11C,.02*%
%ADD10R,.023622X.05*%
%ADD12C,.03937*%
%ADD13C,.006*%
%ADD14C,.008*%
%ADD15R,.033626X.060004*%
G75*
%LPD*%
G75*
G36*
G01X3754Y-15803D02*
Y14098D01*
G02X3954Y14298I200J0D01*
G01X40578D01*
G02X40778Y14098I0J-200D01*
G01Y-15803D01*
G02X40578Y-16003I-200J0D01*
G01X27967D01*
G02X27684Y-15320I0J400D01*
G01X32458Y-10546D01*
G02X32673Y-10502I141J-141D01*
G03X35003Y-5950I945J2389D01*
G02Y-5276I216J337D01*
G03X34921Y-899I-1385J2163D01*
G02X34914Y-214I203J345D01*
G03Y3988I-1296J2101D01*
G02X34921Y4673I210J340D01*
G03X32315I-1303J2214D01*
G02X32322Y3988I-203J-345D01*
G03Y-214I1296J-2101D01*
G02X32315Y-899I-210J-340D01*
G03X31230Y-4058I1303J-2214D01*
G01X31252Y-4114D01*
X31227Y-4231D01*
X28971Y-6487D01*
X23752D01*
X23637Y-6381D01*
X23631Y-6302D01*
G03X23103Y-5236I-1595J-126D01*
G01X23071Y-5207D01*
X23036Y-5130D01*
Y-4943D01*
X24467Y-3512D01*
Y7293D01*
G02X24667Y7493I200J0D01*
G01X25248D01*
Y13693D01*
X21686D01*
Y7493D01*
X22267D01*
G02X22467Y7293I0J-200D01*
G01Y-2683D01*
X21036Y-4114D01*
Y-5087D01*
G02X20969Y-5236I-200J0D01*
G03X20441Y-6302I1067J-1193D01*
G01X20435Y-6381D01*
X20320Y-6487D01*
X9314D01*
X7567Y-8234D01*
Y-8607D01*
G02X7367Y-8807I-200J0D01*
G01X6686D01*
Y-15007D01*
X10248D01*
Y-8807D01*
X10023D01*
G02X9882Y-8465I0J200D01*
G01X10060Y-8287D01*
X19934D01*
X20113Y-8465D01*
G02X19971Y-8807I-141J-141D01*
G01X16686D01*
Y-14207D01*
G02X16486Y-14407I-200J0D01*
G01X15921D01*
X15249Y-13734D01*
Y-8807D01*
X11686D01*
Y-15007D01*
X13975D01*
X14289Y-15320D01*
G02X14006Y-16003I-283J-283D01*
G01X3954D01*
G02X3754Y-15803I0J200D01*
G37*
G36*
G01X20249Y-14207D02*
Y-9567D01*
G02X20862Y-9229I400J0D01*
G01X21486D01*
G02X21686Y-9429I0J-200D01*
G01Y-14207D01*
G02X21486Y-14407I-200J0D01*
G01X20449D01*
G02X20249Y-14207I0J200D01*
G37*
G36*
G01X27744Y-11781D02*
G03X25749Y-10358I-1595J-126D01*
G02X25248Y-9970I-100J387D01*
G01Y-8807D01*
X24101D01*
G02X23959Y-8465I0J200D01*
G01X24138Y-8287D01*
X29717D01*
X30373Y-7631D01*
G02X31055Y-7941I283J-283D01*
G03X31230Y-9058I2563J-172D01*
G01X31252Y-9114D01*
X31227Y-9231D01*
X28425Y-12033D01*
G02X27744Y-11781I-283J283D01*
G37*
%LPC*%
G75*
G36*
G01X20249Y13693D02*
Y7154D01*
X20261Y7120D01*
G02X17224Y6985I-1497J-566D01*
G03X16838Y7493I-385J108D01*
G01X16686D01*
Y13693D01*
X20249D01*
G37*
G54D15*
X8467Y10593D03*
X13467D03*
%LPD*%
G75*
G54D10*
X23467Y-11907D03*
X18467D03*
X13467D03*
X8467D03*
Y10593D03*
X13467D03*
X18467D03*
X23467D03*
G54D11*
X26148Y-11907D03*
X22036Y-6428D03*
X5115Y10593D03*
X18765Y6554D03*
G54D12*
X33618Y1887D03*
Y-3113D03*
Y-8113D03*
Y6887D03*
G54D13*
G01Y-8113D02*
X26424Y-15307D01*
X15548D01*
X13467Y-13226D01*
Y-11907D01*
G01X8467D02*
Y-8607D01*
X9687Y-7387D01*
X20307D01*
X21249Y-8328D01*
X22823D01*
X23765Y-7387D01*
X29344D01*
X33618Y-3113D01*
G01X13467Y7393D02*
Y10593D01*
G01D02*
Y13793D01*
G01Y10593D02*
X15349D01*
G01X8467Y7393D02*
Y10593D01*
G01D02*
Y13793D01*
G01X30949Y1887D02*
X33618D01*
G01D02*
X36287D01*
G54D14*
G01X23467Y-11907D02*
X26148D01*
G01X22036Y-6428D02*
Y-4528D01*
X23467Y-3097D01*
Y10593D01*
G01X13467D02*
X8467D01*
G01D02*
X5115D01*
G01X18765Y6554D02*
Y10296D01*
X18467Y10593D01*
G01X3763Y14328D02*
Y-15974D01*
X40778D01*
Y14328D01*
X3763D01*
M02*
