G04 ================== begin FILE IDENTIFICATION RECORD ==================*
G04 Layout Name:  D:/project/ca100/hardware/sensor/v4/sensor.brd*
G04 Film Name:    BOTTOM*
G04 File Format:  Gerber RS274X*
G04 File Origin:  Cadence Allegro 16.3-p003*
G04 Origin Date:  Fri Jul 06 13:33:22 2012*
G04 *
G04 Layer:  VIA CLASS/BOTTOM*
G04 Layer:  BOARD GEOMETRY/OUTLINE*
G04 Layer:  ETCH/BOTTOM*
G04 Layer:  PIN/BOTTOM*
G04 *
G04 Offset:    (0.000 0.000)*
G04 Mirror:    No*
G04 Mode:      Positive*
G04 Rotation:  0*
G04 FullContactRelief:  No*
G04 UndefLineWidth:     8.000*
G04 ================== end FILE IDENTIFICATION RECORD ====================*
%FSLAX55Y55*MOIN*%
%IR0*IPPOS*OFA0.00000B0.00000*MIA0B0*SFA1.00000B1.00000*%
%ADD10C,.15748*%
%ADD11C,.137795*%
%ADD12C,.02*%
%ADD13C,.069*%
%ADD14C,.008*%
%ADD15C,.1538*%
%ADD18C,.173484*%
%ADD16C,.085004*%
%ADD17C,.079004*%
G75*
%LPD*%
G75*
G36*
G01X61444Y-49240D02*
G02X-78046Y-10429I-61444J49240D01*
G02X-77650Y-9976I396J53D01*
G01X-55472D01*
G02X-55272Y-10176I0J-200D01*
G01Y-18463D01*
X-40739Y-32997D01*
X-9716D01*
G02X-9516Y-33197I0J-200D01*
G01Y-34574D01*
X-6056Y-38034D01*
X19414D01*
X26029Y-31419D01*
X43875D01*
X61430Y-48974D01*
G02X61444Y-49240I-141J-141D01*
G37*
G36*
G01X-38093Y50642D02*
G03X-40858Y53407I4593J7358D01*
G02X-40886Y53159I-170J-106D01*
G01X-44391Y49655D01*
Y28080D01*
X-44363Y28052D01*
Y27224D01*
X-44391Y27195D01*
Y12896D01*
X-38858Y7363D01*
G02X-38890Y6768I-283J-283D01*
G03X-40823Y-4593I5426J-6768D01*
G01X-40786Y-4653D01*
X-40802Y-4791D01*
X-48438Y-12428D01*
Y-20235D01*
G02X-49121Y-20518I-400J0D01*
G01X-51750Y-17889D01*
G02Y-17606I141J141D01*
G01X-51607Y-17464D01*
Y-9114D01*
X-53626Y-7095D01*
X-60875D01*
G02X-61145Y-6400I0J400D01*
G03X-72855I-5855J6400D01*
G02X-73125Y-7095I-270J-295D01*
G01X-78237D01*
G02X-78436Y-6913I0J200D01*
G02X64099Y-45731I78436J6913D01*
G02X63490Y-45782I-326J232D01*
G01X59540Y-41831D01*
G02X59782Y-41150I283J283D01*
G03X51350Y-32718I-782J7650D01*
G02X50669Y-32961I-398J41D01*
G01X46540Y-28832D01*
X24941D01*
X17317Y-36456D01*
X-1235D01*
X-7428Y-30262D01*
X-17036D01*
G02X-17329Y-29589I0J400D01*
G03X-16774Y-18388I-6333J5928D01*
G02X-16457Y-17745I318J243D01*
G01X-4547D01*
X-4484Y-17682D01*
X-2430D01*
G03Y-14082I0J1800D01*
G01X-5976D01*
X-6039Y-14144D01*
X-15424D01*
X-19926Y-9642D01*
X-36727D01*
X-39023Y-11938D01*
G03X-36477Y-14483I1273J-1273D01*
G01X-35236Y-13243D01*
X-21418D01*
X-19472Y-15188D01*
G02X-19927Y-15832I-283J-283D01*
G03X-29994Y-29589I-3734J-7829D01*
G02X-30286Y-30262I-292J-273D01*
G01X-39376D01*
X-45200Y-24438D01*
G02X-45217Y-24174I141J141D01*
G03X-44838Y-23069I-1421J1105D01*
G01Y-13919D01*
X-38305Y-7386D01*
G02X-38058Y-7358I141J-141D01*
G03X-26106Y4593I4593J7358D01*
G01X-26143Y4653D01*
X-26128Y4791D01*
X-24957Y5961D01*
X-21363D01*
X-16539Y10786D01*
X-10374D01*
X-5752Y15408D01*
G02X-5469I141J-141D01*
G01X6173Y3766D01*
X9771D01*
G03Y7367I0J1800D01*
G01X7664D01*
X-3314Y18344D01*
G03X-5077Y18804I-1273J-1273D01*
G02X-5586Y19188I-109J385D01*
G01Y20729D01*
X2694Y29009D01*
G03X148Y31555I-1273J1273D01*
G01X-4622Y26785D01*
G02X-5305Y27068I-283J283D01*
G01Y29596D01*
G03X-8905I-1800J0D01*
G01Y27842D01*
X-11987Y24760D01*
Y18225D01*
X-13552Y16659D01*
G03X-14011Y14895I1273J-1273D01*
G02X-14396Y14386I-385J-109D01*
G01X-18030D01*
X-22854Y9562D01*
X-26449D01*
X-28624Y7386D01*
G02X-28871Y7358I-141J141D01*
G03X-34849Y8563I-4593J-7358D01*
G01X-34897Y8555D01*
X-34988Y8585D01*
X-38377Y11973D01*
G02X-38170Y12649I283J283D01*
G03X-36714Y14416I-344J1767D01*
G01Y23735D01*
X-27910Y32539D01*
X-26897D01*
G02X-26755Y31765I0J-400D01*
G03X-22390Y32242I3093J-8104D01*
G02X-22585Y32947I59J396D01*
G03X-23726Y36139I-1141J1392D01*
G01X-29401D01*
X-40314Y25226D01*
Y14416D01*
G03X-40314Y14396I2000J0D01*
G01X-40314Y14355D01*
X-40344Y14281D01*
X-40373Y14252D01*
G02X-40656I-141J141D01*
G01X-40791Y14387D01*
Y25704D01*
X-40762Y25732D01*
Y29543D01*
X-40791Y29572D01*
Y48164D01*
X-38291Y50663D01*
X-38153Y50679D01*
X-38093Y50642D01*
G37*
%LPC*%
G75*
G36*
G01X-30459Y-46220D02*
X-22991D01*
G02Y-49820I0J-1800D01*
G01X-28968D01*
X-29538Y-50390D01*
G02X-32084Y-47845I-1273J1273D01*
G01X-30459Y-46220D01*
G37*
G36*
G01X-7580Y-61311D02*
G03X-7610Y-60913I-30J198D01*
G01X-7925D01*
X-12256Y-56583D01*
G02X-9710Y-54037I1273J1273D01*
G01X-6433Y-57313D01*
X-3283D01*
X58Y-60654D01*
G02X-2488Y-63199I-1273J-1273D01*
G01X-4716Y-60972D01*
G03X-4857Y-60913I-141J-141D01*
G01X-4952D01*
G03X-5124Y-61674I0J-400D01*
G02X-7580Y-61311I-1823J-3839D01*
G37*
G36*
G01X-47647Y-2966D02*
X-49942Y-5262D01*
G02X-52488Y-2716I-1273J1273D01*
G01X-51247Y-1475D01*
Y-819D01*
X-51065Y-636D01*
Y26578D01*
X-50109Y27533D01*
Y29287D01*
G02X-46509I1800J0D01*
G01Y26042D01*
X-47464Y25086D01*
Y-2128D01*
X-47647Y-2310D01*
Y-2966D01*
G37*
G36*
G01X57260Y31113D02*
G03X57119Y30922I59J-191D01*
G01Y30839D01*
X57236Y30722D01*
X57851D01*
X60236Y28338D01*
X60346Y28312D01*
X60400Y28329D01*
G02X57698Y25628I1334J-4036D01*
G01X57716Y25682D01*
X57690Y25792D01*
X56360Y27122D01*
X43436D01*
X38535Y22220D01*
G03X38817Y21537I283J-283D01*
G01X42581D01*
G02Y17937I0J-1800D01*
G01X38211D01*
X17571Y-2703D01*
X17208D01*
X15968Y-3944D01*
G02X13422Y-1398I-1273J1273D01*
G01X15717Y897D01*
X16080D01*
X28912Y13730D01*
G03X28629Y14413I-283J283D01*
G01X9911D01*
G02Y18013I0J1800D01*
G01X29236D01*
X41945Y30722D01*
X53924D01*
G03X54124Y31469I0J400D01*
G02X57260Y31113I1976J3421D01*
G37*
G54D15*
X-58500Y-34000D03*
X0Y68000D03*
G54D18*
X33465Y0D03*
X33500Y58000D03*
G54D16*
X-18947Y-63514D03*
X5053Y-65514D03*
X48700Y44546D03*
X65601Y12760D03*
G54D17*
X17053Y-63514D03*
%LPD*%
G75*
G54D10*
X-67000Y0D03*
X-23661Y-23661D03*
X-33465Y0D03*
X-23661Y23661D03*
X-33500Y58000D03*
X33465Y0D03*
X33500Y58000D03*
G54D11*
X-58500Y-34000D03*
X0Y68000D03*
X59000Y-33500D03*
G54D12*
G01X-51215Y-3989D02*
X-49447Y-2221D01*
Y-1564D01*
X-49265Y-1382D01*
Y25832D01*
X-48309Y26787D01*
Y29287D01*
G01X-22991Y-48020D02*
X-29714D01*
X-30811Y-49118D01*
G01X-33500Y58000D02*
X-42591Y48909D01*
Y28826D01*
X-42562Y28798D01*
Y26478D01*
X-42591Y26450D01*
Y13642D01*
X-33465Y4515D01*
Y0D01*
G01X-46638Y-23069D02*
Y-13174D01*
X-33465Y0D01*
G01D02*
X-25703Y7762D01*
X-22109D01*
X-17284Y12586D01*
X-11120D01*
X-7386Y16319D01*
Y21475D01*
X1421Y30282D01*
G01X-2430Y-15882D02*
X-5230D01*
X-5293Y-15945D01*
X-16170D01*
X-20672Y-11443D01*
X-35982D01*
X-37750Y-13210D01*
G01X-38514Y14416D02*
Y24480D01*
X-28655Y34339D01*
X-23726D01*
G01X-10983Y-55310D02*
X-7179Y-59113D01*
X-4028D01*
X-1215Y-61926D01*
G01X-4586Y17072D02*
X6919Y5566D01*
X9771D01*
G01X-12279Y15386D02*
X-10186Y17479D01*
Y24015D01*
X-7105Y27096D01*
Y29596D01*
G01X42581Y19737D02*
X37465D01*
X16825Y-903D01*
X16463D01*
X14695Y-2671D01*
G01X9911Y16213D02*
X29981D01*
X42690Y28922D01*
X57105D01*
X61733Y24294D01*
X-51215Y-3989D03*
X-72040Y-14220D03*
X-69813Y11906D03*
X-48309Y29287D03*
X-47895Y53910D03*
X-30811Y-49118D03*
X-22991Y-48020D03*
X-37235Y-56056D03*
X-46638Y-23069D03*
X-37750Y-13210D03*
X-38514Y14416D03*
X-45362Y27638D03*
X-23726Y34339D03*
X-10983Y-55310D03*
X-1215Y-61926D03*
X-3228Y-56313D03*
X-8291Y-39406D03*
X-2430Y-15882D03*
X-39Y4968D03*
X-4586Y17072D03*
X-12279Y15386D03*
X-10443Y31540D03*
X-22470Y48588D03*
X-7105Y29596D03*
X1421Y30282D03*
X3681Y-56667D03*
X6348Y-29804D03*
X20129Y-29910D03*
X21893Y-43943D03*
X14695Y-2671D03*
X9771Y5566D03*
X9911Y16213D03*
X16378Y30498D03*
X9911Y30419D03*
X28175Y-47158D03*
X50809Y14225D03*
X42581Y19737D03*
X54259Y-54222D03*
X68929Y1960D03*
X70642Y-13720D03*
G54D13*
X-6947Y-65514D03*
X-18947Y-63514D03*
X17053D03*
X5053Y-65514D03*
X48700Y44546D03*
X56100Y34889D03*
X61733Y24294D03*
X65601Y12760D03*
G54D14*
G01X17053Y-67664D02*
Y-63514D01*
G01D02*
Y-59364D01*
G01X12903Y-63514D02*
X17053D01*
G01D02*
X21203D01*
G01X56100Y34889D02*
Y39040D01*
G01X51950Y34889D02*
X56100D01*
G01D02*
X60250D01*
G01X82677Y0D02*
G03I-82677J0D01*
M02*
