G04 ================== begin FILE IDENTIFICATION RECORD ==================*
G04 Layout Name:  D:/project/ca100/hardware/sensor/v4/sensor.brd*
G04 Film Name:    SILK_TOP*
G04 File Format:  Gerber RS274X*
G04 File Origin:  Cadence Allegro 16.3-p003*
G04 Origin Date:  Fri Jul 06 13:33:22 2012*
G04 *
G04 Layer:  REF DES/SILKSCREEN_TOP*
G04 Layer:  PACKAGE GEOMETRY/SILKSCREEN_TOP*
G04 Layer:  BOARD GEOMETRY/SILKSCREEN_TOP*
G04 Layer:  BOARD GEOMETRY/OUTLINE*
G04 *
G04 Offset:    (0.000 0.000)*
G04 Mirror:    No*
G04 Mode:      Positive*
G04 Rotation:  0*
G04 FullContactRelief:  No*
G04 UndefLineWidth:     8.000*
G04 ================== end FILE IDENTIFICATION RECORD ====================*
%FSLAX55Y55*MOIN*%
%IR0*IPPOS*OFA0.00000B0.00000*MIA0B0*SFA1.00000B1.00000*%
%ADD10C,.006*%
%ADD11C,.012*%
%ADD12C,.008*%
G75*
%LPD*%
G75*
G36*
G01X-47377Y-46132D02*
G03I-1113J0D01*
G37*
G36*
G01X-42154Y17638D02*
G03I-1113J0D01*
G37*
G36*
G01X-13926Y-6457D02*
G03I-1113J0D01*
G37*
G36*
G01X20808Y6161D02*
G03I-1113J0D01*
G37*
G36*
G01X40711Y-37985D02*
G03I-1113J0D01*
G37*
G54D10*
G01X-53384Y-20756D02*
X-56308Y-11192D01*
X-75435Y-17040D01*
X-72511Y-26603D01*
X-53384Y-20756D01*
G01X-58553Y49006D02*
Y39006D01*
X-38553D01*
Y49006D01*
X-58553D01*
G01X-13396Y56968D02*
Y46968D01*
X6604D01*
Y56968D01*
X-13396D01*
G01X26565Y18228D02*
X36565D01*
Y38228D01*
X26565D01*
Y18228D01*
G01X47581Y29737D02*
X37581D01*
Y9737D01*
X47581D01*
Y29737D01*
G01X54125Y-11470D02*
X51705Y-21172D01*
X71111Y-26011D01*
X73531Y-16308D01*
X54125Y-11470D01*
G01X55853Y1175D02*
X54808Y-8770D01*
X74698Y-10861D01*
X75743Y-915D01*
X55853Y1175D01*
G54D11*
G01X-49949Y-17721D02*
Y-17221D01*
G01X-46009Y-23171D02*
X-38429D01*
G01X-46009Y-11751D02*
X-38429Y-11750D01*
G01Y-23200D02*
Y-21200D01*
G01Y-13721D02*
X-38428Y-11720D01*
G54D12*
G01X82677Y0D02*
G03I-82677J0D01*
G01X-50839Y-43513D02*
X-53106Y-41399D01*
X-52583Y-40838D01*
X-52261Y-40720D01*
X-51953Y-40692D01*
X-51595Y-40764D01*
X-51226Y-40898D01*
X-50822Y-41222D01*
X-50470Y-41603D01*
X-50310Y-41962D01*
X-50214Y-42313D01*
X-50220Y-42622D01*
X-50316Y-42952D01*
X-50839Y-43513D01*
G01X-50536Y-39400D02*
X-50605Y-39020D01*
X-50536Y-38718D01*
X-50364Y-38459D01*
X-50027Y-38249D01*
X-49655Y-38229D01*
X-49376Y-38384D01*
X-49176Y-38624D01*
X-49092Y-38912D01*
X-49236Y-39825D01*
X-49207Y-40324D01*
X-48986Y-40845D01*
X-48698Y-41218D01*
X-47600Y-40040D01*
G01X-50736Y-45653D02*
X-36915Y-58541D01*
X-26711Y-47599D01*
X-40533Y-34711D01*
X-50736Y-45653D01*
G01X-43644Y7272D02*
Y-3729D01*
X-49644Y-3728D01*
Y6272D01*
X-48644Y7272D01*
X-43644D01*
G01X-52939Y-7767D02*
X-53094Y-7997D01*
X-53198Y-8266D01*
Y-8572D01*
X-53042Y-8918D01*
X-52784Y-9186D01*
X-52474Y-9378D01*
X-51958Y-9531D01*
X-51493Y-9569D01*
X-51028Y-9492D01*
X-50718Y-9378D01*
X-50408Y-9148D01*
X-50201Y-8879D01*
X-50098Y-8611D01*
Y-8342D01*
X-50201Y-8074D01*
X-50356Y-7844D01*
X-50562Y-7652D01*
G01X-50459Y-6162D02*
X-50201Y-5894D01*
X-50098Y-5588D01*
X-50201Y-5281D01*
X-50511Y-5012D01*
X-50976Y-4821D01*
X-51441Y-4744D01*
X-52009D01*
X-52474Y-4821D01*
X-52888Y-5012D01*
X-53094Y-5242D01*
X-53198Y-5511D01*
X-53094Y-5818D01*
X-52888Y-6048D01*
X-52578Y-6201D01*
X-52164Y-6278D01*
X-51803Y-6201D01*
X-51441Y-6009D01*
X-51234Y-5779D01*
X-51183Y-5511D01*
X-51286Y-5204D01*
X-51544Y-4974D01*
X-52009Y-4744D01*
G01X-56263Y-3696D02*
Y7304D01*
X-50263D01*
Y-2696D01*
X-51263Y-3696D01*
X-56263D01*
G01X-68162Y-10635D02*
X-68427Y-10554D01*
X-68714Y-10534D01*
X-69007Y-10624D01*
X-69292Y-10873D01*
X-69473Y-11198D01*
X-69565Y-11551D01*
X-69561Y-12090D01*
X-69462Y-12546D01*
X-69252Y-12968D01*
X-69052Y-13231D01*
X-68741Y-13460D01*
X-68424Y-13579D01*
X-68137Y-13599D01*
X-67881Y-13521D01*
X-67654Y-13344D01*
X-67480Y-13128D01*
X-67357Y-12875D01*
G01X-66247Y-11671D02*
X-66096Y-11246D01*
X-65936Y-10982D01*
X-65673Y-10793D01*
X-65387Y-10813D01*
X-65143Y-10955D01*
X-64906Y-11207D01*
X-64763Y-11541D01*
X-64709Y-11849D01*
X-64765Y-12190D01*
X-64910Y-12505D01*
X-65136Y-12682D01*
X-65460Y-12673D01*
X-65807Y-12455D01*
X-66089Y-12055D01*
X-66277Y-11572D01*
X-66400Y-10907D01*
X-66396Y-10528D01*
X-66318Y-10126D01*
X-66137Y-9800D01*
X-65896Y-9672D01*
X-65609Y-9693D01*
X-65350Y-9884D01*
G01X-54341Y-21048D02*
X-57265Y-11485D01*
G01X-70344Y26836D02*
X-70499Y26606D01*
X-70602Y26338D01*
Y26031D01*
X-70447Y25686D01*
X-70189Y25418D01*
X-69879Y25226D01*
X-69362Y25073D01*
X-68897Y25035D01*
X-68432Y25111D01*
X-68122Y25226D01*
X-67812Y25456D01*
X-67606Y25725D01*
X-67502Y25993D01*
Y26261D01*
X-67606Y26530D01*
X-67761Y26760D01*
X-67967Y26951D01*
G01X-67502Y29093D02*
X-70602D01*
X-69982Y28633D01*
G01X-67502D02*
Y29553D01*
G01X-67967Y31350D02*
X-67709Y31580D01*
X-67554Y31848D01*
X-67502Y32193D01*
X-67606Y32538D01*
X-67812Y32806D01*
X-68174Y32998D01*
X-68587Y33036D01*
X-69001Y32960D01*
X-69259Y32768D01*
X-69466Y32500D01*
X-69517Y32231D01*
X-69466Y31963D01*
X-69259Y31618D01*
X-70602Y31733D01*
Y32768D01*
G01X-66813Y23906D02*
Y12906D01*
X-72813D01*
Y22906D01*
X-71813Y23906D01*
X-66813D01*
G01X-54572Y11466D02*
Y14566D01*
X-52809Y11466D01*
Y14566D01*
G01X-51434Y12086D02*
X-51204Y11724D01*
X-50898Y11518D01*
X-50552Y11466D01*
X-50246Y11518D01*
X-49939Y11776D01*
X-49748Y12086D01*
X-49709Y12396D01*
X-49786Y12758D01*
X-50054Y13016D01*
X-50322Y13119D01*
X-50668D01*
G01X-50322D02*
X-50093Y13274D01*
X-49901Y13533D01*
X-49824Y13843D01*
X-49901Y14153D01*
X-50093Y14411D01*
X-50438Y14566D01*
X-50782Y14514D01*
X-51128Y14308D01*
G01X-42087Y15669D02*
Y34567D01*
X-57047D01*
Y15669D01*
X-42087D01*
G01X-52995Y52724D02*
X-53224Y52879D01*
X-53493Y52982D01*
X-53799D01*
X-54145Y52827D01*
X-54413Y52569D01*
X-54604Y52259D01*
X-54758Y51742D01*
X-54796Y51277D01*
X-54720Y50812D01*
X-54604Y50502D01*
X-54374Y50192D01*
X-54106Y49985D01*
X-53838Y49882D01*
X-53570D01*
X-53301Y49985D01*
X-53071Y50140D01*
X-52879Y50347D01*
G01X-50738Y49882D02*
Y52982D01*
X-51198Y52362D01*
G01Y49882D02*
X-50278D01*
G01X-47178D02*
Y52982D01*
X-48596Y50760D01*
X-46679D01*
G01X-57553Y49006D02*
Y39006D01*
G01X-24636Y-54421D02*
X-27630Y-53619D01*
X-27382Y-52693D01*
X-27153Y-52437D01*
X-26904Y-52306D01*
X-26485Y-52339D01*
X-26105Y-52520D01*
X-25915Y-52809D01*
X-25835Y-53108D01*
X-26083Y-54034D01*
G01X-25835Y-53108D02*
X-24239Y-52940D01*
G01X-23635Y-50686D02*
X-26629Y-49884D01*
X-26150Y-50489D01*
G01X-23754Y-51131D02*
X-23516Y-50242D01*
G01X-23351Y-48228D02*
X-23032Y-48036D01*
X-22853Y-47766D01*
X-22873Y-47443D01*
X-23103Y-47104D01*
X-23503Y-46798D01*
X-23932Y-46604D01*
X-24481Y-46457D01*
X-24950Y-46411D01*
X-25399Y-46489D01*
X-25658Y-46657D01*
X-25827Y-46890D01*
X-25807Y-47213D01*
X-25667Y-47488D01*
X-25407Y-47717D01*
X-25027Y-47898D01*
X-24658Y-47917D01*
X-24259Y-47826D01*
X-24000Y-47657D01*
X-23881Y-47411D01*
X-23901Y-47088D01*
X-24091Y-46799D01*
X-24481Y-46457D01*
G01X-947Y-60797D02*
G02X-21821Y-55600I0J44520D01*
G01X-27766Y-61545D01*
Y-65955D01*
G03X-947Y-72730I26819J49689D01*
G01X-45431Y-29248D02*
X-42366Y-28182D01*
X-45498Y-27332D01*
G01X-42475Y-25084D02*
X-45573Y-25192D01*
X-44937Y-25630D01*
G01X-42458Y-25544D02*
X-42491Y-24624D01*
G01X-45060Y-9231D02*
X-48160D01*
Y-8272D01*
X-48005Y-7966D01*
X-47799Y-7774D01*
X-47385Y-7697D01*
X-46972Y-7774D01*
X-46714Y-8004D01*
X-46559Y-8272D01*
Y-9231D01*
G01Y-8272D02*
X-45060Y-7697D01*
G01X-47644Y-6092D02*
X-47954Y-5862D01*
X-48109Y-5594D01*
X-48160Y-5287D01*
X-48057Y-4904D01*
X-47799Y-4635D01*
X-47489Y-4559D01*
X-47179Y-4597D01*
X-46920Y-4751D01*
X-46404Y-5517D01*
X-46042Y-5862D01*
X-45525Y-6092D01*
X-45060Y-6169D01*
Y-4559D01*
G01X-35990Y37292D02*
X-36141Y37059D01*
X-36240Y36789D01*
X-36234Y36483D01*
X-36073Y36140D01*
X-35810Y35877D01*
X-35497Y35690D01*
X-34978Y35546D01*
X-34512Y35516D01*
X-34049Y35601D01*
X-33741Y35721D01*
X-33435Y35956D01*
X-33233Y36228D01*
X-33134Y36498D01*
X-33139Y36767D01*
X-33247Y37033D01*
X-33406Y37260D01*
X-33616Y37448D01*
G01X-33188Y39598D02*
X-36288Y39544D01*
X-35660Y39095D01*
G01X-33180Y39138D02*
X-33196Y40058D01*
G01X-32449Y35159D02*
Y46159D01*
X-26449D01*
Y36159D01*
X-27449Y35159D01*
X-32449D01*
G01X-25470Y35081D02*
Y46081D01*
X-19470D01*
Y36081D01*
X-20471Y35081D01*
X-25470D01*
G01X-14272Y-54461D02*
X-13122Y-43521D01*
X-7154Y-44148D01*
X-8200Y-54094D01*
X-9299Y-54984D01*
X-14272Y-54461D01*
G01X-228Y-44313D02*
Y-55313D01*
X-6229D01*
X-6228Y-45313D01*
X-5228Y-44313D01*
X-228D01*
G01X-22720Y-52476D02*
X-19872Y-41850D01*
X-14077Y-43404D01*
X-16665Y-53063D01*
X-17890Y-53770D01*
X-22720Y-52476D01*
G01X-963Y-60797D02*
G03X19911Y-55600I0J44520D01*
G01X25856Y-61545D01*
Y-65955D01*
G02X-963Y-72730I-26819J49689D01*
G01X-14334Y-29442D02*
X-14558Y-29279D01*
X-14822Y-29167D01*
X-15129Y-29156D01*
X-15479Y-29299D01*
X-15756Y-29548D01*
X-15959Y-29851D01*
X-16130Y-30362D01*
X-16185Y-30825D01*
X-16124Y-31292D01*
X-16020Y-31606D01*
X-15801Y-31924D01*
X-15540Y-32140D01*
X-15276Y-32253D01*
X-15007Y-32262D01*
X-14736Y-32168D01*
X-14500Y-32021D01*
X-14301Y-31822D01*
G01X-12254Y-32358D02*
X-12154Y-31690D01*
X-12019Y-31126D01*
X-11848Y-30615D01*
X-11636Y-30053D01*
X-11303Y-29290D01*
X-12835Y-29236D01*
G01X-21218Y-33604D02*
X-10219D01*
X-10218Y-39604D01*
X-20218Y-39605D01*
X-21218Y-38604D01*
Y-33604D01*
G01X-6217Y-33270D02*
X-9315Y-33378D01*
X-9348Y-32420D01*
X-9204Y-32109D01*
X-9004Y-31910D01*
X-8594Y-31819D01*
X-8178Y-31881D01*
X-7912Y-32102D01*
X-7748Y-32365D01*
X-7714Y-33322D01*
G01X-7748Y-32365D02*
X-6270Y-31738D01*
G01X-6352Y-29406D02*
X-9450Y-29514D01*
X-8814Y-29952D01*
G01X-6336Y-29866D02*
X-6368Y-28946D01*
G01X-4448Y-17250D02*
X-4640Y-28248D01*
X-10639Y-28143D01*
X-10465Y-18144D01*
X-9447Y-17162D01*
X-4448Y-17250D01*
G01X-7140Y-42626D02*
X-10183Y-42035D01*
X-10000Y-41094D01*
X-9789Y-40822D01*
X-9550Y-40674D01*
X-9129Y-40677D01*
X-8738Y-40831D01*
X-8529Y-41106D01*
X-8428Y-41400D01*
X-8610Y-42340D01*
G01X-8428Y-41400D02*
X-6847Y-41121D01*
G01X-7809Y-39299D02*
X-8113Y-38967D01*
X-8272Y-38701D01*
X-8314Y-38381D01*
X-8162Y-38137D01*
X-7922Y-37988D01*
X-7589Y-37897D01*
X-7226Y-37928D01*
X-6930Y-38025D01*
X-6654Y-38235D01*
X-6445Y-38510D01*
X-6395Y-38793D01*
X-6555Y-39074D01*
X-6910Y-39279D01*
X-7396Y-39340D01*
X-7910Y-39279D01*
X-8555Y-39076D01*
X-8888Y-38894D01*
X-9206Y-38637D01*
X-9409Y-38324D01*
X-9408Y-38051D01*
X-9256Y-37807D01*
X-8966Y-37668D01*
G01X-1755Y-42473D02*
X-4850Y-42635D01*
X-4901Y-41678D01*
X-4762Y-41364D01*
X-4566Y-41161D01*
X-4157Y-41063D01*
X-3740Y-41118D01*
X-3470Y-41334D01*
X-3301Y-41594D01*
X-3251Y-42551D01*
G01X-3301Y-41594D02*
X-1835Y-40941D01*
G01X-1953Y-38688D02*
X-2628Y-38646D01*
X-3201Y-38561D01*
X-3725Y-38435D01*
X-4303Y-38274D01*
X-5093Y-38008D01*
X-5013Y-39539D01*
G01X59Y-36720D02*
X-3041D01*
Y-35761D01*
X-2886Y-35454D01*
X-2680Y-35263D01*
X-2266Y-35186D01*
X-1853Y-35263D01*
X-1595Y-35493D01*
X-1440Y-35761D01*
Y-36720D01*
G01Y-35761D02*
X59Y-35186D01*
G01Y-32853D02*
X-3041D01*
X-2421Y-33313D01*
G01X59D02*
Y-32393D01*
G01X-3041Y-29753D02*
X-2938Y-30060D01*
X-2680Y-30289D01*
X-2370Y-30443D01*
X-1956Y-30558D01*
X-1491Y-30596D01*
X-1026Y-30558D01*
X-613Y-30443D01*
X-303Y-30289D01*
X-44Y-30060D01*
X59Y-29753D01*
X-44Y-29446D01*
X-303Y-29216D01*
X-613Y-29063D01*
X-1026Y-28948D01*
X-1491Y-28910D01*
X-1956Y-28948D01*
X-2370Y-29063D01*
X-2680Y-29216D01*
X-2938Y-29446D01*
X-3041Y-29753D01*
G01X-3591Y-28374D02*
Y-17374D01*
X2409Y-17374D01*
Y-27374D01*
X1409Y-28374D01*
X-3591D01*
G01X-762Y-18661D02*
Y-23661D01*
G01X-2218Y-18661D02*
X695D01*
G01X3070Y-23661D02*
Y-18661D01*
X4590D01*
X5096Y-18912D01*
X5476Y-19495D01*
X5603Y-20161D01*
X5476Y-20828D01*
X5160Y-21328D01*
X4590Y-21578D01*
X3070D01*
G01X8042Y-22912D02*
X8422Y-23328D01*
X8865Y-23578D01*
X9435Y-23661D01*
X10005Y-23495D01*
X10448Y-23162D01*
X10765Y-22578D01*
X10828Y-21912D01*
X10701Y-21245D01*
X10385Y-20828D01*
X9942Y-20495D01*
X9498Y-20412D01*
X9055Y-20495D01*
X8485Y-20828D01*
X8675Y-18661D01*
X10385D01*
G01X-18728Y-7552D02*
X-21828D01*
X-18728Y-5789D01*
X-21828D01*
G01X-18728Y-3570D02*
X-21828D01*
X-21208Y-4030D01*
G01X-18728D02*
Y-3110D01*
G01X-17008Y-7638D02*
X1890D01*
Y7323D01*
X-17008D01*
Y-7638D01*
G01X-13443Y17768D02*
Y28768D01*
X-7443D01*
Y18768D01*
X-8443Y17768D01*
X-13443D01*
G01X-6691Y17817D02*
Y28817D01*
X-691D01*
Y18817D01*
X-1691Y17817D01*
X-6691D01*
G01X140D02*
Y28817D01*
X6140D01*
Y18817D01*
X5140Y17817D01*
X140D01*
G01X-12074Y31267D02*
X-12229Y31036D01*
X-12333Y30768D01*
Y30462D01*
X-12178Y30116D01*
X-11919Y29848D01*
X-11609Y29657D01*
X-11093Y29503D01*
X-10628Y29465D01*
X-10163Y29542D01*
X-9853Y29657D01*
X-9543Y29886D01*
X-9336Y30155D01*
X-9233Y30423D01*
Y30692D01*
X-9336Y30960D01*
X-9491Y31190D01*
X-9698Y31382D01*
G01X-9233Y33523D02*
X-12333D01*
X-11713Y33063D01*
G01X-9233D02*
Y33983D01*
G01Y36623D02*
X-12333D01*
X-11713Y36163D01*
G01X-9233D02*
Y37083D01*
G01X-15700Y35879D02*
X-18800D01*
Y36837D01*
X-18644Y37144D01*
X-18438Y37336D01*
X-18025Y37412D01*
X-17611Y37336D01*
X-17353Y37106D01*
X-17198Y36837D01*
Y35879D01*
G01Y36837D02*
X-15700Y37412D01*
G01X-16320Y38902D02*
X-15958Y39132D01*
X-15751Y39439D01*
X-15700Y39784D01*
X-15751Y40091D01*
X-16010Y40397D01*
X-16320Y40589D01*
X-16630Y40627D01*
X-16991Y40551D01*
X-17250Y40282D01*
X-17353Y40014D01*
Y39669D01*
G01Y40014D02*
X-17508Y40244D01*
X-17766Y40436D01*
X-18076Y40512D01*
X-18386Y40436D01*
X-18644Y40244D01*
X-18800Y39899D01*
X-18748Y39554D01*
X-18541Y39209D01*
G01X-2473Y30126D02*
X-5571Y30018D01*
X-5605Y30976D01*
X-5460Y31288D01*
X-5261Y31486D01*
X-4850Y31577D01*
X-4434Y31515D01*
X-4168Y31294D01*
X-4004Y31032D01*
X-3971Y30074D01*
G01X-4004Y31032D02*
X-2527Y31658D01*
G01X-2624Y34450D02*
X-5722Y34342D01*
X-3452Y33002D01*
X-3519Y34918D01*
G01X-4388Y45904D02*
X6612D01*
Y39904D01*
X-3388D01*
X-4388Y40904D01*
Y45904D01*
G01X-12396Y56968D02*
Y46968D01*
G01X9032Y-55085D02*
X7691Y-44167D01*
X13646Y-43436D01*
X14865Y-53361D01*
X13994Y-54476D01*
X9032Y-55085D01*
G01X6681Y-44263D02*
X6681Y-55264D01*
X681D01*
Y-45264D01*
X1681Y-44264D01*
X6681Y-44263D01*
G01X17254Y-53991D02*
X14593Y-43318D01*
X20415Y-41866D01*
X22834Y-51569D01*
X22106Y-52782D01*
X17254Y-53991D01*
G01X24927Y-24722D02*
X25885Y-27822D01*
X26844Y-24722D01*
G01X28142Y-27202D02*
X28372Y-27564D01*
X28678Y-27770D01*
X29024Y-27822D01*
X29330Y-27770D01*
X29637Y-27512D01*
X29829Y-27202D01*
X29867Y-26892D01*
X29790Y-26531D01*
X29522Y-26272D01*
X29254Y-26169D01*
X28908D01*
G01X29254D02*
X29483Y-26014D01*
X29675Y-25756D01*
X29752Y-25446D01*
X29675Y-25136D01*
X29483Y-24877D01*
X29138Y-24722D01*
X28794Y-24774D01*
X28449Y-24981D01*
G01X13603Y-33623D02*
X10507Y-33461D01*
X10557Y-32504D01*
X10728Y-32206D01*
X10944Y-32025D01*
X11361Y-31970D01*
X11770Y-32068D01*
X12016Y-32312D01*
X12157Y-32588D01*
X12107Y-33545D01*
G01X12157Y-32588D02*
X13683Y-32092D01*
G01X13297Y-30580D02*
X13567Y-30364D01*
X13736Y-30104D01*
X13805Y-29762D01*
X13720Y-29412D01*
X13528Y-29133D01*
X13177Y-28923D01*
X12766Y-28863D01*
X12349Y-28918D01*
X12081Y-29096D01*
X11861Y-29353D01*
X11795Y-29618D01*
X11832Y-29889D01*
X12021Y-30244D01*
X10685Y-30059D01*
X10740Y-29025D01*
G01X10081Y-28226D02*
Y-17226D01*
X16081D01*
Y-27226D01*
X15081Y-28226D01*
X10081D01*
G01X11889Y-42256D02*
X8869Y-42954D01*
X8653Y-42020D01*
X8735Y-41686D01*
X8894Y-41453D01*
X9279Y-41285D01*
X9699Y-41267D01*
X10002Y-41433D01*
X10214Y-41660D01*
X10430Y-42593D01*
G01X10214Y-41660D02*
X11544Y-40762D01*
G01X11020Y-38489D02*
X10909Y-38239D01*
X10689Y-37975D01*
X10394Y-37846D01*
X10024Y-37853D01*
X9689Y-38009D01*
X9439Y-38303D01*
X9366Y-38674D01*
X9452Y-39048D01*
X9403Y-39295D01*
X9194Y-39540D01*
X8859Y-39696D01*
X8481Y-39665D01*
X8169Y-39462D01*
X7999Y-39186D01*
X8031Y-38864D01*
X8222Y-38545D01*
X8549Y-38351D01*
X8918Y-38345D01*
X9213Y-38473D01*
X9366Y-38674D01*
X9452Y-39048D01*
X9680Y-39349D01*
X10034Y-39503D01*
X10404Y-39497D01*
X10739Y-39340D01*
X10948Y-39096D01*
X11030Y-38762D01*
X11020Y-38489D01*
G01X5328Y-42247D02*
X2229Y-42355D01*
X2196Y-41397D01*
X2340Y-41085D01*
X2540Y-40887D01*
X2950Y-40796D01*
X3366Y-40858D01*
X3632Y-41079D01*
X3797Y-41341D01*
X3830Y-42299D01*
G01X3797Y-41341D02*
X5274Y-40714D01*
G01X4854Y-39046D02*
X5103Y-38769D01*
X5195Y-38459D01*
X5081Y-38156D01*
X4762Y-37899D01*
X4291Y-37724D01*
X3823Y-37663D01*
X3255Y-37683D01*
X2793Y-37776D01*
X2387Y-37982D01*
X2188Y-38219D01*
X2094Y-38491D01*
X2208Y-38794D01*
X2423Y-39016D01*
X2738Y-39159D01*
X3154Y-39221D01*
X3513Y-39132D01*
X3867Y-38927D01*
X4066Y-38690D01*
X4108Y-38420D01*
X3994Y-38118D01*
X3728Y-37897D01*
X3255Y-37683D01*
G01X18518Y-40710D02*
X15510Y-41460D01*
X15278Y-40530D01*
X15354Y-40195D01*
X15508Y-39959D01*
X15891Y-39784D01*
X16310Y-39759D01*
X16616Y-39919D01*
X16832Y-40142D01*
X17064Y-41072D01*
G01X16832Y-40142D02*
X18146Y-39222D01*
G01X15252Y-38289D02*
X14895Y-38141D01*
X14680Y-37918D01*
X14556Y-37633D01*
X14563Y-37236D01*
X14749Y-36914D01*
X15031Y-36764D01*
X15341Y-36726D01*
X15629Y-36813D01*
X16316Y-37432D01*
X16750Y-37679D01*
X17307Y-37777D01*
X17777Y-37739D01*
X17387Y-36177D01*
G01X13824Y-34700D02*
X13999Y-34972D01*
X14305Y-35133D01*
X14643Y-35207D01*
X15072Y-35218D01*
X15532Y-35143D01*
X15974Y-34993D01*
X16347Y-34782D01*
X16611Y-34558D01*
X16806Y-34272D01*
X16832Y-33950D01*
X16658Y-33677D01*
X16351Y-33517D01*
X16013Y-33443D01*
X15585Y-33431D01*
X15124Y-33506D01*
X14682Y-33656D01*
X14309Y-33868D01*
X14045Y-34092D01*
X13850Y-34377D01*
X13824Y-34700D01*
G01X23129Y-17266D02*
Y-28266D01*
X17129D01*
Y-18266D01*
X18129Y-17266D01*
X23129D01*
G01X5126Y-34894D02*
X4971Y-35124D01*
X4867Y-35392D01*
Y-35699D01*
X5023Y-36044D01*
X5281Y-36312D01*
X5591Y-36504D01*
X6107Y-36657D01*
X6572Y-36696D01*
X7037Y-36619D01*
X7347Y-36504D01*
X7658Y-36274D01*
X7864Y-36006D01*
X7967Y-35737D01*
Y-35469D01*
X7864Y-35200D01*
X7709Y-34970D01*
X7503Y-34779D01*
G01X7967Y-32637D02*
X4867D01*
X5487Y-33097D01*
G01X7967D02*
Y-32177D01*
G01X7347Y-30380D02*
X7709Y-30151D01*
X7916Y-29844D01*
X7967Y-29499D01*
X7916Y-29192D01*
X7658Y-28886D01*
X7347Y-28694D01*
X7037Y-28656D01*
X6676Y-28732D01*
X6417Y-29000D01*
X6314Y-29269D01*
Y-29614D01*
G01Y-29269D02*
X6159Y-29039D01*
X5901Y-28847D01*
X5591Y-28770D01*
X5281Y-28847D01*
X5023Y-29039D01*
X4867Y-29384D01*
X4919Y-29729D01*
X5126Y-30074D01*
G01X9348Y-17216D02*
Y-28216D01*
X3348D01*
Y-18216D01*
X4348Y-17216D01*
X9348D01*
G01X40496Y-35873D02*
X25208Y-46981D01*
X34001Y-59084D01*
X49290Y-47976D01*
X40496Y-35873D01*
G01X24796Y-22225D02*
X25103Y-22483D01*
X25448Y-22638D01*
X25754D01*
X26061Y-22483D01*
X26291Y-22225D01*
X26406Y-21863D01*
X26329Y-21501D01*
X26138Y-21191D01*
X25793Y-20985D01*
X25333Y-20881D01*
X25064Y-20675D01*
X24949Y-20313D01*
X25026Y-19951D01*
X25218Y-19693D01*
X25486Y-19538D01*
X25754D01*
X26023Y-19641D01*
X26253Y-19900D01*
G01X27858Y-22638D02*
Y-19538D01*
X28624D01*
X28931Y-19693D01*
X29161Y-19900D01*
X29353Y-20210D01*
X29506Y-20571D01*
X29544Y-21088D01*
X29506Y-21605D01*
X29353Y-21966D01*
X29161Y-22276D01*
X28931Y-22483D01*
X28624Y-22638D01*
X27858D01*
G01X31801D02*
Y-19538D01*
X31341Y-20158D01*
G01Y-22638D02*
X32261D01*
G01X34901Y-19538D02*
X34594Y-19641D01*
X34364Y-19900D01*
X34211Y-20210D01*
X34096Y-20623D01*
X34058Y-21088D01*
X34096Y-21553D01*
X34211Y-21966D01*
X34364Y-22276D01*
X34594Y-22535D01*
X34901Y-22638D01*
X35208Y-22535D01*
X35438Y-22276D01*
X35591Y-21966D01*
X35706Y-21553D01*
X35744Y-21088D01*
X35706Y-20623D01*
X35591Y-20210D01*
X35438Y-19900D01*
X35208Y-19641D01*
X34901Y-19538D01*
G01X38461Y-22638D02*
Y-19538D01*
X37043Y-21760D01*
X38959D01*
G01X40603Y-21605D02*
X41599D01*
G01X44201Y-19538D02*
X43894Y-19641D01*
X43664Y-19900D01*
X43511Y-20210D01*
X43396Y-20623D01*
X43358Y-21088D01*
X43396Y-21553D01*
X43511Y-21966D01*
X43664Y-22276D01*
X43894Y-22535D01*
X44201Y-22638D01*
X44508Y-22535D01*
X44738Y-22276D01*
X44891Y-21966D01*
X45006Y-21553D01*
X45044Y-21088D01*
X45006Y-20623D01*
X44891Y-20210D01*
X44738Y-19900D01*
X44508Y-19641D01*
X44201Y-19538D01*
G01X46458Y-22173D02*
X46688Y-22431D01*
X46956Y-22586D01*
X47301Y-22638D01*
X47646Y-22535D01*
X47914Y-22328D01*
X48106Y-21966D01*
X48144Y-21553D01*
X48068Y-21140D01*
X47876Y-20881D01*
X47608Y-20675D01*
X47339Y-20623D01*
X47071Y-20675D01*
X46726Y-20881D01*
X46841Y-19538D01*
X47876D01*
G01X21663Y7342D02*
X2766D01*
Y-7618D01*
X21663D01*
Y7342D01*
G01X6911Y17886D02*
Y28886D01*
X12911D01*
Y18886D01*
X11911Y17886D01*
X6911D01*
G01X19933Y18034D02*
Y29034D01*
X25933D01*
Y19034D01*
X24933Y18034D01*
X19933D01*
G01X13378Y17955D02*
Y28955D01*
X19378D01*
Y18955D01*
X18378Y17955D01*
X13378D01*
G01X26029Y7560D02*
X22929D01*
X26029Y9323D01*
X22929D01*
G01X23446Y10813D02*
X23136Y11043D01*
X22980Y11311D01*
X22929Y11618D01*
X23032Y12001D01*
X23290Y12270D01*
X23600Y12346D01*
X23910Y12308D01*
X24169Y12154D01*
X24686Y11388D01*
X25047Y11043D01*
X25564Y10813D01*
X26029Y10736D01*
Y12346D01*
G01X8507Y32020D02*
X8352Y31790D01*
X8248Y31522D01*
Y31216D01*
X8404Y30870D01*
X8662Y30602D01*
X8972Y30410D01*
X9488Y30257D01*
X9953Y30219D01*
X10418Y30295D01*
X10728Y30410D01*
X11039Y30640D01*
X11245Y30909D01*
X11348Y31177D01*
Y31446D01*
X11245Y31714D01*
X11090Y31944D01*
X10884Y32136D01*
G01X11348Y34277D02*
X8248D01*
X8868Y33817D01*
G01X11348D02*
Y34737D01*
G01X8248Y37377D02*
X8352Y37070D01*
X8610Y36840D01*
X8920Y36687D01*
X9334Y36572D01*
X9798Y36534D01*
X10263Y36572D01*
X10677Y36687D01*
X10987Y36840D01*
X11245Y37070D01*
X11348Y37377D01*
X11245Y37684D01*
X10987Y37914D01*
X10677Y38067D01*
X10263Y38182D01*
X9798Y38220D01*
X9334Y38182D01*
X8920Y38067D01*
X8610Y37914D01*
X8352Y37684D01*
X8248Y37377D01*
G01X23859Y30695D02*
X20761Y30586D01*
X20728Y31544D01*
X20872Y31856D01*
X21072Y32055D01*
X21482Y32146D01*
X21898Y32084D01*
X22164Y31863D01*
X22329Y31600D01*
X22362Y30642D01*
G01X22329Y31600D02*
X23806Y32227D01*
G01X23724Y34559D02*
X20626Y34451D01*
X21262Y34012D01*
G01X23740Y34099D02*
X23708Y35018D01*
G01X23616Y37657D02*
X20518Y37549D01*
X21154Y37111D01*
G01X23632Y37197D02*
X23600Y38117D01*
G01X4586Y30410D02*
X1486D01*
Y31369D01*
X1642Y31676D01*
X1848Y31867D01*
X2261Y31944D01*
X2675Y31867D01*
X2933Y31637D01*
X3088Y31369D01*
Y30410D01*
G01Y31369D02*
X4586Y31944D01*
G01Y34277D02*
X1486D01*
X2106Y33817D01*
G01X4586D02*
Y34737D01*
G01X2003Y36649D02*
X1693Y36879D01*
X1538Y37147D01*
X1486Y37454D01*
X1590Y37837D01*
X1848Y38106D01*
X2158Y38182D01*
X2468Y38144D01*
X2726Y37990D01*
X3243Y37224D01*
X3605Y36879D01*
X4122Y36649D01*
X4586Y36572D01*
Y38182D01*
G01X7998Y42264D02*
X7944Y45364D01*
X8902Y45380D01*
X9211Y45231D01*
X9407Y45028D01*
X9490Y44616D01*
X9421Y44201D01*
X9196Y43939D01*
X8930Y43779D01*
X7972Y43762D01*
G01X8930Y43779D02*
X9531Y42291D01*
G01X11864Y42332D02*
X11810Y45431D01*
X11361Y44803D01*
G01X11404Y42324D02*
X12324Y42340D01*
G01X14109Y42991D02*
X14346Y42633D01*
X14656Y42432D01*
X15002Y42386D01*
X15307Y42444D01*
X15610Y42707D01*
X15796Y43020D01*
X15829Y43331D01*
X15746Y43691D01*
X15473Y43945D01*
X15203Y44044D01*
X14858Y44038D01*
G01X15203Y44044D02*
X15430Y44203D01*
X15617Y44464D01*
X15688Y44776D01*
X15607Y45084D01*
X15410Y45339D01*
X15063Y45488D01*
X14719Y45430D01*
X14377Y45218D01*
G01X17479Y30517D02*
X14379D01*
Y31476D01*
X14535Y31782D01*
X14741Y31974D01*
X15154Y32051D01*
X15568Y31974D01*
X15826Y31744D01*
X15981Y31476D01*
Y30517D01*
G01Y31476D02*
X17479Y32051D01*
G01Y34384D02*
X14379D01*
X15000Y33924D01*
G01X17479D02*
Y34844D01*
G01Y37944D02*
X14379D01*
X16601Y36526D01*
Y38442D01*
G01X10418Y57719D02*
X10188Y57874D01*
X9919Y57978D01*
X9613D01*
X9268Y57822D01*
X8999Y57564D01*
X8808Y57254D01*
X8654Y56738D01*
X8616Y56273D01*
X8693Y55808D01*
X8808Y55498D01*
X9038Y55188D01*
X9306Y54981D01*
X9574Y54878D01*
X9843D01*
X10111Y54981D01*
X10341Y55136D01*
X10533Y55342D01*
G01X11946Y57461D02*
X12176Y57771D01*
X12444Y57926D01*
X12751Y57978D01*
X13134Y57874D01*
X13403Y57616D01*
X13479Y57306D01*
X13441Y56996D01*
X13288Y56738D01*
X12521Y56221D01*
X12176Y55859D01*
X11946Y55342D01*
X11869Y54878D01*
X13479D01*
G01X52558Y-41641D02*
X60335Y-49419D01*
X56093Y-53662D01*
X49022Y-46591D01*
Y-45176D01*
X52558Y-41641D01*
G01X48276Y-38847D02*
X45801Y-40713D01*
X45339Y-40100D01*
X45279Y-39762D01*
X45305Y-39454D01*
X45437Y-39115D01*
X45634Y-38774D01*
X46024Y-38433D01*
X46459Y-38153D01*
X46840Y-38057D01*
X47203Y-38024D01*
X47507Y-38083D01*
X47815Y-38235D01*
X48276Y-38847D01*
G01X45903Y-35698D02*
X43428Y-37564D01*
X44200Y-37558D01*
G01X46180Y-36065D02*
X45626Y-35330D01*
G01X47937Y-13454D02*
X47751Y-13248D01*
X47516Y-13083D01*
X47218Y-13009D01*
X46846Y-13076D01*
X46523Y-13261D01*
X46262Y-13516D01*
X45988Y-13980D01*
X45839Y-14422D01*
X45801Y-14892D01*
X45837Y-15220D01*
X45985Y-15577D01*
X46196Y-15842D01*
X46431Y-16007D01*
X46691Y-16072D01*
X46977Y-16037D01*
X47237Y-15942D01*
X47473Y-15788D01*
G01X48771Y-15952D02*
X48906Y-16358D01*
X49154Y-16633D01*
X49476Y-16766D01*
X49786Y-16791D01*
X50146Y-16614D01*
X50407Y-16360D01*
X50519Y-16068D01*
X50532Y-15699D01*
X50335Y-15383D01*
X50099Y-15218D01*
X49764Y-15134D01*
G01X50099Y-15218D02*
X50360Y-15123D01*
X50608Y-14919D01*
X50758Y-14637D01*
X50758Y-14317D01*
X50635Y-14020D01*
X50338Y-13786D01*
X49990Y-13753D01*
X49606Y-13870D01*
G01X50035Y-1606D02*
X49822Y-1428D01*
X49566Y-1297D01*
X49261Y-1265D01*
X48902Y-1383D01*
X48608Y-1612D01*
X48385Y-1900D01*
X48178Y-2398D01*
X48092Y-2857D01*
X48120Y-3327D01*
X48201Y-3647D01*
X48398Y-3980D01*
X48643Y-4213D01*
X48899Y-4344D01*
X49166Y-4372D01*
X49444Y-4297D01*
X49689Y-4167D01*
X49901Y-3982D01*
G01X52440Y-4716D02*
X52764Y-1633D01*
X51121Y-3694D01*
X53027Y-3895D01*
G01X29812Y13165D02*
X29657Y12935D01*
X29554Y12667D01*
Y12360D01*
X29709Y12015D01*
X29967Y11747D01*
X30277Y11555D01*
X30794Y11402D01*
X31259Y11364D01*
X31724Y11440D01*
X32034Y11555D01*
X32344Y11785D01*
X32550Y12054D01*
X32654Y12322D01*
Y12590D01*
X32550Y12859D01*
X32395Y13089D01*
X32189Y13280D01*
G01Y14579D02*
X32447Y14809D01*
X32602Y15077D01*
X32654Y15422D01*
X32550Y15767D01*
X32344Y16035D01*
X31982Y16227D01*
X31569Y16265D01*
X31155Y16189D01*
X30897Y15997D01*
X30690Y15729D01*
X30639Y15460D01*
X30690Y15192D01*
X30897Y14847D01*
X29554Y14962D01*
Y15997D01*
G01X26565Y19228D02*
X36565D01*
G01X49520Y18350D02*
X49365Y18120D01*
X49261Y17851D01*
Y17545D01*
X49416Y17200D01*
X49675Y16931D01*
X49985Y16740D01*
X50501Y16586D01*
X50966Y16548D01*
X51431Y16624D01*
X51741Y16740D01*
X52051Y16970D01*
X52258Y17238D01*
X52361Y17506D01*
Y17774D01*
X52258Y18043D01*
X52103Y18273D01*
X51896Y18465D01*
G01X52361Y20606D02*
X49261D01*
X49881Y20146D01*
G01X52361D02*
Y21066D01*
G01X51070Y22978D02*
X50708Y23246D01*
X50501Y23476D01*
X50398Y23783D01*
X50501Y24051D01*
X50708Y24243D01*
X51018Y24396D01*
X51380Y24435D01*
X51690Y24396D01*
X52000Y24243D01*
X52258Y24013D01*
X52361Y23745D01*
X52258Y23438D01*
X51948Y23170D01*
X51483Y23016D01*
X50966Y22978D01*
X50295Y23054D01*
X49933Y23170D01*
X49571Y23361D01*
X49313Y23630D01*
X49261Y23898D01*
X49365Y24166D01*
X49623Y24358D01*
G01X47581Y28737D02*
X37581D01*
G01X54760Y27363D02*
G03X40371Y43355I-39310J-20900D01*
G01X42830Y51394D01*
X46723Y53464D01*
G02X65296Y32966I-31282J-47007D01*
G01X57969Y-44749D02*
X58055Y-45013D01*
X58203Y-45260D01*
X58444Y-45449D01*
X58812Y-45539D01*
X59182Y-45500D01*
X59524Y-45374D01*
X59963Y-45062D01*
X60280Y-44719D01*
X60505Y-44305D01*
X60606Y-43990D01*
X60615Y-43604D01*
X60531Y-43276D01*
X60383Y-43029D01*
X60172Y-42864D01*
X59897Y-42780D01*
X59620Y-42761D01*
X59342Y-42806D01*
G01X57940Y-41121D02*
X57697Y-40996D01*
X57360Y-40930D01*
X57050Y-41015D01*
X56767Y-41253D01*
X56605Y-41585D01*
X56595Y-41971D01*
X56771Y-42306D01*
X57074Y-42542D01*
X57191Y-42765D01*
X57183Y-43086D01*
X57021Y-43418D01*
X56708Y-43633D01*
X56337Y-43671D01*
X56032Y-43564D01*
X55854Y-43293D01*
X55801Y-42925D01*
X55933Y-42569D01*
X56217Y-42331D01*
X56527Y-42246D01*
X56771Y-42306D01*
X57074Y-42542D01*
X57441Y-42632D01*
X57813Y-42529D01*
X58096Y-42291D01*
X58258Y-41959D01*
X58266Y-41638D01*
X58120Y-41327D01*
X57940Y-41121D01*
G01X55095Y-11711D02*
X52676Y-21415D01*
G01X56848Y1071D02*
X55802Y-8875D01*
G01X54752Y27378D02*
G02X59964Y6507I-39309J-20901D01*
G01X68003Y4049D01*
X71897Y6119D01*
G03X65288Y32980I-56463J352D01*
M02*
