G04 ================== begin FILE IDENTIFICATION RECORD ==================*
G04 Layout Name:  D:/project/ca100/hardware/sensor/v4/sensor.brd*
G04 Film Name:    SOLDERMASK_TOP*
G04 File Format:  Gerber RS274X*
G04 File Origin:  Cadence Allegro 16.3-p003*
G04 Origin Date:  Fri Jul 06 13:33:22 2012*
G04 *
G04 Layer:  PIN/SOLDERMASK_TOP*
G04 Layer:  BOARD GEOMETRY/OUTLINE*
G04 *
G04 Offset:    (0.000 0.000)*
G04 Mirror:    No*
G04 Mode:      Positive*
G04 Rotation:  0*
G04 FullContactRelief:  No*
G04 UndefLineWidth:     8.000*
G04 ================== end FILE IDENTIFICATION RECORD ====================*
%FSLAX55Y55*MOIN*%
%IR0*IPPOS*OFA0.00000B0.00000*MIA0B0*SFA1.00000B1.00000*%
%AMMACRO28*
21,1,.04,.04,0.0,0.0,135.*%
%ADD28MACRO28*%
%AMMACRO11*
21,1,.057874,.031496,0.0,0.0,47.*%
%ADD11MACRO11*%
%AMMACRO31*
21,1,.069,.077,0.0,0.0,174.*%
%ADD31MACRO31*%
%AMMACRO30*
21,1,.069,.077,0.0,0.0,166.*%
%ADD30MACRO30*%
%ADD13C,.153543*%
%ADD10C,.173228*%
%AMMACRO27*
21,1,.057874,.031496,0.0,0.0,126.*%
%ADD27MACRO27*%
%ADD14R,.04X.04*%
%ADD22R,.04X.04*%
%AMMACRO20*
21,1,.04,.04,0.0,0.0,75.*%
%ADD20MACRO20*%
%AMMACRO19*
21,1,.04,.04,0.0,0.0,84.*%
%ADD19MACRO19*%
%ADD15R,.051X.05*%
%AMMACRO25*
21,1,.04,.04,0.0,0.0,97.*%
%ADD25MACRO25*%
%AMMACRO23*
21,1,.04,.04,0.0,0.0,89.*%
%ADD23MACRO23*%
%ADD18R,.075X.05*%
%ADD21C,.075*%
%AMMACRO12*
21,1,.069,.077,0.0,0.0,17.*%
%ADD12MACRO12*%
%ADD29R,.077X.069*%
%ADD17R,.069X.077*%
%AMMACRO26*
21,1,.04,.04,0.0,0.0,104.*%
%ADD26MACRO26*%
%ADD24R,.031496X.057874*%
%ADD16R,.057874X.031496*%
%ADD32C,.008*%
G75*
%LPD*%
G75*
G54D10*
X-67000Y0D03*
X-23661Y-23661D03*
X-33465Y0D03*
X-23661Y23661D03*
X-33500Y58000D03*
X33465Y0D03*
X33500Y58000D03*
G54D20*
X-19045Y-50354D03*
X-17622Y-45042D03*
G54D11*
X-48056Y-52997D03*
X-51713Y-49587D03*
X-40742Y-59817D03*
X-44399Y-56407D03*
X-36368Y-33131D03*
X-32711Y-36541D03*
X-29054Y-39951D03*
X-25397Y-43361D03*
G54D12*
X-69680Y-20509D03*
X-59138Y-17286D03*
G54D21*
X-6947Y-65514D03*
X-18947Y-63514D03*
X17053D03*
X5053Y-65514D03*
X48700Y44546D03*
X56100Y34889D03*
X61733Y24294D03*
X65601Y12760D03*
G54D30*
X57270Y-17407D03*
X67966Y-20074D03*
G54D22*
X-12718Y-36604D03*
X-18218D03*
X-1388Y42904D03*
X4112D03*
G54D13*
X-58500Y-34000D03*
X0Y68000D03*
X59000Y-33500D03*
G54D31*
X59794Y-4266D03*
X70757Y-5419D03*
G54D32*
G01X82677Y0D02*
G03I-82677J0D01*
G54D23*
X-7596Y-25696D03*
X-7500Y-20197D03*
G54D14*
X-53263Y-696D03*
X-69813Y15406D03*
Y20906D03*
X-53263Y4804D03*
X-46644Y-1228D03*
Y4272D03*
X-29449Y43659D03*
Y38159D03*
X-22470Y43581D03*
Y38081D03*
X-3228Y-52813D03*
Y-47313D03*
X-591Y-25374D03*
Y-19874D03*
X-10443Y26268D03*
Y20768D03*
X-3691Y26317D03*
Y20817D03*
X3681Y-52764D03*
X13081Y-25226D03*
X3681Y-47264D03*
X20129Y-25766D03*
X6348Y-25717D03*
X13081Y-19726D03*
X20129Y-20266D03*
X6348Y-20216D03*
X9911Y26386D03*
Y20886D03*
X22933Y26534D03*
Y21034D03*
X3140Y26317D03*
Y20817D03*
X16378Y26455D03*
Y20955D03*
G54D24*
X-39Y-11181D03*
X-5039D03*
X-10039D03*
X-15039D03*
Y11319D03*
X-10039D03*
X-5039D03*
X-39D03*
X19695Y-11614D03*
X14695D03*
X9695D03*
X4695D03*
Y10886D03*
X9695D03*
X14695D03*
X19695D03*
G54D15*
X-49449Y-13721D03*
Y-21220D03*
G54D16*
X-61043Y17638D03*
Y22638D03*
Y27638D03*
Y32638D03*
X-38543Y22638D03*
Y17638D03*
Y32638D03*
Y27638D03*
G54D25*
X11644Y-51742D03*
X10973Y-46283D03*
G54D26*
X19439Y-50354D03*
X18108Y-45018D03*
G54D17*
X-54065Y44006D03*
X-43041D03*
X-8908Y51968D03*
X2116D03*
G54D18*
X-38429Y-17461D03*
G54D27*
X24686Y-42980D03*
X50046Y-52366D03*
X46001Y-55305D03*
X41956Y-58244D03*
X37911Y-61183D03*
X28731Y-40041D03*
X32776Y-37102D03*
X36821Y-34163D03*
G54D19*
X-10974Y-51791D03*
X-10400Y-46321D03*
G54D28*
X52558Y-45884D03*
X56447Y-49773D03*
G54D29*
X31565Y22716D03*
X42581Y25249D03*
Y14225D03*
X31565Y33740D03*
M02*
