G04 ================== begin FILE IDENTIFICATION RECORD ==================*
G04 Layout Name:  D:/project/ca100/hardware/sensor/v5/sensor.brd*
G04 Film Name:    BOTTOM*
G04 File Format:  Gerber RS274X*
G04 File Origin:  Cadence Allegro 16.3-p003*
G04 Origin Date:  Fri Sep 14 10:26:27 2012*
G04 *
G04 Layer:  VIA CLASS/BOTTOM*
G04 Layer:  BOARD GEOMETRY/OUTLINE*
G04 Layer:  ETCH/BOTTOM*
G04 Layer:  PIN/BOTTOM*
G04 *
G04 Offset:    (0.000 0.000)*
G04 Mirror:    No*
G04 Mode:      Positive*
G04 Rotation:  0*
G04 FullContactRelief:  No*
G04 UndefLineWidth:     8.000*
G04 ================== end FILE IDENTIFICATION RECORD ====================*
%FSLAX55Y55*MOIN*%
%IR0*IPPOS*OFA0.00000B0.00000*MIA0B0*SFA1.00000B1.00000*%
%ADD10C,.15748*%
%ADD12C,.137795*%
%ADD11C,.02*%
%ADD13C,.069*%
%ADD14C,.008*%
%ADD15C,.04*%
%ADD16C,.1538*%
%ADD17C,.173484*%
%ADD18C,.085004*%
%ADD19C,.079004*%
G75*
%LPD*%
G75*
G36*
G01X18718Y10323D02*
X18716Y-21542D01*
X2842Y-37416D01*
X-15935D01*
X-27117Y-48598D01*
X-33320D01*
X-40641Y-41278D01*
X-54240D01*
G02X-54451Y-40538I0J400D01*
G03X-57891Y-41666I-4049J6537D01*
G02X-57577Y-42347I32J-399D01*
G01X-62444Y-47214D01*
G02X-63047Y-47171I-283J283D01*
G02X78316Y8164I63047J47171D01*
G02X77918Y7722I-398J-42D01*
G01X61377D01*
X59823Y9277D01*
G02X60106Y9959I283J283D01*
G01X62314D01*
X62462Y9894D01*
X62490Y9864D01*
G03X62490Y15655I3111J2895D01*
G01X62462Y15625D01*
X62314Y15560D01*
X60811D01*
X46111Y30260D01*
X21704D01*
X14124Y22681D01*
Y18420D01*
G02X13426Y18154I-400J0D01*
G03X11339Y19088I-2088J-1866D01*
G01X-2650D01*
X-12512Y9225D01*
Y3793D01*
G03X-6912I2800J0D01*
G01Y6906D01*
X-330Y13487D01*
X11339D01*
G03X12031Y13574I0J2802D01*
G02X12413Y12904I99J-388D01*
G01X12178Y12669D01*
X5142D01*
X-3018Y4510D01*
Y-12778D01*
X-5214Y-14974D01*
G03X-5294Y-15057I1979J-1981D01*
G01X-5322Y-15087D01*
X-5470Y-15154D01*
X-10495D01*
X-15899Y-9750D01*
Y8997D01*
X-20722Y13820D01*
X-27552D01*
X-33292Y19560D01*
G03X-35838Y17014I-1273J-1273D01*
G01X-29044Y10220D01*
X-22213D01*
X-19499Y7506D01*
Y-8496D01*
G02X-19699Y-8696I-200J0D01*
G01X-29787D01*
G02X-29949Y-7930I0J400D01*
G03X-38058Y7358I-3515J7930D01*
G02X-38305Y7386I-106J170D01*
G01X-41339Y10421D01*
Y47615D01*
X-38347Y50607D01*
G02X-38150Y50658I141J-141D01*
G01X-38094Y50642D01*
X-38070Y50627D01*
G03X-40873Y53430I4570J7373D01*
G01X-40858Y53406D01*
X-40842Y53350D01*
G02X-40893Y53153I-192J-55D01*
G01X-44940Y49106D01*
Y8929D01*
X-40851Y4841D01*
G02X-40823Y4593I-141J-141D01*
G03X-32098Y-8566I7358J-4593D01*
G02X-31752Y-9244I63J-395D01*
G01X-34036Y-11528D01*
X-39954D01*
X-42190Y-9292D01*
G03X-44736Y-11837I-1273J-1273D01*
G01X-41445Y-15128D01*
X-32545D01*
X-29713Y-12296D01*
X-18444D01*
X-12514Y-18227D01*
G03X-11241Y-18754I1273J1273D01*
G01X-5470D01*
X-5322Y-18821D01*
X-5294Y-18851D01*
G03X-1254Y-18934I2060J1897D01*
G01X2164Y-15516D01*
X4430D01*
G03Y-9916I0J2800D01*
G01X2783D01*
G02X2583Y-9716I0J200D01*
G01Y2190D01*
X7461Y7068D01*
X14498D01*
X18035Y10606D01*
G02X18718Y10323I283J-283D01*
G37*
G36*
G01X-59300Y-51519D02*
X-52646Y-44864D01*
X-46295D01*
X-37044Y-54116D01*
X-24902D01*
Y-53978D01*
X-13940Y-43017D01*
X-13774D01*
X-13720Y-43071D01*
X3675D01*
X20511Y-26235D01*
X24245D01*
X29625Y-31615D01*
X41493D01*
X60268Y-50389D01*
G02X60280Y-50660I-141J-141D01*
G02X-59309Y-51792I-60280J50659D01*
G02X-59300Y-51519I151J132D01*
G37*
%LPC*%
G75*
G36*
G01X-51614Y20334D02*
Y22050D01*
G02X-48013I1800J0D01*
G01Y18843D01*
X-50032Y16824D01*
X-50046Y16777D01*
G02X-53567Y17308I-1720J531D01*
G01Y18381D01*
X-51614Y20334D01*
G37*
G36*
G01X-62407Y-7358D02*
G02Y7358I-4593J7358D01*
G03X-62159Y7386I106J170D01*
G01X-58964Y10582D01*
Y26362D01*
G02X-55363I1800J0D01*
G01Y9091D01*
X-59663Y4791D01*
X-59679Y4653D01*
X-59642Y4593D01*
G02Y-4593I-7358J-4593D01*
G03X-59614Y-4841I170J-106D01*
G01X-42593Y-21861D01*
X-32307D01*
G03X-32112Y-21706I0J200D01*
G02Y-25617I8451J-1955D01*
G03X-32307Y-25462I-195J-45D01*
G01X-44084D01*
X-62209Y-7337D01*
X-62347Y-7321D01*
X-62407Y-7358D01*
G37*
G36*
G01X-36062Y34477D02*
G02X-33516Y37022I1273J1273D01*
G01X-31221Y34728D01*
Y33767D01*
X-28502Y31048D01*
G03X-28255Y31020I141J141D01*
G02X-31020Y28255I4593J-7358D01*
G03X-31048Y28502I-170J106D01*
G01X-34822Y32276D01*
Y33236D01*
X-36062Y34477D01*
G37*
G36*
G01X40657Y-51598D02*
X45642Y-46613D01*
G03X45700Y-46470I-141J141D01*
G02X47483Y-48252I1800J18D01*
G03X47339Y-48311I-2J-200D01*
G01X36887Y-58763D01*
G03X36828Y-58905I141J-141D01*
G01Y-63727D01*
G03X36888Y-63870I200J0D01*
G02X34368I-1260J-1286D01*
G03X34428Y-63727I-140J143D01*
G01Y-57828D01*
X38652Y-53603D01*
G03Y-53321I-141J141D01*
G01X38618Y-53286D01*
X38525Y-53257D01*
X38477Y-53265D01*
G02X38163Y-53289I-297J1776D01*
G01X38114Y-53289D01*
X37345Y-54058D01*
X37217D01*
X32781Y-58494D01*
Y-64443D01*
G03X32839Y-64583I200J0D01*
G02X30400Y-67226I-1283J-1263D01*
G03X30071Y-67379I-129J-153D01*
G01Y-67578D01*
X23547Y-74102D01*
X-10056D01*
X-16809Y-67349D01*
G03X-17040Y-67312I-141J-141D01*
G02X-15149Y-65421I-1907J3798D01*
G03X-15111Y-65652I179J-90D01*
G01X-9061Y-71702D01*
X-3422D01*
G03X-3139Y-71019I0J400D01*
G01X-4809Y-69349D01*
G03X-5040Y-69312I-141J-141D01*
G02X-3149Y-67421I-1907J3798D01*
G03X-3111Y-67652I179J-90D01*
G01X-1800Y-68964D01*
X1543D01*
G03X1845Y-68301I0J400D01*
G02X8262I3209J2788D01*
G03X8564Y-68964I302J-262D01*
G01X23028D01*
X25936Y-66056D01*
Y-50718D01*
X28681Y-47973D01*
X28687D01*
X33162Y-43498D01*
X36368D01*
G03X36510Y-43438I0J200D01*
G02Y-45958I1285J-1260D01*
G03X36368Y-45898I-143J-140D01*
G01X35229D01*
G03X34948Y-46583I0J-400D01*
G02X33665Y-49663I-1265J-1281D01*
G03X33521Y-49722I-2J-200D01*
G01X30130Y-53114D01*
G03X30071Y-53255I141J-141D01*
G01Y-56809D01*
G03X30638Y-57172I400J0D01*
G01X36202Y-51608D01*
X36330D01*
X36378Y-51559D01*
X36381Y-51438D01*
G02X39975Y-51347I1799J-51D01*
G03X40657Y-51598I399J32D01*
G37*
G54D16*
X0Y68000D03*
G54D17*
X33500Y58000D03*
G54D18*
X48700Y44546D03*
X61733Y24294D03*
G54D19*
X56100Y34889D03*
X17053Y-63514D03*
%LPD*%
G75*
G54D10*
X-67000Y0D03*
X-23661Y-23661D03*
X-33465Y0D03*
X-23661Y23661D03*
X-33500Y58000D03*
X33500D03*
G54D11*
G01X-23661Y-23661D02*
X-43339D01*
X-67000Y0D01*
G01X-57163Y26362D02*
Y9837D01*
X-67000Y0D01*
G01X-49813Y22050D02*
Y19589D01*
X-51767Y17636D01*
Y17308D01*
G01X-33465Y0D02*
X-43140Y9675D01*
Y48360D01*
X-33500Y58000D01*
G01X-17699Y-10496D02*
X-30458D01*
X-33291Y-13328D01*
X-40699D01*
X-43463Y-10564D01*
G01X-34789Y35750D02*
X-33021Y33982D01*
Y33021D01*
X-23661Y23661D01*
G01X-34565Y18287D02*
X-28298Y12020D01*
X-21467D01*
X-17699Y8252D01*
Y-10496D01*
G01X-3234Y-16954D02*
X-11241D01*
X-17699Y-10496D01*
G01X42601Y-36309D02*
X38863Y-32571D01*
G01D02*
Y-9196D01*
G01X29677Y20423D02*
X41219Y8881D01*
Y-6840D01*
X38863Y-9196D01*
X-51249Y-51612D03*
X-64102Y26009D03*
X-51767Y17308D03*
X-49813Y22050D03*
X-57163Y26362D03*
X-64266Y37806D03*
X-43463Y-10564D03*
X-34359Y13250D03*
X-34565Y18287D03*
X-34789Y35750D03*
X-44598Y53402D03*
X-3228Y-57099D03*
X-833Y-29296D03*
X-21550Y-216D03*
X-3234Y-16954D03*
X-9712Y3793D03*
X-1627Y30390D03*
X3681Y-56046D03*
X5880Y-30507D03*
X15102Y-40405D03*
X19759Y-37296D03*
X16131Y-2199D03*
X4430Y-12716D03*
X23892Y-18463D03*
X11339Y16288D03*
X16170Y40288D03*
X38181Y-51489D03*
X31556Y-65846D03*
X35628Y-65155D03*
X47501Y-46452D03*
X33683Y-47863D03*
X37796Y-44698D03*
X38863Y-9196D03*
X31762Y-22716D03*
X29677Y20423D03*
X53302Y-49902D03*
G54D12*
X-58500Y-34000D03*
X0Y68000D03*
X59000Y-33500D03*
G54D13*
X-6947Y-65514D03*
X-18947Y-63514D03*
X17053D03*
X5053Y-65514D03*
X48700Y44546D03*
X56100Y34889D03*
X61733Y24294D03*
X65601Y12760D03*
G54D14*
G01X33683Y-47863D02*
X28871Y-52675D01*
Y-67081D01*
X23050Y-72902D01*
X-9558D01*
X-18947Y-63514D01*
G01X-6947Y-65514D02*
X-2297Y-70164D01*
X23525D01*
X27136Y-66553D01*
Y-51215D01*
X29178Y-49173D01*
X29184D01*
X33659Y-44698D01*
X37796D01*
G01X17053Y-67664D02*
Y-63514D01*
G01D02*
Y-59364D01*
G01X12903Y-63514D02*
X17053D01*
G01D02*
X21203D01*
G01X31762Y-22716D02*
X26107D01*
X23892Y-20502D01*
Y-18463D01*
G01X31556Y-65846D02*
Y-57987D01*
X36710Y-52833D01*
X36837D01*
X38181Y-51489D01*
G01X35628Y-65155D02*
Y-58325D01*
X47501Y-46452D01*
G01X56100Y30739D02*
Y34889D01*
G01D02*
Y39040D01*
G01X51950Y34889D02*
X56100D01*
G01D02*
X60250D01*
G01X82677Y0D02*
G03I-82677J0D01*
G01X36743Y-2607D02*
G03I-5638J0D01*
G54D15*
G01X4430Y-12716D02*
X1004D01*
X-218Y-13938D01*
G01D02*
Y3350D01*
X6301Y9869D01*
X13338D01*
X16925Y13455D01*
Y21521D01*
X22863Y27460D01*
X44951D01*
X59651Y12760D01*
X65601D01*
G01X-218Y-13938D02*
X-3234Y-16954D01*
G01X-9712Y3793D02*
Y8065D01*
X-1490Y16288D01*
X11339D01*
M02*
