G04 ================== begin FILE IDENTIFICATION RECORD ==================*
G04 Layout Name:  D:/project/ca100/hardware/sensor/v5/sensor.brd*
G04 Film Name:    SOLDERMASK_TOP*
G04 File Format:  Gerber RS274X*
G04 File Origin:  Cadence Allegro 16.3-p003*
G04 Origin Date:  Fri Sep 14 10:26:27 2012*
G04 *
G04 Layer:  PIN/SOLDERMASK_TOP*
G04 Layer:  BOARD GEOMETRY/OUTLINE*
G04 *
G04 Offset:    (0.000 0.000)*
G04 Mirror:    No*
G04 Mode:      Positive*
G04 Rotation:  0*
G04 FullContactRelief:  No*
G04 UndefLineWidth:     8.000*
G04 ================== end FILE IDENTIFICATION RECORD ====================*
%FSLAX55Y55*MOIN*%
%IR0*IPPOS*OFA0.00000B0.00000*MIA0B0*SFA1.00000B1.00000*%
%AMMACRO15*
21,1,.057874,.031496,0.0,0.0,57.*%
%ADD15MACRO15*%
%AMMACRO19*
21,1,.05,.051,0.0,0.0,143.*%
%ADD19MACRO19*%
%AMMACRO14*
21,1,.04,.04,0.0,0.0,147.*%
%ADD14MACRO14*%
%AMMACRO13*
21,1,.04,.04,0.0,0.0,148.*%
%ADD13MACRO13*%
%AMMACRO18*
21,1,.05,.075,0.0,0.0,143.*%
%ADD18MACRO18*%
%AMMACRO31*
21,1,.04,.04,0.0,0.0,179.602*%
%ADD31MACRO31*%
%AMMACRO30*
21,1,.057874,.031496,0.0,0.0,89.652*%
%ADD30MACRO30*%
%AMMACRO11*
21,1,.069,.077,0.0,0.0,144.*%
%ADD11MACRO11*%
%ADD12C,.153543*%
%ADD10C,.173228*%
%AMMACRO29*
21,1,.057874,.031496,0.0,0.0,130.*%
%ADD29MACRO29*%
%ADD17R,.04X.04*%
%ADD20R,.04X.04*%
%AMMACRO16*
21,1,.04,.04,0.0,0.0,55.*%
%ADD16MACRO16*%
%AMMACRO22*
21,1,.04,.04,0.0,0.0,84.*%
%ADD22MACRO22*%
%AMMACRO21*
21,1,.04,.04,0.0,0.0,58.*%
%ADD21MACRO21*%
%AMMACRO25*
21,1,.04,.04,0.0,0.0,97.*%
%ADD25MACRO25*%
%ADD23C,.075*%
%ADD28R,.077X.069*%
%AMMACRO27*
21,1,.04,.04,0.0,0.0,111.*%
%ADD27MACRO27*%
%AMMACRO26*
21,1,.04,.04,0.0,0.0,104.*%
%ADD26MACRO26*%
%ADD24R,.031496X.057874*%
%ADD32C,.008*%
G75*
%LPD*%
G75*
G54D10*
X-67000Y0D03*
X-23661Y-23661D03*
X-33465Y0D03*
X-23661Y23661D03*
X-33500Y58000D03*
X33500D03*
G54D20*
X-37963Y-15954D03*
X-43463D03*
X-1139Y35466D03*
X24177Y16768D03*
X4361Y35466D03*
X29677Y16768D03*
G54D11*
X-44855Y-54345D03*
X-35936Y-60825D03*
G54D21*
X-37910Y25618D03*
X-34996Y30282D03*
G54D12*
X-58500Y-34000D03*
X0Y68000D03*
X59000Y-33500D03*
G54D30*
X23863Y-13671D03*
X24000Y8829D03*
X38863Y-13762D03*
X33863Y-13732D03*
X28863Y-13701D03*
X29000Y8798D03*
X34000Y8768D03*
X38999Y8738D03*
G54D22*
X-10974Y-51791D03*
X-10400Y-46321D03*
G54D31*
X35513Y16875D03*
X41013Y16836D03*
G54D13*
X-48599Y2260D03*
X-53263Y5174D03*
X-37672Y15225D03*
X-42336Y18140D03*
G54D32*
G01X82677Y0D02*
G03I-82677J0D01*
G01X36743Y-2607D02*
G03I-5638J0D01*
G54D23*
X-6947Y-65514D03*
X-18947Y-63514D03*
X17053D03*
X5053Y-65514D03*
X48700Y44546D03*
X56100Y34889D03*
X61733Y24294D03*
X65601Y12760D03*
G54D14*
X-66702Y14047D03*
X-71315Y17042D03*
X-48213Y11757D03*
X-43600Y8761D03*
G54D24*
X1274Y-11779D03*
X-3726D03*
X-8726D03*
X-13726D03*
Y10721D03*
X-8726D03*
X-3726D03*
X1274D03*
G54D15*
X-53787Y14176D03*
X-57980Y16899D03*
X-62174Y19622D03*
X-66367Y22345D03*
X-54112Y41215D03*
X-49919Y38492D03*
X-45726Y35769D03*
X-41532Y33046D03*
G54D25*
X11644Y-51742D03*
X10973Y-46283D03*
G54D16*
X-62259Y40673D03*
X-59104Y45178D03*
G54D26*
X19439Y-50354D03*
X18108Y-45018D03*
G54D17*
X-48098Y47902D03*
Y53402D03*
X-28714Y37865D03*
Y43365D03*
X-35858Y45121D03*
Y39621D03*
X-3228Y-52813D03*
X-833Y-25796D03*
X-7938Y-25509D03*
X-3228Y-47313D03*
X-833Y-20296D03*
X-7938Y-20009D03*
X-8732Y26874D03*
Y21374D03*
X-1627Y26815D03*
Y21315D03*
X-20325Y3653D03*
Y9153D03*
X-21462Y43759D03*
Y38259D03*
X3681Y-52764D03*
Y-47264D03*
X5292Y26923D03*
Y21423D03*
G54D27*
X23129Y-36308D03*
X21158Y-31174D03*
G54D18*
X-35070Y-48798D03*
G54D28*
X10574Y-23740D03*
Y-12716D03*
Y-2199D03*
Y8824D03*
X16170Y46662D03*
Y35638D03*
G54D19*
X-25451Y-42248D03*
X-31440Y-37734D03*
G54D29*
X25061Y-44543D03*
X51014Y-52137D03*
X47184Y-55351D03*
X43354Y-58565D03*
X39523Y-61779D03*
X28891Y-41329D03*
X32721Y-38115D03*
X36551Y-34901D03*
M02*
