G04 ================== begin FILE IDENTIFICATION RECORD ==================*
G04 Layout Name:  D:/project/ca100/hardware/sensor/v5/sensor.brd*
G04 Film Name:    TOP*
G04 File Format:  Gerber RS274X*
G04 File Origin:  Cadence Allegro 16.3-p003*
G04 Origin Date:  Fri Sep 14 10:26:27 2012*
G04 *
G04 Layer:  BOARD GEOMETRY/OUTLINE*
G04 Layer:  ETCH/TOP*
G04 Layer:  PIN/TOP*
G04 Layer:  VIA CLASS/TOP*
G04 *
G04 Offset:    (0.000 0.000)*
G04 Mirror:    No*
G04 Mode:      Positive*
G04 Rotation:  0*
G04 FullContactRelief:  No*
G04 UndefLineWidth:     8.000*
G04 ================== end FILE IDENTIFICATION RECORD ====================*
%FSLAX55Y55*MOIN*%
%IR0*IPPOS*OFA0.00000B0.00000*MIA0B0*SFA1.00000B1.00000*%
%AMMACRO15*
21,1,.04,.04,0.0,0.0,147.*%
%ADD15MACRO15*%
%AMMACRO19*
21,1,.03,.055,0.0,0.0,143.*%
%ADD19MACRO19*%
%AMMACRO14*
21,1,.04,.04,0.0,0.0,148.*%
%ADD14MACRO14*%
%AMMACRO30*
21,1,.05,.023622,0.0,0.0,130.*%
%ADD30MACRO30*%
%AMMACRO11*
21,1,.063,.071,0.0,0.0,144.*%
%ADD11MACRO11*%
%AMMACRO32*
21,1,.04,.04,0.0,0.0,179.602*%
%ADD32MACRO32*%
%ADD10C,.15748*%
%ADD13C,.137795*%
%ADD18R,.04X.04*%
%ADD21R,.04X.04*%
%AMMACRO17*
21,1,.04,.04,0.0,0.0,55.*%
%ADD17MACRO17*%
%AMMACRO23*
21,1,.04,.04,0.0,0.0,84.*%
%ADD23MACRO23*%
%AMMACRO22*
21,1,.04,.04,0.0,0.0,58.*%
%ADD22MACRO22*%
%AMMACRO26*
21,1,.04,.04,0.0,0.0,97.*%
%ADD26MACRO26*%
%ADD12C,.02*%
%ADD29R,.071X.063*%
%ADD25R,.023622X.05*%
%AMMACRO16*
21,1,.05,.023622,0.0,0.0,57.*%
%ADD16MACRO16*%
%ADD24C,.069*%
%AMMACRO31*
21,1,.05,.023622,0.0,0.0,89.652*%
%ADD31MACRO31*%
%AMMACRO28*
21,1,.04,.04,0.0,0.0,111.*%
%ADD28MACRO28*%
%AMMACRO27*
21,1,.04,.04,0.0,0.0,104.*%
%ADD27MACRO27*%
%AMMACRO20*
21,1,.03,.031,0.0,0.0,143.*%
%ADD20MACRO20*%
%ADD33C,.008*%
%ADD34C,.01*%
%ADD35C,.04*%
%ADD36C,.085004*%
%ADD37C,.079004*%
G75*
%LPD*%
G75*
G36*
G01X40040Y-51650D02*
G02X39981Y-51507I141J141D01*
G03X38199Y-53289I-1800J18D01*
G01X38239Y-53289D01*
X38314Y-53319D01*
X39968Y-54974D01*
Y-56398D01*
X40184Y-56655D01*
G02X40160Y-56937I-153J-129D01*
G01X39714Y-57311D01*
X43957Y-62367D01*
X46993Y-59820D01*
X42761Y-54777D01*
G02X42773Y-54507I153J129D01*
G01X43071Y-54209D01*
G02X43660Y-54235I283J-283D01*
G01X47787Y-59153D01*
X50823Y-56606D01*
X46580Y-51550D01*
X46527Y-51594D01*
G02X46198Y-51441I-129J153D01*
G01Y-48459D01*
G02X46762Y-48094I400J0D01*
G03Y-44810I738J1642D01*
G02X46198Y-44445I-164J365D01*
G01Y-37972D01*
G02X46881Y-37689I400J0D01*
G01X59953Y-50761D01*
G02X59964Y-51032I-141J-141D01*
G02X-59112Y-52017I-59964J51032D01*
G02X-59103Y-51744I150J132D01*
G01X-52224Y-44864D01*
X-46570D01*
X-37181Y-54253D01*
X-25176D01*
X-13446Y-42522D01*
X3675D01*
X19688Y-26509D01*
X27442D01*
G02X27642Y-26709I0J-200D01*
G01Y-33929D01*
X29552Y-36205D01*
G02X29527Y-36487I-153J-129D01*
G01X29082Y-36861D01*
X33325Y-41917D01*
X33770Y-41543D01*
G02X34052Y-41568I129J-153D01*
G01X34396Y-41978D01*
Y-45453D01*
X33815Y-46033D01*
X33741Y-46064D01*
X33700Y-46063D01*
G03X35483Y-47845I-18J-1800D01*
G02X35541Y-47702I200J2D01*
G01X36854Y-46389D01*
G02X37075Y-46348I141J-141D01*
G03X39596Y-44680I721J1650D01*
G01X39596Y-44640D01*
X39626Y-44565D01*
X41419Y-42772D01*
Y-38491D01*
X39898Y-36969D01*
G02X39923Y-36380I283J283D01*
G01X40190Y-36156D01*
X35948Y-31100D01*
X35503Y-31473D01*
G02X35221Y-31449I-129J153D01*
G01X33480Y-29375D01*
X32962Y-28856D01*
Y-26709D01*
G02X33162Y-26509I200J0D01*
G01X35701D01*
X42153Y-32961D01*
Y-43332D01*
X41348Y-52537D01*
X41278Y-52607D01*
G02X40996I-141J141D01*
G01X40040Y-51650D01*
G37*
G36*
G01X75319Y22322D02*
X68414Y19600D01*
X63445Y18630D01*
X61162D01*
X59177Y19321D01*
X56984Y20909D01*
X56296Y21922D01*
X55956Y23057D01*
X55850Y24010D01*
Y25735D01*
X56688Y27877D01*
X57644Y28979D01*
X60407Y30782D01*
X61926Y33957D01*
X61515Y37681D01*
X52401Y48863D01*
X41437Y54024D01*
G02X41341Y54290I85J181D01*
G03X25645Y61679I-7841J3710D01*
G01X25644Y61679D01*
X25644Y61678D01*
G02X25378Y61583I-181J85D01*
G01X16925Y65562D01*
X7821Y65526D01*
G02X7433Y66028I-2J400D01*
G03X-7417Y65969I-7433J1972D01*
G02X-7801Y65463I-386J-106D01*
G01X-17307Y65425D01*
X-24996Y61283D01*
G02X-25552Y61475I-190J352D01*
G03X-40775Y53276I-7948J-3475D01*
G02X-40921Y52706I-335J-218D01*
G01X-44090Y50999D01*
X-45098D01*
G02X-45298Y51199I0J200D01*
G01Y51402D01*
G02X-45098Y51602I200J0D01*
G01X-44598D01*
G03Y55203I0J1800D01*
G01X-45098D01*
G02X-45298Y55403I0J200D01*
G01Y56203D01*
X-50899D01*
Y45102D01*
X-50847D01*
X-50730Y44986D01*
X-50725Y44406D01*
G02X-50784Y44263I-200J-2D01*
G01X-51659Y43388D01*
G02X-51909Y43362I-141J141D01*
G01X-53888Y44647D01*
X-57157Y39615D01*
X-54382Y37813D01*
G02X-54322Y37539I-109J-168D01*
G01X-54494Y37265D01*
G02X-55055Y37145I-339J213D01*
G01X-57614Y38857D01*
X-58436Y41641D01*
G02X-58408Y41812I192J57D01*
G01X-55622Y45792D01*
X-59718Y48660D01*
X-62245Y45051D01*
G02X-62521Y45000I-164J115D01*
G01X-63595Y45728D01*
G02X-63693Y46294I225J331D01*
G02X75438Y22565I63693J-46294D01*
G02X75319Y22322I-192J-57D01*
G37*
G36*
G01X36360Y-39370D02*
X32118Y-34314D01*
X31672Y-34687D01*
G02X31391Y-34662I-129J153D01*
G01X30042Y-33056D01*
Y-26709D01*
G02X30242Y-26509I200J0D01*
G01X30362D01*
G02X30562Y-26709I0J-200D01*
G01Y-29850D01*
X31709Y-30998D01*
X33382Y-32992D01*
G02X33357Y-33273I-153J-129D01*
G01X32912Y-33647D01*
X37155Y-38703D01*
X37603Y-38327D01*
G02X37873Y-38339I129J-153D01*
G01X39019Y-39486D01*
Y-41778D01*
X37929Y-42868D01*
X37854Y-42898D01*
X37814Y-42898D01*
G03X37305Y-42966I-18J-1800D01*
G02X36796Y-42581I-109J385D01*
G01Y-41105D01*
X35890Y-40025D01*
G02X35915Y-39743I153J129D01*
G01X36360Y-39370D01*
G37*
%LPC*%
G75*
G36*
G01X29494Y-45131D02*
X25252Y-40075D01*
X28287Y-37528D01*
X32530Y-42584D01*
X29494Y-45131D01*
G37*
G36*
G01X25701Y-47922D02*
X21844Y-43326D01*
X24420Y-41164D01*
X28277Y-45761D01*
X25701Y-47922D01*
G37*
G36*
G01X-35364Y-66247D02*
X-41270Y-61956D01*
X-36509Y-55402D01*
X-30603Y-59694D01*
X-35364Y-66247D01*
G37*
G36*
G01X54653Y-53392D02*
X51618Y-55939D01*
X47375Y-50883D01*
X50410Y-48336D01*
X50966Y-48998D01*
G03X51556Y-49024I306J257D01*
G01X52478Y-48101D01*
X53302D01*
G02X54223Y-51449I0J-1800D01*
G01X53700Y-51972D01*
G03X53688Y-52242I141J-141D01*
G01X54653Y-53392D01*
G37*
G36*
G01X-45494Y-48504D02*
X-39102Y-53148D01*
X-44216Y-60186D01*
X-50608Y-55542D01*
X-49521Y-54047D01*
G03X-49845Y-53412I-324J235D01*
G01X-51249D01*
G02Y-49812I0J1800D01*
G01X-48032D01*
X-47154Y-50449D01*
G03X-46875Y-50405I117J162D01*
G01X-45494Y-48504D01*
G37*
G36*
G01X21518Y-39926D02*
X21226Y-39165D01*
G03X21081Y-39041I-187J-72D01*
G01X21032Y-39030D01*
X20934Y-39059D01*
X20904Y-39089D01*
X20522D01*
X20515Y-39096D01*
X19759D01*
G02X18600Y-35918I0J1800D01*
G01X18607Y-35912D01*
X19031Y-35489D01*
X19413D01*
X19612Y-35290D01*
G03X19657Y-35077I-141J141D01*
G01X19512Y-34698D01*
X19605Y-34662D01*
G03X19720Y-34404I-72J187D01*
G01X17928Y-29736D01*
X22596Y-27944D01*
X24388Y-32612D01*
G03X24647Y-32727I187J72D01*
G01X24740Y-32691D01*
X26747Y-37919D01*
X21518Y-39926D01*
G37*
G36*
G01X35610Y-63355D02*
G02X33828Y-65137I18J-1800D01*
G01X33828Y-65097D01*
X33798Y-65023D01*
X33472Y-64697D01*
G03X33203Y-64685I-141J-141D01*
G01X33171Y-64711D01*
G03X33125Y-64963I128J-154D01*
G02X29756Y-65828I-1569J-883D01*
G01X29756Y-65788D01*
X29726Y-65713D01*
X23459Y-59446D01*
X19912D01*
G03X19666Y-60162I0J-400D01*
G02X14440I-2613J-3352D01*
G03X14194Y-59446I-246J315D01*
G01X2273D01*
X984Y-58158D01*
X983D01*
X-975Y-56200D01*
Y-55813D01*
G03X-1175Y-55613I-200J0D01*
G01X-1228D01*
G03X-1428Y-55813I0J-200D01*
G01Y-57099D01*
G02X-5028I-1800J0D01*
G01Y-55813D01*
G03X-5228Y-55613I-200J0D01*
G01X-6028D01*
Y-48713D01*
G03X-6228Y-48513I-200J0D01*
G01X-7324D01*
X-7471Y-48366D01*
G03X-7811Y-48487I-141J-141D01*
G01X-7907Y-49399D01*
X-8007Y-49388D01*
G03X-8227Y-49566I-21J-199D01*
G01X-8749Y-54539D01*
X-13722Y-54016D01*
X-13200Y-49044D01*
G03X-13378Y-48824I-199J21D01*
G01X-13477Y-48814D01*
X-12892Y-43244D01*
X-7322Y-43829D01*
X-7468Y-45222D01*
G03X-7290Y-45441I199J-21D01*
G01X-6967Y-45475D01*
X-6330Y-46113D01*
X-6228D01*
G03X-6028Y-45913I0J200D01*
G01Y-44513D01*
X-428D01*
Y-46659D01*
X198Y-47285D01*
G03X881Y-47002I283J283D01*
G01Y-44464D01*
X6481D01*
Y-45864D01*
G03X6681Y-46064I200J0D01*
G01X6971D01*
X7539Y-45496D01*
X7849Y-45458D01*
G03X8023Y-45235I-24J199D01*
G01X7853Y-43845D01*
X13412Y-43163D01*
X14094Y-48721D01*
X13995Y-48733D01*
G03X13821Y-48956I24J-199D01*
G01X14430Y-53919D01*
X9467Y-54528D01*
X9435Y-54272D01*
G03X8638Y-54321I-397J-49D01*
G01Y-54696D01*
X9307Y-55365D01*
X19675D01*
G03X19958Y-54683I0J400D01*
G01X19057Y-53782D01*
X19000Y-53556D01*
G03X18758Y-53410I-194J-48D01*
G01X17399Y-53749D01*
X16069Y-48412D01*
X14714Y-42978D01*
X14756Y-42968D01*
X14833Y-42892D01*
X14847Y-42840D01*
G03X14796Y-42645I-193J53D01*
G01X13829Y-41678D01*
G02X16375Y-39132I1273J1273D01*
G01X19041Y-41799D01*
G03X19231Y-41852I141J141D01*
G01X20148Y-41623D01*
X21479Y-46960D01*
X22834Y-52394D01*
X22103Y-52576D01*
G03X21917Y-53247I97J-388D01*
G01X21984Y-53315D01*
X33175D01*
X38202Y-58342D01*
G03X38472Y-58353I141J141D01*
G01X38920Y-57978D01*
X43163Y-63034D01*
X40127Y-65581D01*
X35884Y-60525D01*
X36152Y-60300D01*
G03X36177Y-59711I-257J306D01*
G01X32181Y-55715D01*
X28851D01*
G03X28568Y-56398I0J-400D01*
G01X35467Y-63297D01*
G03X35610Y-63355I141J141D01*
G37*
G54D36*
X-6947Y-65514D03*
X-18947Y-63514D03*
G54D37*
X5053Y-65514D03*
X61733Y24294D03*
%LPD*%
G75*
G36*
G01X31821Y-64066D02*
G03X31538Y-64046I-265J-1781D01*
G01X31498Y-64047D01*
X31423Y-64016D01*
X25856Y-58449D01*
G02X26139Y-57766I283J283D01*
G01X26541D01*
X32162Y-63387D01*
G02X31821Y-64066I-283J-283D01*
G37*
G54D10*
X-67000Y0D03*
X-23661Y-23661D03*
X-33465Y0D03*
X-23661Y23661D03*
X-33500Y58000D03*
X33500D03*
G54D20*
X-25451Y-42248D03*
X-31440Y-37734D03*
G54D11*
X-44855Y-54345D03*
X-35936Y-60825D03*
G54D12*
G01X-44855Y-54345D02*
X-48617Y-51612D01*
X-51249D01*
G01X-66367Y22345D02*
X-64102Y25835D01*
Y26009D01*
G01X-53263Y5174D02*
Y6707D01*
X-48213Y11757D01*
G01X-53263Y5174D02*
X-59123Y11035D01*
X-62064D01*
X-63767Y12140D01*
X-66702Y14047D01*
G01D02*
X-62174Y18575D01*
Y19622D01*
G01X-49813Y22050D02*
X-47313D01*
X-45884Y20620D01*
Y20560D01*
X-43463Y18140D01*
X-42336D01*
G01X-51767Y17308D02*
X-51852Y17223D01*
Y16738D01*
X-53787Y14803D01*
Y14176D01*
G01X-37910Y25618D02*
X-40879Y27472D01*
X-41867D01*
X-42525Y28130D01*
X-55396D01*
X-57163Y26362D01*
G01X-62259Y40673D02*
X-64266Y37806D01*
G01X-54112Y41215D02*
X-55141D01*
X-59104Y45178D01*
G01X-49919Y38492D02*
Y42582D01*
X-48098Y44402D01*
Y47902D01*
G01X-35070Y-48798D02*
X-34317Y-47800D01*
X-34821Y-44214D01*
X-37963Y-41072D01*
Y-15954D01*
G01X-33465Y0D02*
Y-32558D01*
X-31914Y-34108D01*
X-31410Y-37694D01*
X-31440Y-37734D01*
G01X-23661Y-23661D02*
Y-36359D01*
X-25924Y-38622D01*
X-25420Y-42208D01*
X-25451Y-42248D01*
G01X-48599Y2260D02*
X-45098D01*
X-42839Y0D01*
X-33465D01*
G01X-43463Y-15954D02*
Y-10564D01*
G01X-34359Y13250D02*
X-34839Y13730D01*
X-36176D01*
X-37672Y15225D01*
G01X-23661Y23661D02*
Y36060D01*
X-21462Y38259D01*
G01X-34565Y18287D02*
Y18355D01*
X-36632Y20423D01*
X-40053D01*
X-42336Y18140D01*
G01X-35858Y39621D02*
X-40258Y35221D01*
Y34810D01*
X-41532Y33536D01*
Y33046D01*
G01X-35858Y39621D02*
Y36819D01*
X-34789Y35750D01*
G01X-34996Y30282D02*
Y31583D01*
X-28714Y37865D01*
G01X-35858Y45121D02*
X-39215D01*
X-40462Y43875D01*
X-43547Y39124D01*
X-45726Y35769D01*
G01X-28714Y43365D02*
X-33056D01*
X-33113Y43421D01*
X-34158D01*
X-35858Y45121D01*
G01X-48098Y53402D02*
X-44598D01*
G01X-3228Y-52813D02*
Y-57099D01*
G01X-833Y-25796D02*
Y-29296D01*
G01X-13726Y-11779D02*
Y-15779D01*
X-12505Y-17000D01*
Y-24443D01*
X-11438Y-25509D01*
X-7938D01*
G01X-20325Y3653D02*
Y1009D01*
X-21550Y-216D01*
G01X-3726Y-11779D02*
X-8726D01*
G01X1274D02*
Y-18189D01*
X-833Y-20296D01*
G01D02*
Y-19355D01*
X-3234Y-16954D01*
G01X-8726Y10721D02*
Y17868D01*
X-8732Y17874D01*
Y21374D01*
G01X1274Y10721D02*
Y14721D01*
X3867Y17314D01*
Y19008D01*
X5233Y20374D01*
Y21364D01*
X5292Y21423D01*
G01X-3726Y10721D02*
Y15716D01*
X-1627Y17815D01*
Y21315D01*
G01X-13726Y10721D02*
X-18757D01*
X-20325Y9153D01*
G01X-9712Y3793D02*
X-12212D01*
X-13726Y5307D01*
Y10721D01*
G01X-1627Y26815D02*
Y30390D01*
G01X33500Y58000D02*
X-5171D01*
X-13838Y49333D01*
Y42384D01*
X-17962Y38259D01*
X-21462D01*
G01X3681Y-52764D02*
Y-56046D01*
G01X24000Y8829D02*
Y5762D01*
X22099Y3861D01*
Y-5047D01*
X19970Y-7176D01*
Y-14291D01*
X19904Y-14357D01*
Y-27906D01*
G01D02*
X21158Y-31174D01*
G01X18108Y-45018D02*
Y-43412D01*
X15102Y-40405D01*
G01X19759Y-37296D02*
X19770D01*
X19776Y-37289D01*
X20159D01*
X21139Y-36308D01*
X23129D01*
G01X24177Y16768D02*
Y12981D01*
X24024Y12829D01*
X24000Y8829D01*
G01X16170Y35638D02*
Y40288D01*
G01X48700Y44546D02*
X23336D01*
X21220Y46662D01*
X16170D01*
G01X53302Y-49902D02*
X53224D01*
X51014Y-52111D01*
Y-52137D01*
G01X38863Y-13762D02*
X38887Y-9762D01*
X38863Y-9738D01*
Y-9196D01*
G01X29677Y16768D02*
Y20423D01*
X-51249Y-51612D03*
X-64102Y26009D03*
X-51767Y17308D03*
X-49813Y22050D03*
X-57163Y26362D03*
X-64266Y37806D03*
X-43463Y-10564D03*
X-34359Y13250D03*
X-34565Y18287D03*
X-34789Y35750D03*
X-44598Y53402D03*
X-3228Y-57099D03*
X-833Y-29296D03*
X-21550Y-216D03*
X-3234Y-16954D03*
X-9712Y3793D03*
X-1627Y30390D03*
X3681Y-56046D03*
X5880Y-30507D03*
X15102Y-40405D03*
X19759Y-37296D03*
X16131Y-2199D03*
X4430Y-12716D03*
X23892Y-18463D03*
X11339Y16288D03*
X16170Y40288D03*
X38181Y-51489D03*
X31556Y-65846D03*
X35628Y-65155D03*
X47501Y-46452D03*
X33683Y-47863D03*
X37796Y-44698D03*
X38863Y-9196D03*
X31762Y-22716D03*
X29677Y20423D03*
X53302Y-49902D03*
G54D21*
X-37963Y-15954D03*
X-43463D03*
X-1139Y35466D03*
X24177Y16768D03*
X4361Y35466D03*
X29677Y16768D03*
G54D30*
X25061Y-44543D03*
X51014Y-52137D03*
X47184Y-55351D03*
X43354Y-58565D03*
X39523Y-61779D03*
X28891Y-41329D03*
X32721Y-38115D03*
X36551Y-34901D03*
G54D31*
X23863Y-13671D03*
X24000Y8829D03*
X38863Y-13762D03*
X33863Y-13732D03*
X28863Y-13701D03*
X29000Y8798D03*
X34000Y8768D03*
X38999Y8738D03*
G54D22*
X-37910Y25618D03*
X-34996Y30282D03*
G54D13*
X-58500Y-34000D03*
X0Y68000D03*
X59000Y-33500D03*
G54D23*
X-10974Y-51791D03*
X-10400Y-46321D03*
G54D32*
X35513Y16875D03*
X41013Y16836D03*
G54D14*
X-48599Y2260D03*
X-53263Y5174D03*
X-37672Y15225D03*
X-42336Y18140D03*
G54D33*
G01X-55690Y42240D02*
X-54112Y41215D01*
G01X-55855Y38531D02*
X-54112Y41215D01*
G01D02*
X-52370Y43899D01*
G01X-61316Y46727D02*
X-59104Y45178D01*
G01D02*
X-56892Y43629D01*
G01X-59104Y45178D02*
X-57555Y47390D01*
G01X-39051Y-58562D02*
X-35936Y-60825D01*
G01D02*
X-32822Y-63088D01*
G01X-38435Y-64263D02*
X-35936Y-60825D01*
G01D02*
X-33438Y-57386D01*
G01X-13660Y-51509D02*
X-10974Y-51791D01*
G01D02*
X-8289Y-52074D01*
G01X-11257Y-54477D02*
X-10974Y-51791D01*
G01X-3228Y-47313D02*
X-1471D01*
X225Y-49010D01*
Y-55703D01*
X1480Y-56958D01*
X1481D01*
X2770Y-58246D01*
X23956D01*
X31556Y-65846D01*
G01X-3228Y-47313D02*
X-6827D01*
X-7515Y-46624D01*
X-10400Y-46321D01*
G01X19439Y-50354D02*
X20141Y-53168D01*
X21487Y-54515D01*
X32678D01*
X37338Y-59175D01*
X39523Y-61779D01*
G01X5053Y-69664D02*
Y-65514D01*
G01D02*
Y-61364D01*
G01X903Y-65514D02*
X5053D01*
G01D02*
X9203D01*
G01X11644Y-51742D02*
X11973Y-54422D01*
G01X11644Y-51742D02*
X14324Y-51413D01*
G01X6581Y-47264D02*
X7438Y-48121D01*
Y-55194D01*
X8810Y-56566D01*
X27038D01*
X35628Y-65155D01*
G01X23004Y-42092D02*
X25061Y-44543D01*
G01D02*
X27118Y-46995D01*
G01X23620Y-45752D02*
X25061Y-44543D01*
G01D02*
X26502Y-43334D01*
G01X20190Y-28653D02*
X21158Y-31174D01*
G01X18637Y-32142D02*
X21158Y-31174D01*
G01D02*
X23679Y-30206D01*
G01X6581Y-47264D02*
X7468D01*
X8095Y-46636D01*
X10973Y-46283D01*
G01X3681Y-47264D02*
X6581D01*
G01X23892Y-18463D02*
Y-17121D01*
X23863Y-17092D01*
Y-13671D01*
G01X24177Y16768D02*
Y20286D01*
X26872Y22981D01*
X37788D01*
X41033Y19736D01*
X41013Y16836D01*
G01X38181Y-51489D02*
X41168Y-54476D01*
G01D02*
Y-54414D01*
X42506Y-53077D01*
X43354Y-43384D01*
Y-2028D01*
X33992Y7449D01*
X34000Y8768D01*
G01X43354Y-58565D02*
X41168Y-55961D01*
Y-54476D01*
G01X47184Y-55351D02*
X44998Y-52747D01*
Y-46383D01*
G01D02*
Y-682D01*
X38999Y5317D01*
Y8738D01*
G01X47501Y-46452D02*
X45067D01*
X44998Y-46383D01*
G01X28863Y-13701D02*
X28842Y-17101D01*
Y-33492D01*
X30536Y-35511D01*
X32721Y-38115D01*
G01X33683Y-47863D02*
X35596Y-45950D01*
Y-41542D01*
X32721Y-38115D01*
G01X31762Y-22716D02*
Y-29353D01*
X32595Y-30186D01*
X34366Y-32297D01*
X36551Y-34901D01*
G01X37796Y-44698D02*
X40219Y-42275D01*
Y-38988D01*
X38737Y-37506D01*
X36551Y-34901D01*
G01X35513Y16875D02*
X35493Y13975D01*
X34797Y13279D01*
X29900D01*
X29008Y12387D01*
Y8807D01*
X29000Y8798D01*
G01X61733Y20144D02*
Y24294D01*
G01D02*
Y28444D01*
G01Y24294D02*
X65884D01*
G01X82677Y0D02*
G03I-82677J0D01*
G01X36743Y-2607D02*
G03I-5638J0D01*
G54D24*
X-6947Y-65514D03*
X-18947Y-63514D03*
X17053D03*
X5053Y-65514D03*
X48700Y44546D03*
X56100Y34889D03*
X61733Y24294D03*
X65601Y12760D03*
G54D15*
X-66702Y14047D03*
X-71315Y17042D03*
X-48213Y11757D03*
X-43600Y8761D03*
G54D34*
G01X-54753Y21913D02*
X-52448Y19608D01*
X-50814D01*
X-47386Y16180D01*
X-45707D01*
X-40494Y10966D01*
G01X-71315Y17042D02*
X-70135Y18222D01*
X-66165D01*
X-65941Y18445D01*
X-63091Y22834D01*
X-63046D01*
X-62600Y23522D01*
X-61546Y23746D01*
X-58967D01*
X-57134Y21913D01*
X-54753D01*
G01D02*
Y21869D01*
X-57980Y16899D01*
G01X-8732Y26874D02*
X-11732D01*
X-13377Y25229D01*
Y19071D01*
X-19044Y13404D01*
X-23625D01*
X-26063Y10966D01*
X-33389D01*
X-33406Y10950D01*
X-35312D01*
X-35328Y10966D01*
X-40494D01*
G01D02*
X-42699Y8761D01*
X-43600D01*
G01X-21462Y43759D02*
X-22273D01*
X-28167Y37865D01*
X-28714D01*
G01X16170Y46662D02*
X15770D01*
X11074Y41966D01*
Y23157D01*
X8592Y20675D01*
Y18372D01*
X6167Y15948D01*
X6157D01*
X4273Y14063D01*
Y8065D01*
X3404Y7195D01*
Y1336D01*
X-3726Y-5794D01*
Y-11779D01*
G01X1274Y10721D02*
Y7221D01*
X1313Y7182D01*
Y3891D01*
X-11207Y-8630D01*
Y-15045D01*
X-8728Y-17524D01*
X-7938Y-18314D01*
Y-20009D01*
G01X-1627Y21315D02*
X-316D01*
X1992Y23623D01*
Y23961D01*
X2754Y24723D01*
X3092D01*
X5292Y26923D01*
G01D02*
Y29923D01*
X3943Y31272D01*
X1823D01*
X-1139Y34234D01*
Y35466D01*
G01X5292Y21423D02*
X6066D01*
X9075Y24431D01*
Y30752D01*
X4361Y35466D01*
G54D16*
X-53787Y14176D03*
X-57980Y16899D03*
X-62174Y19622D03*
X-66367Y22345D03*
X-54112Y41215D03*
X-49919Y38492D03*
X-45726Y35769D03*
X-41532Y33046D03*
G54D25*
X1274Y-11779D03*
X-3726D03*
X-8726D03*
X-13726D03*
Y10721D03*
X-8726D03*
X-3726D03*
X1274D03*
G54D35*
G01X10574Y-23740D02*
Y-25813D01*
X5880Y-30507D01*
G01X10574Y-2199D02*
X16131D01*
G01X10574Y-12716D02*
X4430D01*
G01X11339Y16288D02*
X24588Y29537D01*
X42875D01*
X48118Y24294D01*
X61733D01*
G01X10574Y8824D02*
Y15523D01*
X11339Y16288D01*
G54D26*
X11644Y-51742D03*
X10973Y-46283D03*
G54D17*
X-62259Y40673D03*
X-59104Y45178D03*
G54D27*
X19439Y-50354D03*
X18108Y-45018D03*
G54D18*
X-48098Y47902D03*
Y53402D03*
X-28714Y37865D03*
Y43365D03*
X-35858Y45121D03*
Y39621D03*
X-3228Y-52813D03*
X-833Y-25796D03*
X-7938Y-25509D03*
X-3228Y-47313D03*
X-833Y-20296D03*
X-7938Y-20009D03*
X-8732Y26874D03*
Y21374D03*
X-1627Y26815D03*
Y21315D03*
X-20325Y3653D03*
Y9153D03*
X-21462Y43759D03*
Y38259D03*
X3681Y-52764D03*
Y-47264D03*
X5292Y26923D03*
Y21423D03*
G54D28*
X23129Y-36308D03*
X21158Y-31174D03*
G54D19*
X-35070Y-48798D03*
G54D29*
X10574Y-23740D03*
Y-12716D03*
Y-2199D03*
Y8824D03*
X16170Y46662D03*
Y35638D03*
M02*
